<svg width="1440" height="376" viewBox="0 0 1440 376" fill="none" xmlns="http://www.w3.org/2000/svg">
<g opacity="0.05">
<path fill-rule="evenodd" clip-rule="evenodd" d="M-25.3203 22.5762L36.7691 37.4457C95.4091 52.3153 219.588 82.0544 340.317 84.037C464.496 86.0196 585.226 60.2457 709.404 45.3762C830.134 30.5066 950.863 26.5414 1075.04 30.5066C1195.77 35.4631 1319.95 47.3588 1378.59 54.2979L1440.68 60.2457V136.576H1378.59C1319.95 136.576 1195.77 136.576 1075.04 136.576C950.863 136.576 830.134 136.576 709.404 136.576C585.226 136.576 464.496 136.576 340.317 136.576C219.588 136.576 95.4091 136.576 36.7691 136.576H-25.3203V22.5762Z" fill="white"/>
<path opacity="0.52" fill-rule="evenodd" clip-rule="evenodd" d="M-25.3203 0.576172L36.7691 15.4457C95.4091 30.3153 219.588 60.0544 340.317 62.037C464.496 64.0196 585.226 38.2457 709.404 23.3762C830.134 8.50661 950.863 4.54139 1075.04 8.50661C1195.77 13.4631 1319.95 25.3588 1378.59 32.2979L1440.68 38.2457V114.576H1378.59C1319.95 114.576 1195.77 114.576 1075.04 114.576C950.863 114.576 830.134 114.576 709.404 114.576C585.226 114.576 464.496 114.576 340.317 114.576C219.588 114.576 95.4091 114.576 36.7691 114.576H-25.3203V0.576172Z" fill="white"/>
<path fill-rule="evenodd" clip-rule="evenodd" d="M1450.68 224.576L1388.59 209.707C1329.95 194.837 1205.77 165.098 1085.04 163.115C960.863 161.133 840.134 186.907 715.955 201.776C595.226 216.646 474.496 220.611 350.317 216.646C229.588 211.689 105.409 199.794 46.769 192.854L-15.3203 186.907V110.576H46.769C105.409 110.576 229.588 110.576 350.317 110.576C474.496 110.576 595.226 110.576 715.955 110.576C840.134 110.576 960.863 110.576 1085.04 110.576C1205.77 110.576 1329.95 110.576 1388.59 110.576H1450.68V224.576Z" fill="#F5F5F5"/>
<path opacity="0.52" fill-rule="evenodd" clip-rule="evenodd" d="M1450.68 246.576L1388.59 231.707C1329.95 216.837 1205.77 187.098 1085.04 185.115C960.863 183.133 840.134 208.907 715.955 223.776C595.226 238.646 474.496 242.611 350.317 238.646C229.588 233.689 105.409 221.794 46.769 214.854L-15.3203 208.907V132.576H46.769C105.409 132.576 229.588 132.576 350.317 132.576C474.496 132.576 595.226 132.576 715.955 132.576C840.134 132.576 960.863 132.576 1085.04 132.576C1205.77 132.576 1329.95 132.576 1388.59 132.576H1450.68V246.576Z" fill="#F5F5F5"/>
</g>
</svg>
