<svg width="1440" height="805" viewBox="0 0 1440 805" fill="none" xmlns="http://www.w3.org/2000/svg" xmlns:xlink="http://www.w3.org/1999/xlink">
<rect width="1440" height="805" fill="url(#pattern0_490_758)"/>
<defs>
<pattern id="pattern0_490_758" patternUnits="userSpaceOnUse" viewBox="-4924.14 384.82 223 252" width="15.331250147687065%" height="30.991304646367613%" x="596.605" y="323.35" patternContentUnits="objectBoundingBox">
<g id="pattern0_490_758_inner">
<path d="M-4987.82 310.012C-4980.22 310.411 -4972.05 310.793 -4963.74 311.195C-4959.56 311.397 -4955.36 311.603 -4951.17 311.837C-4949.08 311.954 -4947.05 312.075 -4944.94 312.222C-4944.47 312.255 -4943.91 312.296 -4943.41 312.335C-4942.92 312.375 -4942.48 312.412 -4941.96 312.459C-4941.72 312.482 -4941.5 312.504 -4941.31 312.525C-4941.13 312.545 -4940.85 312.575 -4940.7 312.597C-4940.54 312.618 -4940.39 312.642 -4940.38 312.648C-4940.39 312.649 -4940.45 312.643 -4940.64 312.606C-4940.68 312.596 -4940.96 312.556 -4941.63 312.328C-4941.97 312.204 -4942.43 312.043 -4943.17 311.633C-4943.9 311.189 -4945.04 310.614 -4946.49 308.652C-4945.72 309.789 -4945.2 310.677 -4944.81 311.484C-4944.65 311.822 -4944.52 312.167 -4944.51 312.245C-4944.49 312.343 -4944.61 312.164 -4944.66 311.421C-4944.73 310.584 -4944.51 308.719 -4943.28 307.05C-4942.11 305.444 -4940.78 304.853 -4940.32 304.666C-4939.78 304.461 -4939.79 304.5 -4939.95 304.491C-4940.09 304.491 -4940.5 304.49 -4940.89 304.461C-4944.66 304.199 -4950.39 302.635 -4955.27 301.081C-4955.6 300.976 -4955.93 300.869 -4956.26 300.761C-4966.01 297.602 -4976.02 293.613 -4988.65 288.948C-4990.29 288.346 -4991.93 287.751 -4993.69 287.137C-4997.49 285.829 -5001.43 284.433 -5006.63 283.23C-5019.83 280.078 -5035.9 277.361 -5053.94 272.684C-5056.21 272.078 -5058.43 271.446 -5060.6 270.782C-5076.98 266.028 -5093.22 262.93 -5110.98 264.56C-5113.88 264.934 -5118.66 265.877 -5123.23 270.354C-5127.83 274.908 -5128.98 280.775 -5129.07 283.951C-5129.14 290.54 -5127.79 293.126 -5127.04 295.66C-5123.91 304.761 -5118.84 313.29 -5112.27 320.153C-5102.74 329.054 -5095.85 330.085 -5089.49 332.192C-5083.15 333.938 -5077.41 334.919 -5072.01 335.676C-5061.2 337.143 -5051.7 337.62 -5043.27 337.845C-5026.43 338.234 -5014.03 337.478 -5006.77 337.016C-5000.64 336.608 -4994.47 336.092 -4988.19 335.437C-4985.81 335.129 -4982.34 335.096 -4976.8 333.38C-4971.22 331.748 -4965.12 327.201 -4962.01 323.179C-4957.14 317.292 -4953.41 310.615 -4950.64 304.107C-4949.26 300.873 -4948.1 297.642 -4947.1 294.84C-4946.61 293.456 -4946.14 292.159 -4945.81 291.341C-4945.65 290.936 -4945.51 290.656 -4945.54 290.723C-4945.6 290.806 -4945.66 291.211 -4946.92 292.731C-4952.57 298.501 -4956.4 297.729 -4958.61 297.738C-4959.84 297.6 -4960.97 297.381 -4962.69 296.572C-4964.28 295.66 -4967.29 294.482 -4970.02 288.686C-4970.37 288.106 -4970.74 285.818 -4970.33 284.441C-4969.96 283.035 -4969.63 282.945 -4970.12 283.439C-4971.05 284.506 -4974.26 286.867 -4978.03 288.774C-4985.49 292.653 -4996.64 296.455 -5005.48 298.108C-5007.15 298.38 -5009.26 298.579 -5011.52 298.682C-5016.19 298.894 -5021.47 298.74 -5026.95 298.35C-5031.4 298.034 -5035.11 296.979 -5035.11 296.204C-5035.14 295.419 -5031.52 295.215 -5027.13 295.542C-5021.83 295.937 -5016.73 296.101 -5012.29 295.94C-5012.27 295.939 -5012.25 295.938 -5012.23 295.938C-5009.84 295.851 -5007.6 295.652 -5005.96 295.389C-4997.5 293.834 -4986.31 290.028 -4979.22 286.329C-4975.62 284.527 -4972.64 282.262 -4972.13 281.647C-4971.84 281.384 -4972.44 281.848 -4972.94 283.825C-4973.49 285.772 -4973.02 288.737 -4972.48 289.729C-4969.31 296.469 -4965.77 297.882 -4963.86 298.973C-4961.79 299.944 -4960.39 300.221 -4958.87 300.389C-4956.14 300.398 -4951.52 301.234 -4944.92 294.476C-4943.4 292.647 -4943.28 292.091 -4943.16 291.901C-4943.08 291.73 -4943.2 291.954 -4943.35 292.32C-4943.65 293.063 -4944.12 294.35 -4944.62 295.737C-4945.62 298.546 -4946.81 301.853 -4948.24 305.167C-4951.08 311.841 -4954.95 318.743 -4960 324.83C-4963.31 329.136 -4969.99 334.1 -4976.01 335.847C-4981.97 337.687 -4985.56 337.696 -4987.92 338.004C-4993.41 338.57 -4998.81 339.028 -5004.18 339.403C-5011.63 339.903 -5024.4 340.717 -5041.74 340.355C-5050.41 340.143 -5060.24 339.673 -5071.41 338.185C-5077.03 337.413 -5082.92 336.428 -5089.58 334.622C-5096.22 332.413 -5103.43 331.535 -5113.93 321.784C-5120.74 314.656 -5125.96 305.822 -5129.17 296.444C-5129.95 293.794 -5131.4 291.096 -5131.33 283.862C-5131.22 280.378 -5129.96 273.845 -5124.83 268.765C-5119.73 263.772 -5114.42 262.742 -5111.26 262.332C-5093 260.689 -5076.61 263.887 -5060.05 268.72C-5057.34 269.559 -5054.54 270.35 -5051.66 271.105C-5034.58 275.463 -5019.09 278.201 -5006.25 281.288C-4999.72 282.832 -4995.05 284.605 -4990.55 286.203C-4988.88 286.808 -4987.24 287.418 -4985.69 288C-4985.65 288.014 -4985.61 288.028 -4985.58 288.042C-4972.94 292.812 -4963.38 296.605 -4954.21 299.54C-4954.01 299.601 -4953.83 299.659 -4953.63 299.722C-4948.94 301.221 -4943.32 302.641 -4940.5 302.767C-4940.21 302.785 -4940.04 302.779 -4940.12 302.809C-4940.17 302.826 -4940.29 302.856 -4940.5 302.924C-4940.74 303.002 -4941.11 303.134 -4941.6 303.386C-4942.53 303.835 -4944.44 305.254 -4945.46 307.403C-4946.5 309.577 -4946.38 311.261 -4946.3 311.936C-4946.26 312.3 -4946.19 312.538 -4946.15 312.668C-4946.11 312.786 -4946.09 312.805 -4946.09 312.784C-4946.09 312.761 -4946.11 312.676 -4946.16 312.556C-4946.2 312.454 -4946.26 312.321 -4946.33 312.161C-4946.68 311.439 -4947.13 310.659 -4947.83 309.605C-4946.13 311.91 -4944.8 312.572 -4943.95 313.088C-4943.08 313.562 -4942.55 313.75 -4942.14 313.893C-4941.35 314.159 -4941.03 314.202 -4940.98 314.217C-4940.75 314.263 -4940.66 314.273 -4940.63 314.275C-4940.59 314.273 -4940.73 314.249 -4940.88 314.228C-4941.02 314.207 -4941.3 314.176 -4941.47 314.156C-4941.66 314.134 -4941.88 314.111 -4942.12 314.088C-4942.64 314.039 -4943.06 314 -4943.56 313.959C-4944.07 313.917 -4944.61 313.876 -4945.09 313.84C-4947.22 313.684 -4949.23 313.557 -4951.35 313.431C-4955.58 313.181 -4959.79 312.96 -4963.99 312.743C-4972.34 312.312 -4980.48 311.902 -4988.04 311.476C-4992.98 311.198 -4996.86 310.655 -4996.82 310.261C-4996.73 309.869 -4992.77 309.756 -4987.82 310.012ZM-5102.12 279.276C-5100.38 275.696 -5096.11 271.581 -5091.15 267.056C-5079.38 256.363 -5053.7 257.777 -5033.67 261.527C-5032.55 261.742 -5031.54 262.058 -5030.58 262.483C-5016.27 270.077 -5016.54 296.168 -5014.39 310.263C-5013.12 317.262 -5010.03 321.01 -5007.86 323.898C-5003.56 329.213 -4998.41 333.336 -4992.57 336.981C-4980.59 344.601 -4966.53 337.654 -4959.96 334.858C-4959.67 334.75 -4959.43 334.681 -4959.46 334.692C-4955.82 334.039 -4950.91 330.278 -4949.45 326.313C-4947.83 322.436 -4947.9 319.44 -4948.01 316.881C-4950.24 299.065 -4958.42 286.466 -4964.04 271.688C-4964.22 271.209 -4964.39 270.745 -4964.54 270.318C-4966.08 266.028 -4967.73 261.319 -4970.24 256.623C-4971.5 253.79 -4976.13 247.667 -4981.91 246.246C-4987.35 244.696 -4991.23 245.348 -4994.64 245.864C-5028.08 252.641 -5048.04 271.026 -5061.41 287.902C-5068.69 297.574 -5069.32 308.783 -5068.95 316.503C-5068.76 320.588 -5068.33 324.207 -5068.04 327.343C-5067.8 330.122 -5067.21 332.812 -5066.36 335.309C-5066.36 335.32 -5066.36 335.331 -5066.35 335.343C-5063.09 344.72 -5057.06 350.628 -5052.02 354.985C-5042.53 363.117 -5031.53 366.48 -5021.73 367.235C-5017.04 367.604 -5012.53 367.398 -5008.21 366.794C-5001.35 366.07 -4995.22 360.519 -4992.79 356.217C-4990.07 351.801 -4988.81 347.963 -4987.57 344.518C-4985.35 337.762 -4982.81 331.712 -4980.97 330.73C-4981.97 331.626 -4983.06 331.958 -4983.43 332.04C-4983.83 332.129 -4983.73 332.103 -4983.4 332.167C-4982.69 332.277 -4981.3 332.644 -4979.27 333.227C-4979.24 333.233 -4979.22 333.24 -4979.2 333.247C-4978.43 333.526 -4978.59 333.522 -4978.1 333.924C-4977.65 334.327 -4976.74 335.315 -4975.76 336.627C-4974.57 338.195 -4973.42 339.988 -4972.87 341.221C-4972.59 341.787 -4972.52 342.319 -4972.66 341.676C-4972.7 341.341 -4972.83 340.588 -4972.48 339.179C-4972.18 337.797 -4970.98 335.847 -4969.71 334.891C-4981.11 347.337 -5006.11 324.316 -5020.59 309.638C-5021.81 308.484 -5023.1 307.265 -5024.59 305.961C-5025.14 305.488 -5025.8 304.929 -5026.42 304.435C-5029.13 302.163 -5032.49 301.209 -5034.22 300.881C-5035.1 300.704 -5035.68 300.608 -5035.72 300.611C-5035.78 300.627 -5035.11 300.743 -5033.98 301.582C-5032.63 302.621 -5032.15 304.049 -5032.11 304.562C-5032.06 305.125 -5032.19 305.037 -5032.13 304.663C-5031.53 300.066 -5024.43 291.842 -5015.54 284.193C-5009.98 279.09 -4999.26 275.971 -4986.57 275.132C-4982.45 274.84 -4978.31 274.761 -4974.21 274.809C-4966.56 274.723 -4959.7 279.324 -4952.6 285.366C-4942.95 293.505 -4938.31 306.533 -4935.72 318.798C-4934.4 325.124 -4933.61 331.374 -4932.97 337.542C-4932.91 338.148 -4932.82 338.755 -4932.69 339.364C-4932.22 341.555 -4931.41 343.792 -4929.6 346.065C-4927.96 348.163 -4924.17 351.265 -4918.86 350.346C-4910.08 348.405 -4907.42 341.594 -4905.85 337.724C-4904.3 333.425 -4903.67 329.556 -4903.22 325.819C-4902.58 316.923 -4904.83 311.146 -4906.75 305.235C-4913.41 287.221 -4922.51 272.988 -4932.05 260.611C-4932.63 259.873 -4933.25 259.175 -4933.94 258.523C-4934.73 257.783 -4935.66 257.059 -4936.79 256.439C-4939.13 255.035 -4942.98 254.543 -4945.7 255.48C-4951.11 257.455 -4952.58 260.195 -4954.3 262.253C-4957.39 266.561 -4959.16 270.46 -4960.9 274.263C-4964.27 281.825 -4966.83 288.859 -4969.32 295.413C-4974.24 308.473 -4978.58 319.975 -4983.56 328.396C-4990.26 339.577 -4998.8 346.388 -5006.68 350.749C-5026.35 360.885 -5040.15 360.034 -5049.02 360.133C-5051.74 360.057 -5054.14 359.883 -5056.32 359.657C-5056.33 359.655 -5056.35 359.653 -5056.37 359.651C-5071.77 357.832 -5085.6 347.575 -5099.6 334.574C-5101.68 332.621 -5103.68 330.493 -5105.59 328.178C-5108.63 324.489 -5111.43 320.314 -5113.93 315.644C-5119.62 304.921 -5122.46 294.884 -5124.38 286.367C-5125.03 283.476 -5124.98 280.815 -5124.52 278.281C-5123.88 274.775 -5122.46 271.568 -5120.71 268.615C-5120.68 268.56 -5120.65 268.506 -5120.62 268.451C-5120.37 268.039 -5120.12 267.632 -5119.86 267.229C-5119.66 266.925 -5119.46 266.621 -5119.25 266.319C-5119.18 266.197 -5119.11 266.089 -5119.05 266.008C-5119.01 265.944 -5118.98 265.894 -5118.96 265.862C-5118.95 265.856 -5118.95 265.85 -5118.95 265.843C-5118.56 265.262 -5118.2 264.773 -5118.13 264.673C-5118 264.498 -5117.89 264.344 -5117.83 264.265C-5117.51 263.849 -5117.09 263.319 -5116.8 262.969C-5116.07 262.072 -5114.77 260.511 -5112.5 258.212C-5112.3 257.999 -5112.09 257.788 -5111.88 257.579C-5110.15 255.849 -5108.41 254.228 -5106.41 252.822C-5106.27 252.725 -5106.13 252.629 -5105.99 252.537C-5105.17 251.996 -5104.34 251.525 -5103.48 251.16C-5102.66 250.786 -5101.19 250.478 -5098.85 250.739C-5095.42 251.107 -5091.71 252.878 -5091.35 253.406C-5090.91 253.998 -5093.97 253.014 -5097.43 252.344C-5100.57 251.74 -5102.3 252.114 -5102.97 252.46C-5103.22 252.565 -5103.46 252.682 -5103.71 252.809C-5103.82 252.869 -5103.94 252.932 -5104.06 252.997C-5106 254.07 -5108.21 255.911 -5110.58 258.267C-5110.69 258.371 -5110.8 258.477 -5110.9 258.585C-5111.62 259.299 -5112.33 260.037 -5112.97 260.733C-5114.31 262.19 -5115.75 263.881 -5117.25 265.952C-5117.55 266.368 -5117.85 266.798 -5118.15 267.239C-5120.05 270.065 -5121.87 273.454 -5122.79 277.082C-5123.51 279.948 -5123.68 282.877 -5122.96 286.071C-5120.9 295.211 -5117.78 305.814 -5111.61 316.731C-5109.16 321.029 -5106.42 324.913 -5103.42 328.379C-5101.87 330.179 -5100.24 331.868 -5098.55 333.446C-5084.98 346.066 -5070.94 356.407 -5056.18 358.011C-5054.86 358.146 -5053.42 358.253 -5052.03 358.327C-5049.12 358.479 -5046.33 358.518 -5043.33 358.428C-5034.67 357.84 -5023.08 357.933 -5005.73 348.268C-4998.74 344.091 -4991.16 337.765 -4985.03 327.523C-4980.27 319.474 -4975.95 308.115 -4971.06 295.07C-4968.58 288.51 -4966.02 281.455 -4962.62 273.758C-4960.85 269.885 -4959.06 265.884 -4955.85 261.344C-4954 259.134 -4952.55 256.186 -4946.44 253.83C-4943.33 252.687 -4938.74 253.194 -4936.02 254.809C-4934.68 255.536 -4933.65 256.343 -4932.74 257.188C-4931.95 257.921 -4931.26 258.697 -4930.63 259.507C-4921.14 271.776 -4912.12 285.829 -4905.31 303.735C-4903.22 310.051 -4900.69 316.013 -4901.36 326.037C-4901.83 329.906 -4902.46 333.912 -4904.12 338.461C-4905.78 342.516 -4908.68 350.033 -4918.52 352.212C-4925.89 353.348 -4930.14 348.756 -4931.9 346.156C-4933.83 343.233 -4934.57 340.452 -4934.87 337.74C-4934.87 337.709 -4934.88 337.679 -4934.88 337.649C-4935.54 331.323 -4936.36 325.078 -4937.67 318.913C-4940.24 306.844 -4944.89 294.383 -4953.88 286.868C-4960.97 280.851 -4967.37 276.707 -4974.26 276.822C-4977.67 276.787 -4981.1 276.843 -4984.51 277.036C-4997.96 277.709 -5009.04 280.925 -5014.2 285.788C-5023.02 293.343 -5029.82 301.619 -5030.06 305.161C-5030.07 305.323 -5029.89 305.133 -5030.01 304.173C-5030.11 303.274 -5030.83 301.283 -5032.7 299.863C-5033.77 299.055 -5034.63 298.742 -5034.96 298.616C-5035.31 298.493 -5035.22 298.518 -5034.87 298.576C-5034.15 298.714 -5032.33 298.969 -5030.01 299.877C-5028.42 300.495 -5026.61 301.487 -5025.04 302.782C-5024.93 302.866 -5024.83 302.951 -5024.72 303.035C-5023.77 303.814 -5022.94 304.542 -5022.15 305.251C-5006.22 321.229 -4980.57 344.954 -4971.09 333.19C-4972.68 334.399 -4974.18 336.808 -4974.59 338.58C-4975.05 340.381 -4974.9 341.428 -4974.83 341.964C-4974.74 342.509 -4974.67 342.638 -4974.67 342.625C-4974.67 342.606 -4974.73 342.432 -4974.84 342.198C-4975.28 341.208 -4976.36 339.49 -4977.5 338.006C-4978.41 336.784 -4979.23 335.916 -4979.48 335.69C-4979.61 335.567 -4979.56 335.582 -4979.52 335.578C-4979.47 335.578 -4979.48 335.536 -4979.74 335.444C-4981.33 335.006 -4982.36 334.711 -4983.06 334.552C-4983.64 334.406 -4983.95 334.414 -4983.46 334.355C-4983.06 334.295 -4981.29 334.023 -4979.49 332.457C-4980.53 332.63 -4983.23 338.42 -4985.41 345.219C-4986.67 348.691 -4987.94 352.633 -4990.83 357.367C-4993.39 361.957 -5000.23 368.238 -5007.86 369.042C-5013.2 369.792 -5018.87 369.969 -5024.83 369.208C-5033.95 368.016 -5044.06 364.742 -5053.51 356.719C-5058.08 352.742 -5063.77 347.446 -5067.62 338.507C-5068.99 335.235 -5069.99 331.489 -5070.34 327.539C-5070.61 324.666 -5071.01 321.263 -5071.23 317.331C-5071.68 309.322 -5071.25 297.115 -5063.28 286.505C-5049.48 269.098 -5029.28 250.494 -4995.06 243.507C-4991.47 242.971 -4987.33 242.219 -4981.2 243.95C-4974.68 245.534 -4969.38 252.576 -4968.13 255.471C-4965.49 260.379 -4963.81 265.207 -4962.27 269.483C-4962.03 270.175 -4961.73 270.964 -4961.42 271.749C-4955.89 286.102 -4948.07 297.843 -4945.57 316.571C-4945.45 319.312 -4945.3 322.577 -4947.11 327.077C-4948.7 331.678 -4954.57 336.333 -4958.86 337.074C-4958.66 337.019 -4958.92 337.09 -4959.26 337.223C-4965.2 339.605 -4979.89 347.637 -4993.86 339.111C-5001.08 334.544 -5007.74 329.4 -5012.98 321.033C-5014.37 318.65 -5016.09 315.522 -5016.89 310.689C-5017.96 303.151 -5018.41 294.436 -5020.36 285.151C-5022.16 276.004 -5026.3 266.362 -5032.24 264.552C-5032.82 264.335 -5033.43 264.164 -5034.11 264.032C-5054.83 259.971 -5080.11 259.785 -5089.42 269.004C-5093.18 272.472 -5096.34 275.482 -5098.22 278.067C-5099.22 279.425 -5099.9 280.677 -5100.26 281.724C-5100.48 282.365 -5100.59 282.934 -5100.64 283.492C-5101.39 288.76 -5102.27 293.785 -5102.68 298.171C-5102.88 300.345 -5102.94 302.367 -5102.79 303.829C-5102.69 305.297 -5102.18 306.043 -5102.37 305.321C-5098.63 311.622 -5093.56 316.817 -5092.48 316.334C-5092.52 316.303 -5092.55 316.276 -5092.58 316.254C-5092.77 316.052 -5092.51 315.966 -5093.1 315.748C-5093.48 315.681 -5093.85 315.417 -5095.99 315.743C-5097.07 315.998 -5098.91 316.24 -5101.71 318.57C-5104.66 320.817 -5106.53 326.241 -5106.21 328.918C-5107.45 323.789 -5112.09 309.382 -5111.04 295.331C-5110.3 280.922 -5104.8 266.368 -5097.07 254.077C-5092.54 244.255 -5074.27 230.469 -5060.09 230.723C-5039.38 229.668 -5020.6 226.464 -4992.53 238.837C-4980.66 245.617 -4959.62 256.422 -4953.57 281.037C-4950.4 294.21 -4948.66 312.511 -4958.81 328.951C-4970.93 346.604 -4976.26 360.939 -4999.8 378.927C-5003.52 381.143 -5009.25 382.967 -5014.27 382.964C-5016.82 383.008 -5019.03 382.725 -5020.71 382.434C-5020.72 382.433 -5020.79 382.42 -5020.91 382.402C-5021.81 382.217 -5024.57 382.091 -5028.84 380.55C-5033.05 379.208 -5039.42 374.55 -5042.06 369.077C-5055.22 336.926 -5055.33 318.084 -5065.03 302.975C-5073.21 288.692 -5090.63 277.158 -5096.99 277.217C-5101.69 276.784 -5104.08 276.452 -5105.47 276.469C-5105.76 276.467 -5105.92 276.486 -5105.75 276.471C-5105.57 276.441 -5105.1 276.438 -5103.77 275.987C-5102.53 275.512 -5099.84 274.514 -5097.06 271.036C-5094.23 267.554 -5093.51 262.727 -5093.72 260.569C-5093.24 282.382 -5091.95 294.214 -5090.11 301.541C-5089.89 302.475 -5089.67 303.31 -5089.47 304.047C-5089.29 304.704 -5089.12 305.291 -5088.96 305.801C-5086.64 313.469 -5083.39 318.467 -5079.93 321.171C-5079.74 321.323 -5079.55 321.467 -5079.36 321.607C-5078.78 322.019 -5078.2 322.383 -5077.57 322.72C-5076.78 323.147 -5075.76 323.434 -5075.42 323.44C-5075.27 323.454 -5075.31 323.39 -5075.83 323.433C-5076.34 323.485 -5077.46 323.661 -5078.98 324.567C-5077.19 323.458 -5074.98 321.892 -5072.52 320.061C-5061.01 311.326 -5048.85 301.951 -5037.6 294.046C-5014.55 277.788 -4994.99 263.301 -4974.7 250.521C-4971.85 248.766 -4968.95 247.039 -4965.66 245.306C-4964.01 244.442 -4962.25 243.563 -4960.11 242.662C-4957.82 241.796 -4955.9 240.721 -4950.32 239.984C-4950.25 239.976 -4950.18 239.969 -4950.1 239.962C-4949.31 239.886 -4948.46 239.839 -4947.52 239.845C-4939.15 239.054 -4925.78 246.208 -4921.82 253.664C-4910.9 269.721 -4894.66 292.489 -4898.19 320.201C-4898.43 322.181 -4898.75 324.12 -4899.15 326.025C-4902.93 344.556 -4911.5 363.919 -4927.91 375.248C-4935.99 380.366 -4947.9 388.056 -4965.82 380.228C-4969.64 378.323 -4977.98 375.754 -4985.73 371.385C-4993.51 367.179 -5002.28 359.387 -5006.52 349.621C-5006.6 349.45 -5006.67 349.279 -5006.75 349.108C-5012.39 336.614 -5015.85 325.775 -5019.16 315.211C-5021.46 307.847 -5023.58 300.903 -5025.76 295.338C-5026.84 292.577 -5027.97 290.159 -5028.81 288.83C-5029.2 288.179 -5029.53 287.824 -5029.43 287.964C-5029.34 288.078 -5028.75 288.785 -5027.29 289.556C-5031.5 287.469 -5035.43 285.601 -5039.38 283.866C-5040.78 283.25 -5042.14 282.669 -5043.53 282.095C-5043.93 281.928 -5044.34 281.761 -5044.75 281.594C-5060.85 274.999 -5078.39 270.765 -5090.07 273.187C-5092.76 273.722 -5094.72 273.911 -5095.11 273.202C-5095.48 272.508 -5093.87 271.027 -5090.88 270.4C-5078.2 267.734 -5060.42 272.07 -5043.63 278.91C-5043.63 278.91 -5043.63 278.91 -5043.63 278.91C-5042.23 279.478 -5040.79 280.077 -5039.4 280.679C-5034.97 282.591 -5030.64 284.644 -5025.97 286.958C-5027 286.412 -5027.34 285.96 -5027.27 286.017C-5027.21 286.052 -5026.81 286.525 -5026.36 287.254C-5025.42 288.753 -5024.27 291.197 -5023.18 293.974C-5020.97 299.574 -5018.87 306.403 -5016.62 313.63C-5013.44 323.779 -5010.25 333.877 -5004.99 345.93C-5004.63 346.756 -5004.25 347.591 -5003.86 348.436C-5000.28 356.666 -4993.05 363.742 -4985.98 367.878C-4977.96 372.747 -4969.1 375.372 -4964.51 377.644C-4948.34 384.736 -4937.22 377.761 -4929.56 372.868C-4913.95 362.096 -4905.68 343.544 -4901.98 325.427C-4901.63 323.758 -4901.34 322.075 -4901.12 320.345C-4897.48 293.911 -4913.02 271.634 -4924.22 255.257C-4927.79 248.732 -4939.04 242.307 -4946.77 242.74C-4947.03 242.732 -4947.29 242.728 -4947.54 242.727C-4953.89 242.949 -4955.69 244.155 -4958.06 244.938C-4960.23 245.803 -4961.88 246.606 -4963.57 247.465C-4966.79 249.126 -4969.64 250.806 -4972.46 252.525C-4992.82 265.264 -5012.61 279.937 -5035.95 296.388C-5047.11 304.23 -5059.07 313.435 -5070.62 322.205C-5073.19 324.117 -5075.53 325.785 -5077.49 327.003C-5076.43 326.371 -5075.71 326.285 -5075.51 326.269C-5075.29 326.261 -5075.48 326.307 -5075.84 326.265C-5076.58 326.196 -5077.89 325.796 -5078.99 325.202C-5079.48 324.937 -5079.94 324.657 -5080.4 324.354C-5080.65 324.186 -5080.9 324.012 -5081.15 323.832C-5085.23 320.882 -5088.98 315.389 -5091.58 306.941C-5091.93 305.819 -5092.35 304.357 -5092.79 302.529C-5094.73 294.972 -5096.07 282.539 -5096.54 260.725C-5096.36 262.45 -5096.95 266.439 -5099.29 269.309C-5101.59 272.175 -5103.77 272.964 -5104.71 273.329C-5105.74 273.674 -5106.02 273.656 -5106.05 273.669C-5106.08 273.669 -5105.83 273.648 -5105.46 273.65C-5103.8 273.639 -5101.27 273.997 -5096.77 274.41C-5088.75 274.684 -5071.35 286.575 -5062.62 301.543C-5052.64 317.18 -5052.29 336.881 -5039.62 367.775C-5037.18 372.825 -5031.27 376.966 -5027.48 378.1C-5023.61 379.421 -5021.05 379.527 -5020.34 379.689C-5020.29 379.697 -5020.26 379.703 -5020.25 379.706C-5019.89 379.768 -5019.52 379.827 -5019.13 379.884C-5014.27 380.904 -5005.67 379.461 -5001.17 376.526C-4985.71 365.621 -4982.61 358.025 -4976.13 349.846C-4970.45 341.864 -4965.68 334.419 -4961.34 327.392C-4950.85 309.536 -4954.17 292.948 -4956.69 281.791C-4963.59 257.249 -4981.71 249.615 -4991.35 243.838C-4992.41 243.269 -4993.44 242.721 -4994.42 242.2C-5022.99 230.601 -5038.33 234.448 -5053.27 234.343C-5055.54 234.469 -5057.69 234.621 -5059.79 234.791C-5060.52 234.85 -5061.23 234.921 -5061.97 235.009C-5077 235.962 -5089.72 248.172 -5094.01 256.104C-5094.07 256.202 -5094.13 256.3 -5094.19 256.399C-5110.51 279.995 -5109.35 309.893 -5103.24 327.896C-5103.17 328.217 -5103.11 328.537 -5103.06 328.791C-5103.32 326.753 -5101.81 322.492 -5099.51 320.814C-5097.35 319.072 -5096 318.936 -5095.24 318.766C-5093.74 318.565 -5093.6 318.76 -5093.46 318.793C-5093.3 318.924 -5093.81 318.864 -5093.79 318.947C-5096.15 318.584 -5101.1 312.814 -5104.78 306.659C-5105.33 306.765 -5105.91 301.946 -5105.34 297.627C-5104.9 293.131 -5104.04 288.283 -5103.34 283.436C-5103.34 283.405 -5103.33 283.375 -5103.33 283.344C-5103.31 283.233 -5103.3 283.122 -5103.28 283.011C-5103.15 281.798 -5102.77 280.577 -5102.12 279.276ZM-5041.76 283.465C-5037.91 286.428 -5035.01 289.08 -5035.26 289.317C-5035.51 289.564 -5038.83 287.311 -5042.68 284.357C-5051.84 277.33 -5061.11 270.473 -5070.62 264.314C-5074.58 261.747 -5077.69 259.599 -5077.46 259.306C-5077.24 259.009 -5073.73 260.715 -5069.75 263.31C-5060.21 269.515 -5050.92 276.415 -5041.76 283.465ZM-5118.76 294.359C-5118.1 289.382 -5116.68 284.851 -5115.8 283.917C-5114.91 283 -5114.81 286.034 -5115.56 290.809C-5115.9 293.348 -5116.73 297.477 -5116.65 303.448C-5116.55 305.988 -5116.32 309.026 -5114.56 312.096C-5111.1 317.459 -5107.42 324.944 -5099.02 329.419C-5097.82 329.969 -5096.57 330.334 -5095.23 330.508C-5094.55 330.586 -5093.85 330.63 -5093.06 330.484C-5092.66 330.402 -5092.22 330.283 -5091.77 329.922C-5091.3 329.572 -5091.01 328.833 -5091.07 328.309C-5095.16 310.303 -5097.95 285.677 -5082.77 263.552C-5078.33 255.507 -5069.28 248.321 -5058.81 247.826C-5040.56 246.441 -5020.76 244.56 -5000.61 253.187C-4988.59 259.658 -4973.14 267.844 -4968.79 284.711C-4965.9 295.866 -4964.62 309.456 -4971.6 321.085C-4973.06 323.532 -4974.55 325.97 -4976.07 328.398C-4981.57 337.189 -4986.74 344.945 -4992.24 352.089C-4996.46 357.312 -4999.94 362.34 -5006.71 366.854C-5009.89 368.963 -5015 369.653 -5018.4 368.967C-5019.51 368.803 -5021.33 368.739 -5023.57 368.065C-5025.78 367.475 -5028.85 365.523 -5030.25 362.785C-5040.2 343.533 -5040.69 321.313 -5054.9 296.943C-5059.43 289.566 -5065.96 282.023 -5074.36 275.551C-5081.13 270.377 -5089.07 266.174 -5096.09 265.589C-5099.75 265.263 -5102.61 264.825 -5105.17 264.787C-5106.38 264.749 -5107.58 264.903 -5107.67 264.959C-5107.73 264.955 -5107.25 264.914 -5106.44 264.02C-5105.59 263.113 -5105.34 261.594 -5105.42 261.218C-5104.75 289.101 -5104.19 320.935 -5083.69 333.461C-5079.68 335.948 -5073.94 336.521 -5072.41 335.32C-5058.97 326.426 -5044.68 314.473 -5030.17 304.594C-5003.22 287.215 -4983.63 266.912 -4947.63 253.575C-4942.56 253.29 -4935.91 256.799 -4933.36 261.308C-4922.36 277.768 -4907.65 298.987 -4913.2 323.053C-4916.35 337.503 -4922.3 353.474 -4936.28 363.184C-4941.91 366.82 -4949.64 371.215 -4959.07 366.971C-4968.82 361.954 -4985.38 358.785 -4992.45 343.34C-5003.71 320.078 -5006.21 288.03 -5019.92 275.004C-5026 271.885 -5032.13 268.918 -5038.34 266.301C-5060.59 257.072 -5087.43 249.61 -5106.77 261.822C-5110.39 264.164 -5112.81 268.07 -5112.77 271.837C-5112.92 281.872 -5112.92 294.875 -5108.1 295.919C-5074.54 307.33 -5037.25 315.452 -5003.04 311.945C-4992.92 309.9 -4982.29 306.262 -4972.94 301.553C-4963.82 297.093 -4954.4 289.222 -4957.75 283.483C-4957.21 284.589 -4956.83 284.588 -4956.86 284.613C-4956.87 284.611 -4957.07 284.54 -4957.26 284.527C-4957.45 284.507 -4957.63 284.538 -4957.6 284.539C-4957.6 284.538 -4957.28 284.467 -4956.9 284.044C-4957.06 284.131 -4957.97 286.087 -4958.54 287.763C-4959.18 289.529 -4959.82 291.448 -4960.51 293.383C-4961.88 297.257 -4963.47 301.234 -4965.48 305.062C-4967.3 308.531 -4969.46 311.892 -4971.99 314.996C-4974.03 317.595 -4977.32 320.076 -4980.73 321.133C-4984.11 322.23 -4987 322.384 -4989.53 322.682C-5027.23 324.67 -5064.79 332.953 -5103.66 311.692C-5109.26 305.969 -5113.42 298.991 -5116.08 291.629C-5116.74 289.663 -5117.57 287.636 -5117.51 284.313C-5117.45 282.698 -5116.88 280.221 -5115 278.402C-5113.14 276.6 -5111.06 276.12 -5109.56 275.923C-5093.49 274.177 -5078.11 276.845 -5063.24 280.759C-5049.2 284.563 -5034.46 286.787 -5019.69 289.511C-5016.03 290.181 -5012.21 290.902 -5008.24 291.694C-4994.78 294.756 -4981.61 300.155 -4967.3 304.812C-4960.21 307.133 -4952.86 309.508 -4945.62 310.828C-4943.84 311.137 -4942 311.368 -4940.42 311.378C-4939.6 311.383 -4938.87 311.323 -4938.33 311.205C-4937.77 311.096 -4937.58 310.889 -4937.75 311.07C-4937.81 311.151 -4937.87 311.308 -4937.86 311.321C-4937.86 311.353 -4937.83 311.218 -4937.85 311.042C-4937.86 310.871 -4937.93 310.525 -4938.01 310.253C-4938.09 309.968 -4938.21 309.63 -4938.37 309.247C-4938.67 308.542 -4939.04 307.831 -4939.52 307.019C-4939.92 306.327 -4940.41 305.566 -4940.98 304.74C-4993.62 304.172 -5055.78 300.846 -5074.14 300.122C-5079.01 299.895 -5082.92 299.461 -5082.91 299.166C-5082.91 299.164 -5082.91 299.162 -5082.9 299.16C-5082.85 298.864 -5078.82 298.802 -5073.92 299.005C-5055.22 299.873 -4994.96 301.95 -4939.63 303.781C-4939.03 304.634 -4938.52 305.427 -4938.09 306.159C-4937.58 307.02 -4937.18 307.782 -4936.83 308.579C-4936.1 310.165 -4935.98 311.839 -4936.44 312.159C-4936.84 312.726 -4938.71 313.138 -4940.43 313.097C-4942.16 313.093 -4944.09 312.853 -4945.92 312.541C-4953.38 311.205 -4960.76 308.838 -4967.89 306.531C-4982.24 301.908 -4995.54 296.541 -5008.61 293.616C-5012.3 292.89 -5015.86 292.228 -5019.29 291.609C-5034.29 288.874 -5049.32 286.683 -5063.79 282.813C-5078.47 278.98 -5093.72 276.415 -5109.28 278.153C-5110.52 278.314 -5112.08 278.71 -5113.42 280.006C-5114.76 281.31 -5115.2 283.113 -5115.25 284.415C-5115.31 287.082 -5114.58 288.995 -5113.94 290.844C-5111.36 297.933 -5107.36 304.605 -5102 310.059C-5065.66 329.834 -5026.98 322.367 -4989.8 320.123C-4985 319.781 -4977.65 318.517 -4974 313.346C-4971.88 310.729 -4970.03 307.928 -4968.43 305.004C-4964.09 297.612 -4962.11 287.844 -4958.92 282.293C-4958.84 282.105 -4957.94 281.745 -4956.98 281.865C-4956.51 281.909 -4956.03 282.039 -4955.68 282.207C-4955.32 282.361 -4955.17 282.608 -4955.27 282.434C-4951.19 291.321 -4962.61 299.377 -4971.68 304.024C-4981.35 308.916 -4991.98 312.599 -5002.54 314.78C-5038.04 318.506 -5075.02 310.443 -5109.24 299.057C-5117.88 295.226 -5115.92 281.73 -5116.26 271.841C-5116.33 266.668 -5113.15 261.725 -5108.73 258.829C-5087.19 245.314 -5059.52 253.464 -5036.8 262.621C-5030.46 265.251 -5024.19 268.244 -5018.07 271.344C-5000.2 288.555 -4999.98 318.519 -4988.3 341.488C-4982.5 354.316 -4967.88 357.422 -4956.91 362.728C-4950.64 365.686 -4944.01 362.551 -4939.05 359.186C-4926.77 350.617 -4921.13 335.932 -4918.19 321.996C-4913.28 300.483 -4926.55 280.993 -4937.88 264.306C-4939.88 261.028 -4943.86 258.936 -4947.67 259.054C-4977.42 270.796 -5000.77 292.136 -5026.78 309.398C-5041.28 319.343 -5054.79 330.823 -5069.25 340.478C-5074.49 343.474 -5081.43 341.725 -5086.71 338.755C-5111.69 322.806 -5110.6 288.889 -5111.62 261.562C-5111.96 258.905 -5107.99 258.507 -5105.08 258.568C-5101.97 258.62 -5098.84 259.106 -5095.61 259.386C-5086.33 260.248 -5077.74 265.159 -5070.28 270.856C-5061.32 277.846 -5054.54 285.851 -5049.79 293.898C-5035.06 320.514 -5035.8 342.946 -5027.06 361.09C-5024.97 365.138 -5020.31 365.291 -5017.85 365.741C-5014.83 366.398 -5010.98 365.949 -5008.2 364.238C-5002.78 360.848 -4999.22 356.322 -4995.43 351.673C-4989.92 344.673 -4984.72 336.962 -4979.17 328.153C-4977.39 325.33 -4975.65 322.491 -4973.94 319.642C-4967.55 309.011 -4968.63 296.224 -4971.46 285.355C-4975.4 269.933 -4989.87 262.036 -5001.95 255.57C-5020.68 247.531 -5040.7 249.11 -5058.6 250.541C-5068.47 251.142 -5076.08 257.272 -5080.51 265.053C-5095.31 287.053 -5092.42 309.301 -5088.37 328.2C-5088.23 329.334 -5088.99 331.272 -5090.09 332.042C-5091.15 332.853 -5091.97 333.012 -5092.61 333.148C-5093.9 333.365 -5094.78 333.276 -5095.64 333.177C-5097.32 332.945 -5098.74 332.519 -5100.23 331.834C-5110.05 326.426 -5113.39 318.712 -5116.91 313.403C-5117.84 311.817 -5118.36 310.243 -5118.7 308.817C-5120.09 301.539 -5118.98 297.185 -5118.76 294.359ZM-4961.81 321.671C-4960.96 321.406 -4960.72 317.085 -4961.73 313.344C-4962.63 309.45 -4964.11 305.357 -4965.75 301.208C-4969.05 292.85 -4973.3 284.466 -4976.97 274.883C-4978.48 270.712 -4979.95 266.643 -4981.92 262.99C-4983.19 260.635 -4984.1 259.566 -4985.68 259.042C-4987.3 258.483 -4989.79 258.57 -4992.3 259.016C-5014.72 263.02 -5036.4 277.322 -5050.88 295.778C-5057.25 303.879 -5056.35 315.15 -5055.27 326.258C-5055.08 328.707 -5054.47 331.085 -5053.49 333.331C-5051.45 337.996 -5047.88 341.99 -5043.85 345.479C-5034.42 353.848 -5021.46 356.086 -5010.14 354.302C-5000.96 352.649 -5000.24 338.133 -4995.69 329.059C-4994.25 325.956 -4992.37 322.907 -4989.63 320.584C-4983.84 316.778 -4979.46 319.459 -4975.91 320.067C-4970.96 321.173 -4967.36 324.979 -4964.99 328.091C-4963.18 330.442 -4961.58 332.838 -4960.34 335.539C-4959.73 336.9 -4959.19 338.329 -4959.01 340.059C-4958.78 341.696 -4959.3 344.243 -4961.1 345.569C-4972.74 355.351 -4988.1 351.876 -4997.77 345.552C-4998 345.416 -4998.22 345.278 -4998.45 345.139C-5011.23 337.169 -5020.71 325.448 -5033.56 312.999C-5035.19 311.425 -5037.85 311.916 -5040.46 310.291C-5042.95 308.386 -5043.1 304.931 -5042.4 302.199C-5040.49 294.93 -5034.97 288.9 -5028.85 283.079C-5026.61 280.974 -5024.22 278.895 -5021.73 276.809C-5009.7 267.01 -4991.7 265.65 -4973.99 265.93C-4963.83 265.924 -4954.66 272.044 -4946.93 278.731C-4931.9 291.627 -4927.02 312.709 -4924.61 332.2C-4924.6 332.243 -4924.6 332.286 -4924.59 332.329C-4924.42 333.745 -4924.25 335.204 -4924.1 336.619C-4923.92 339.02 -4922.21 341.863 -4920.47 341.507C-4914.36 339.828 -4913.15 331.176 -4912.32 324.754C-4913.57 302.591 -4927.47 282.607 -4939.59 266.457C-4939.91 266.047 -4940.22 265.715 -4940.51 265.453C-4940.85 265.147 -4941.15 264.937 -4941.44 264.788C-4942.05 264.493 -4942.43 264.477 -4943.03 264.674C-4944.23 265.094 -4945.65 266.628 -4946.78 268.245C-4949.03 271.483 -4950.84 275.356 -4952.46 279.022C-4955.71 286.47 -4958.37 293.799 -4961 300.626C-4965.4 312 -4969.48 323.136 -4975.41 333.252C-4994.18 364.808 -5030.51 371.989 -5057.14 369.743C-5079.08 367.238 -5094.22 353.31 -5106.54 342.064C-5124.38 324.866 -5130.45 304.195 -5133.66 288.298C-5135.34 279.707 -5132.71 272.036 -5129.48 266.411C-5126.37 260.958 -5122.17 256.13 -5117.54 251.739C-5114.19 248.594 -5110.56 245.572 -5106.26 243.938C-5067.73 245.064 -5037.77 281.006 -5006.28 304.377C-4998.58 310.292 -4995.66 319.393 -4991.52 328.248C-4990.41 329.908 -4988.88 331.499 -4986.84 332.229C-4984.8 332.975 -4982.62 332.705 -4980.71 332.237C-4976.8 331.33 -4973.05 329.121 -4970.61 325.837C-4967.33 321.38 -4965.95 316.085 -4965.05 310.917C-4963.93 304.637 -4964.41 298.104 -4965.89 292.037C-4968.4 284.138 -4961.52 295.624 -4963.86 311.101C-4964.02 312.122 -4964.21 313.151 -4964.44 314.182C-4964.57 314.762 -4964.71 315.339 -4964.86 315.916C-4965.87 319.628 -4967.06 323.061 -4969.63 326.572C-4970.87 328.208 -4972.48 329.78 -4974.54 331.049C-4976.47 332.248 -4978.49 332.993 -4980.4 333.472C-4982.62 334.044 -4985.29 334.306 -4987.64 333.32C-4989.99 332.355 -4991.52 330.612 -4992.63 329.001C-4994.05 326.815 -4994.66 324.871 -4995.41 323.04C-4996.79 319.8 -4999.18 312.11 -5007.21 305.493C-5030.43 288.824 -5069.33 245.518 -5105.78 245.193C-5109.94 246.784 -5113.46 249.779 -5116.58 252.727C-5122.83 258.644 -5127.33 264.772 -5129.76 270.113C-5132.02 274.96 -5133.52 281.182 -5132.13 287.981C-5128.89 303.293 -5122.79 323.639 -5104.99 340.386C-5092.76 351.308 -5077.59 364.69 -5056.9 366.776C-5031.06 368.657 -4996.26 361.445 -4978.61 331.345C-4972.97 321.624 -4968.88 310.389 -4964.47 298.887C-4961.88 292.117 -4959.19 284.863 -4955.8 277.337C-4954.08 273.608 -4952.21 269.697 -4949.61 266.1C-4948.23 264.31 -4946.77 262.376 -4944.08 261.4C-4941.12 260.325 -4938.28 262.565 -4936.97 264.425C-4924.99 281.254 -4911.34 300.873 -4910.21 325.001C-4911.35 331.545 -4911.76 340.729 -4920.13 343.414C-4922.1 343.763 -4923.66 342.409 -4924.5 341.143C-4925.39 339.821 -4925.84 338.321 -4926 336.817C-4926.12 335.786 -4926.24 334.738 -4926.36 333.689C-4926.38 333.537 -4926.4 333.395 -4926.41 333.247C-4928.77 313.725 -4933.59 292.712 -4948.21 280.235C-4955.91 273.606 -4964.55 267.921 -4974.04 267.937C-4991.51 267.644 -5009.2 269.16 -5020.41 278.382C-5022.86 280.44 -5025.2 282.485 -5027.4 284.546C-5033.41 290.239 -5038.7 296.184 -5040.37 302.686C-5041 305.068 -5040.66 307.55 -5039.21 308.608C-5038.08 309.559 -5034.6 309.283 -5032.21 311.381C-5018.09 325.111 -5008.27 337.189 -4994.99 344.662C-4994.79 344.777 -4994.58 344.889 -4994.38 345.001C-4985.08 350.396 -4972.26 352.02 -4962.47 343.864C-4960.23 342.037 -4961.3 338.78 -4962.32 336.467C-4963.44 334.013 -4964.98 331.703 -4966.71 329.456C-4969.05 326.418 -4972.12 323.182 -4976.45 322.207C-4979.96 321.448 -4984.27 319.53 -4988.19 322.268C-4990.57 324.274 -4992.29 327.013 -4993.65 329.942C-4995.83 334.622 -4997.15 339.841 -4999.08 344.985C-5000.93 349.972 -5003.92 355.786 -5009.79 356.528C-5021.6 358.414 -5035.35 356.067 -5045.34 347.214C-5049.76 343.391 -5053.82 338.847 -5055.98 333.315C-5056.84 331.127 -5057.38 328.812 -5057.57 326.453C-5058.62 315.51 -5059.76 303.362 -5052.75 294.379C-5037.83 275.369 -5015.87 260.854 -4992.72 256.662C-4987.23 255.529 -4981.94 256.597 -4979.81 261.84C-4977.72 265.713 -4976.22 269.892 -4974.7 274.051C-4968.28 291.806 -4955.67 309.508 -4959.8 323.121C-4960.38 323.81 -4961.17 324.187 -4962.05 324.348C-4965.59 325.243 -4967.73 325.966 -4968.12 325.519C-4968.36 325.103 -4966.92 323.635 -4962.61 322.114C-4962.2 321.968 -4961.97 321.814 -4961.81 321.671ZM-4973.91 312.384C-4975.68 314.798 -4976.06 316.696 -4976.23 317.575C-4976.39 318.507 -4976.34 318.675 -4976.36 318.584C-4976.39 318.35 -4976.62 317.093 -4977.02 315.701C-4977.83 312.828 -4979.23 309.19 -4980.79 305.486C-4983.96 297.858 -4987.79 290.567 -4991.79 280.33C-4993.37 276.047 -4994.67 272.748 -4995.89 270.598C-4996.3 269.8 -4996.28 270.163 -4995.24 271.299C-4994.24 272.44 -4992.04 273.82 -4990.61 274.224C-4989.14 274.686 -4988.52 274.625 -4988.48 274.642C-4988.43 274.642 -4988.86 274.67 -4989.49 274.79C-5007.16 277.909 -5026.37 290.786 -5037.81 305.553C-5039.58 307.483 -5040.36 312.357 -5039.01 324.875C-5038.95 326.419 -5038.02 328.954 -5033.25 333.148C-5028.21 337.67 -5021.23 339.577 -5012.59 338.428C-5013.55 338.56 -5015.23 339.238 -5016.19 340.036C-5017.19 340.825 -5017.44 341.368 -5017.33 341.221C-5017.05 340.951 -5015.98 338.568 -5014.97 335.547C-5012.42 329.548 -5011.76 319.854 -4999.81 308.655C-4991.4 301.972 -4984.19 303.005 -4980.48 303.225C-4976.51 303.673 -4973.81 304.513 -4972.15 304.94C-4968.25 305.84 -4963.06 308.356 -4959.84 311.101C-4956.52 313.825 -4954.52 316.292 -4952.82 318.452C-4950.6 321.372 -4948.55 324.28 -4946.47 328.621C-4945.46 330.873 -4944.31 333.357 -4943.68 337.855C-4943.41 340.115 -4943.26 343.108 -4944.31 346.93C-4945.29 350.725 -4948.12 355.118 -4951.38 357.612C-4959.64 364.587 -4973.42 368.868 -4984.76 366.82C-4996.14 365.035 -5004.46 360.059 -5011.47 355.13C-5025.06 345.421 -5035.9 332.121 -5043.44 324.854C-5041.61 326.394 -5039.51 326.784 -5040.03 326.631C-5040.39 326.271 -5043.27 326.873 -5049.63 322.607C-5059.94 314.168 -5058.4 303.729 -5057.22 298.643C-5053.34 285.383 -5046.19 279.33 -5040.26 273.44C-5037.33 270.651 -5034.31 268.047 -5031.23 265.501C-5012.89 251.332 -4992.49 251.492 -4973.63 251.756C-4958.62 251.909 -4945.84 261.258 -4938 268.283C-4918.17 286.152 -4914.19 310.714 -4911.81 331.237C-4911.74 331.879 -4911.67 332.544 -4911.61 333.184C-4911.54 333.881 -4911.47 334.612 -4911.41 335.298C-4911.49 334.858 -4911.53 334.286 -4912.36 333.007C-4912.82 332.373 -4913.48 331.485 -4915.07 330.478C-4916.58 329.488 -4919.67 328.48 -4922.74 329.094C-4924.7 329.421 -4926.26 330.835 -4926.42 331.146C-4926.68 331.521 -4926.33 331.109 -4926.04 330.355C-4925.4 328.803 -4924.8 326.115 -4924.45 323.335C-4924.13 322.316 -4925.08 316.735 -4926.61 312.362C-4928.14 307.739 -4930.17 303.01 -4932.41 298.44C-4936.92 289.289 -4942.32 280.648 -4948.08 273.042C-4948.1 273.008 -4948.03 273.096 -4947.82 273.283C-4947.56 273.509 -4947.17 273.845 -4946.35 274.267C-4944.83 275.235 -4941.03 275.452 -4939.4 274.643C-4937.77 273.972 -4937.57 273.53 -4937.61 273.592C-4937.67 273.632 -4937.99 273.986 -4938.36 274.485C-4939.88 276.559 -4941.72 280.174 -4943.28 283.609C-4946.46 290.657 -4949.25 298.042 -4951.95 304.922C-4956.38 316.09 -4960.41 327.065 -4967.01 338.254C-4988.71 374.101 -5029.15 381.584 -5057.9 379.072C-5084.25 375.832 -5099.9 360.409 -5112.78 348.799C-5132.72 329.468 -5139.07 307.029 -5142.45 290.129C-5144.8 278.179 -5140.72 267.764 -5136.57 261.007C-5132.37 254.199 -5127.74 249.446 -5123.56 245.522C-5119.32 241.603 -5114.79 238.057 -5109.32 236.025C-5096.28 232.339 -5089.68 236.916 -5083.92 238.889C-5078.19 241.404 -5073.7 243.955 -5068.74 246.978C-5068.33 247.229 -5067.92 247.482 -5067.53 247.725C-5067.51 247.741 -5067.48 247.756 -5067.45 247.771C-5066.95 248.067 -5066.52 248.324 -5066.3 248.457C-5065.86 248.729 -5065.5 248.958 -5065.36 249.044C-5065.05 249.242 -5064.78 249.415 -5064.69 249.47C-5064.33 249.707 -5063.9 249.983 -5063.63 250.162C-5061.04 251.828 -5053.25 257.242 -5047.31 261.776C-5041.23 266.378 -5036.99 269.794 -5032.57 273.388C-5032.11 273.762 -5031.68 274.113 -5031.24 274.479C-5027.23 277.757 -5022.97 281.289 -5016.81 286.46C-5013.08 289.603 -5010.59 292.084 -5011.27 291.953C-5011.96 291.814 -5015.5 289.181 -5019.27 286.034C-5025.74 280.629 -5030.34 276.85 -5034.34 273.605C-5034.79 273.243 -5035.24 272.883 -5035.68 272.525C-5039.94 269.099 -5043.67 266.134 -5049.08 262.068C-5056.93 256.227 -5063.03 252.077 -5068.76 248.526C-5073.67 245.507 -5078.3 242.854 -5084.05 240.303C-5089.85 238.233 -5096.58 233.816 -5108.82 237.318C-5114.06 239.268 -5118.45 242.705 -5122.58 246.537C-5127.41 251.113 -5132.89 256.729 -5137.3 265.306C-5140.4 271.401 -5142.94 280.154 -5141.03 289.832C-5137.72 306.174 -5131.65 328.369 -5111.75 347.68C-5099.04 359.12 -5083.53 374.337 -5057.77 377.482C-5029.59 379.9 -4989.81 372.671 -4968.47 337.383C-4962.03 326.454 -4958.01 315.508 -4953.6 304.351C-4950.9 297.46 -4948.12 290.056 -4944.9 282.912C-4943.32 279.42 -4941.48 275.754 -4939.82 273.46C-4939.42 272.902 -4939.04 272.477 -4938.87 272.328C-4938.74 272.165 -4938.77 272.437 -4940.02 272.96C-4941.27 273.597 -4944.36 273.425 -4945.53 272.669C-4946.16 272.345 -4946.43 272.1 -4946.59 271.965C-4946.72 271.855 -4946.72 271.839 -4946.65 271.939C-4935.57 286.419 -4922.75 309.903 -4922.58 323.552C-4922.95 326.429 -4923.56 329.228 -4924.28 331.023C-4924.61 331.9 -4925.02 332.477 -4924.96 332.344C-4924.92 332.285 -4924.72 332.034 -4924.26 331.719C-4923.81 331.405 -4923.07 331.083 -4922.4 330.96C-4919.85 330.449 -4917.29 331.291 -4916.07 332.092C-4914.78 332.907 -4914.28 333.599 -4913.94 334.066C-4913.33 335.005 -4913.35 335.307 -4913.3 335.495C-4913.37 334.8 -4913.44 334.057 -4913.51 333.352C-4913.58 332.696 -4913.65 332.021 -4913.72 331.364C-4916.08 310.988 -4920.17 286.939 -4939.29 269.783C-4947.1 262.798 -4959.36 253.899 -4973.68 253.759C-4992.38 253.475 -5012.45 253.518 -5029.91 267.073C-5032.95 269.589 -5035.92 272.155 -5038.78 274.882C-5044.57 280.738 -5051.41 286.828 -5054.9 299.201C-5055.97 303.917 -5057.19 313.247 -5048.13 320.594C-5042.6 324.296 -5039.97 323.792 -5039.47 324.127C-5038.84 324.284 -5040.39 324.008 -5041.76 322.841C-5033.6 330.421 -5022.86 343.294 -5009.52 352.553C-5002.69 357.245 -4994.68 361.836 -4984.18 363.36C-4973.69 365.109 -4961.35 361.151 -4953.75 354.675C-4951.08 352.616 -4948.77 349.027 -4947.97 345.902C-4947.11 342.757 -4947.23 340.257 -4947.47 338.342C-4948.01 334.527 -4949.03 332.312 -4949.96 330.291C-4951.86 326.379 -4953.82 323.637 -4955.93 320.912C-4957.54 318.888 -4959.41 316.637 -4962.35 314.248C-4965.22 311.841 -4969.67 309.702 -4973.14 308.913C-4974.86 308.488 -4977.38 307.736 -4980.89 307.358C-4984.19 307.158 -4990.25 306.402 -4997.07 311.86C-5007.5 321.64 -5008.33 330.783 -5010.79 336.937C-5011.8 340.041 -5012.88 342.662 -5013.52 343.595C-5013.82 344.069 -5013.89 343.994 -5013.47 343.656C-5013.07 343.314 -5012.2 342.974 -5011.9 342.945C-5021.48 344.367 -5030.14 342.276 -5036.36 336.764C-5041.54 332.284 -5043.62 328.572 -5043.81 325.283C-5045.1 313.136 -5044.77 306.382 -5041.64 302.689C-5029.3 286.946 -5009.38 273.793 -4990.22 270.67C-4989.43 270.541 -4988.79 270.502 -4988.53 270.516C-4988.27 270.518 -4988.47 270.614 -4989.36 270.357C-4990.22 270.144 -4991.73 269.224 -4992.34 268.538C-4992.99 267.854 -4992.88 267.82 -4992.43 268.716C-4991.1 271.257 -4989.82 274.757 -4988.32 279.055C-4984.68 288.817 -4981.04 296.221 -4978.04 303.921C-4976.55 307.68 -4975.22 311.404 -4974.42 314.533C-4974.02 316.075 -4973.77 317.513 -4973.75 318.219C-4973.72 318.561 -4973.77 318.7 -4973.76 318.334C-4973.73 317.968 -4973.7 316.983 -4972.78 315.18C-4971.62 312.532 -4967.52 309.82 -4965.76 309.607C-4968.93 310.456 -4970.21 311.115 -4971.55 311.654C-4972.82 312.196 -4973.81 312.637 -4974.71 313.013C-4976.48 313.762 -4977.85 314.237 -4978.8 314.467C-4979.76 314.705 -4980.21 314.669 -4980.11 314.667C-4980.04 314.649 -4979.47 314.808 -4979.29 314.933C-4982.44 313.029 -4985.28 310.84 -4987.28 308.799C-4989.32 306.892 -4990.1 304.551 -4989.62 306.064C-4990.43 300.973 -4991.11 294.295 -4992.2 287.839C-4993.72 279.041 -4995.63 269.878 -5000.58 260.204C-5005.04 250.753 -5016.36 239.63 -5029.5 237.796C-5054.28 234.653 -5079.68 228.578 -5107.15 249.06C-5112.85 254.774 -5123.84 261.515 -5127.49 278.605C-5128.27 283.324 -5129.31 288.338 -5130.07 294.217C-5130.4 300.197 -5132.77 306.785 -5126.9 318.952C-5125.13 321.981 -5123.18 325.154 -5120.77 328.445C-5118.2 331.486 -5115.62 336.704 -5105.45 342.285C-5102.86 343.528 -5100.71 344.247 -5097.62 344.766C-5096.01 344.978 -5094.38 345.281 -5091 344.834C-5089.27 344.497 -5086.93 344.265 -5083.17 341.616C-5079.22 339.22 -5075.96 331.706 -5076.55 327.724C-5079.45 306.746 -5083.25 295.435 -5070.88 274.757C-5070.41 273.996 -5069.92 273.217 -5069.4 272.419C-5064.9 266.064 -5064.32 265.337 -5057.56 264.408C-5054.6 264.167 -5051.6 263.982 -5048.56 263.864C-5035.38 263.284 -5017.88 264.309 -5009.24 268.507C-4997.15 274.956 -4987.91 281.46 -4986.36 288.949C-4983.99 298.089 -4984.01 306.444 -4987.17 311.501C-4987.83 312.594 -4988.48 313.663 -4989.15 314.752C-4994.39 323.257 -4999.26 330.685 -5004.12 337.302C-5006.32 340.3 -5008.55 343.156 -5010.73 345.652C-5012.77 348.056 -5015.55 350.567 -5015.93 350.736C-5016.04 350.8 -5015.66 350.619 -5015.22 350.57C-5014.78 350.509 -5014.57 350.614 -5015.23 350.512C-5017.6 350.169 -5018.28 350.028 -5017.72 350.18C-5017.43 350.282 -5016.69 350.56 -5015.79 351.245C-5014.9 351.911 -5014 352.999 -5013.55 353.896C-5020.26 341.929 -5020.66 316.962 -5037.51 286.579C-5042.54 278.183 -5049.04 270.331 -5057.38 263.034C-5066.6 255.443 -5077.05 247.196 -5094.5 245.123C-5096.7 244.944 -5100.35 244.35 -5104.7 244.239C-5106.99 244.244 -5109.39 244.099 -5113.6 245.267C-5115.67 245.929 -5118.72 246.978 -5121.85 250.393C-5125.09 253.817 -5126.27 259.266 -5125.96 262.358C-5123.97 286.703 -5130.54 325.974 -5093.99 351.531C-5085.69 355.715 -5075.89 360.423 -5061.54 353.102C-5044.23 341.595 -5032.4 331.388 -5018.09 321.72C-5003.82 311.792 -4990.06 302.138 -4977.17 293.415C-4970.71 289.048 -4964.47 284.914 -4958.58 281.287C-4955.63 279.48 -4952.78 277.809 -4950.19 276.455C-4948.92 275.797 -4947.67 275.199 -4946.77 274.842C-4946.34 274.666 -4945.97 274.546 -4945.9 274.536C-4945.89 274.504 -4945.98 274.701 -4947.79 274.742C-4947.69 274.769 -4948.59 274.733 -4949.53 274.221C-4950.48 273.726 -4951 273.05 -4951.03 273.017C-4950.9 273.214 -4950.77 273.411 -4950.64 273.606C-4934.28 296.883 -4931.82 309.194 -4934.23 318.601C-4935.41 323.856 -4936.79 328.002 -4938.23 331.357C-4939.58 334.482 -4940.98 336.895 -4942.36 338.834C-4944.47 341.788 -4946.5 343.689 -4948.75 345.194C-4950.25 346.234 -4952.04 346.855 -4952.07 346.77C-4952.11 346.742 -4950.75 346.559 -4949.09 347.392C-4965.07 340.495 -4971.79 337.217 -4972.36 334.374C-4977.11 323.654 -4980.64 312.153 -4984.44 299.862C-4986.37 293.677 -4988.3 287.307 -4991.1 280.281C-4994.48 273.519 -4995.71 264.581 -5010.19 255.789C-5016.29 252.729 -5023.05 249.508 -5030.1 246.621C-5045.41 240.557 -5062.54 234.389 -5084.7 234.742C-5090.73 234.895 -5096.34 235.343 -5096.98 234.665C-5097.65 234 -5092.82 232.227 -5086.49 231.912C-5062.77 231.108 -5044.93 237.656 -5028.97 243.939C-5021.85 246.857 -5015 250.12 -5008.87 253.196C-4992.96 262.904 -4991.96 272.227 -4988.43 279.136C-4985.57 286.323 -4983.63 292.731 -4981.69 298.933C-4977.89 311.246 -4974.38 322.659 -4969.72 333.192C-4969.95 334.445 -4964.49 337.691 -4947.78 344.812C-4950.27 343.56 -4952.35 343.841 -4952.61 343.928C-4953.06 344.104 -4951.62 343.662 -4950.4 342.814C-4948.24 341.375 -4946.27 339.487 -4944.22 336.434C-4943 334.608 -4941.78 332.36 -4940.6 329.502C-4939.34 326.474 -4938.13 322.739 -4937.06 318.001C-4934.97 309.538 -4936.57 298.705 -4953.28 274.847C-4953.33 274.768 -4953.38 274.688 -4953.43 274.609C-4953.22 274.929 -4952.35 275.989 -4950.91 276.748C-4949.49 277.531 -4948.06 277.651 -4947.81 277.622C-4945.5 277.576 -4945.22 277.304 -4945.09 277.299C-4945.01 277.265 -4945.3 277.351 -4945.66 277.5C-4946.42 277.8 -4947.62 278.363 -4948.83 278.993C-4951.32 280.293 -4954.13 281.935 -4957.04 283.718C-4962.87 287.302 -4969.08 291.418 -4975.53 295.772C-4988.39 304.471 -5002.15 314.126 -5016.45 324.06C-5030.76 333.731 -5042.24 343.687 -5060.05 355.535C-5076.16 363.694 -5086.51 358.42 -5095.4 354.004C-5134.07 326.736 -5126.62 286.598 -5128.78 262.514C-5129.14 258.945 -5127.76 252.529 -5123.96 248.514C-5120.28 244.511 -5116.75 243.317 -5114.41 242.564C-5109.65 241.246 -5107.08 241.43 -5104.64 241.419C-5100.06 241.538 -5096.3 242.153 -5094.28 242.314C-5075.77 244.535 -5065.21 253.017 -5055.74 260.741C-5047.06 268.304 -5040.33 276.413 -5035.11 285.146C-5017.83 316.443 -5017.4 341.666 -5011.1 352.59C-5012.3 349.917 -5015.97 347.663 -5016.86 347.542C-5017.83 347.263 -5017.32 347.412 -5014.76 347.777C-5014.26 347.851 -5014.8 347.707 -5015.63 347.827C-5016.46 347.931 -5017.18 348.259 -5017.31 348.33C-5017.59 348.503 -5016.76 347.919 -5015.98 347.163C-5015.16 346.391 -5014.21 345.394 -5013.24 344.308C-5011.3 342.126 -5009.25 339.562 -5007.22 336.84C-5002.41 330.401 -4997.51 323.006 -4992.23 314.503C-4991.32 313.027 -4990.42 311.55 -4989.52 310.06C-4986.94 306.028 -4986.71 298.457 -4989.02 289.591C-4990.13 283.585 -4998.42 277.315 -5010.57 270.873C-5017.61 267.347 -5034.77 265.976 -5047.31 266.514C-5050.71 266.624 -5054.06 266.822 -5057.36 267.088C-5060.4 267.36 -5061.75 267.965 -5062.73 268.642C-5063.73 269.31 -5065.27 270.955 -5067.17 273.897C-5067.46 274.342 -5067.74 274.782 -5068.02 275.214C-5081.03 296.698 -5076.6 306.305 -5073.91 327.618C-5073.16 332.37 -5077.29 341.356 -5081.9 343.962C-5086.28 346.923 -5088.91 347.126 -5090.86 347.486C-5094.63 347.941 -5096.43 347.594 -5098.19 347.353C-5101.56 346.766 -5103.86 345.982 -5106.64 344.651C-5114.49 340.525 -5117.31 336.641 -5119.54 334.291C-5123.86 329.265 -5126.67 324.588 -5129.23 320.245C-5135.66 306.794 -5132.98 300 -5132.68 293.847C-5131.89 287.822 -5130.84 282.802 -5130.07 278.137C-5126.05 259.671 -5114.47 252.819 -5108.87 247.127C-5079.51 225.461 -5053.95 232.26 -5029.06 235.294C-5014.66 237.296 -5002.51 249.731 -4998 259.692C-4992.92 269.946 -4991.07 279.423 -4989.56 288.419C-4988.56 294.608 -4987.9 301.005 -4987.16 305.647C-4987.41 304.391 -4987.62 304.405 -4987.32 304.845C-4987.05 305.297 -4986.39 306.15 -4985.5 307.059C-4983.7 308.911 -4981 310.999 -4978.01 312.811C-4978.51 312.495 -4979.48 312.21 -4979.9 312.204C-4980.35 312.179 -4980.16 312.264 -4979.39 312.072C-4978.62 311.89 -4977.37 311.466 -4975.65 310.741C-4974.78 310.377 -4973.8 309.941 -4972.5 309.388C-4971.13 308.838 -4969.82 308.152 -4966.35 307.224C-4968.24 307.597 -4971.94 309.546 -4973.91 312.384ZM-4982.13 293.346C-4980.59 289.844 -4978.86 286.325 -4978.05 286.244C-4977.27 286.165 -4977.75 289.728 -4979.33 293.497C-4981.11 297.698 -4983.12 301.134 -4985.38 304.017C-4985.69 304.423 -4985.84 304.562 -4985.88 304.613C-4985.92 304.661 -4985.89 304.691 -4986.2 304.814C-4986.76 305.073 -4988.83 305.384 -4991.33 305.671C-5001.8 306.95 -5010.7 307.663 -5018.42 308.133C-5044.53 309.466 -5057.47 309.21 -5075.3 306.604C-5082.49 305.524 -5090.88 302.816 -5092.65 300.877C-5096.68 296.891 -5099.79 291.916 -5101.88 286.409C-5102.13 285.77 -5102.31 285.23 -5102.4 284.893C-5102.5 284.571 -5102.46 284.411 -5102.48 284.997C-5102.49 285.47 -5102.81 287.49 -5104.48 289.092C-5106.14 290.643 -5107.44 290.718 -5107.69 290.764C-5094.7 289.073 -5080.2 291.189 -5066.88 294.481C-5052.8 298.013 -5039.27 299.865 -5026.5 301.919C-5021.12 302.77 -5015.85 303.629 -5010.7 304.543C-4996.18 307.642 -4980.44 313.713 -4965.95 317.795C-4958.5 319.879 -4951.56 321.917 -4943.21 322.617C-4940.98 322.727 -4938.95 322.861 -4935.74 322.139C-4934.21 321.733 -4932.29 321.163 -4930.16 319.255C-4928.09 317.475 -4926.8 314.164 -4926.77 311.983C-4926.69 307.57 -4928.05 305.425 -4928.95 303.491C-4930.01 301.491 -4930.96 300.096 -4932.14 298.468C-4933.65 296.507 -4934.6 296.299 -4935.19 295.971C-4935.8 295.707 -4936.15 295.611 -4936.46 295.527C-4936.82 295.436 -4936.86 295.432 -4936.98 295.407C-4937.08 295.385 -4937.18 295.367 -4937.27 295.35C-4937.64 295.285 -4938 295.238 -4938.29 295.205C-4938.73 295.156 -4939.18 295.117 -4939.67 295.079C-4940.38 295.027 -4941.36 294.971 -4942.02 294.941C-4943.6 294.865 -4945.04 294.817 -4946.48 294.774C-4949.46 294.684 -4952.13 294.631 -4954.95 294.576C-4960.37 294.477 -4965.57 294.408 -4970.38 294.349C-4980.02 294.233 -4988.48 294.149 -4995.5 294.072C-5000.38 294.018 -5004.34 293.659 -5004.27 293.272C-5004.21 292.885 -5000.16 292.598 -4995.28 292.63C-4988.29 292.68 -4979.87 292.731 -4970.25 292.812C-4965.46 292.852 -4960.26 292.902 -4954.85 292.982C-4952.03 293.027 -4949.37 293.07 -4946.39 293.15C-4944.95 293.188 -4943.5 293.231 -4941.9 293.303C-4941.24 293.33 -4940.25 293.385 -4939.52 293.436C-4939.01 293.474 -4938.55 293.514 -4938.08 293.564C-4937.77 293.599 -4937.38 293.649 -4936.97 293.722C-4936.86 293.741 -4936.75 293.762 -4936.63 293.787C-4936.5 293.815 -4936.45 293.82 -4936.03 293.928C-4935.67 294.027 -4935.24 294.14 -4934.51 294.461C-4933.8 294.859 -4932.64 295.113 -4930.79 297.508C-4929.58 299.18 -4928.59 300.614 -4927.47 302.724C-4926.51 304.774 -4925.01 307.033 -4925.08 312.053C-4925.1 314.539 -4926.57 318.398 -4928.98 320.476C-4931.44 322.695 -4933.61 323.336 -4935.32 323.795C-4938.86 324.599 -4940.99 324.446 -4943.32 324.341C-4951.98 323.634 -4958.93 321.597 -4966.44 319.527C-4980.99 315.478 -4996.93 309.416 -5011.06 306.463C-5015.97 305.61 -5020.97 304.806 -5026.09 304.01C-5039.08 301.954 -5052.89 300.136 -5067.42 296.533C-5080.56 293.322 -5094.93 291.309 -5107.41 292.993C-5106.89 292.91 -5105.09 292.753 -5102.9 290.701C-5100.7 288.587 -5100.24 285.891 -5100.22 285.103C-5100.19 284.175 -5100.27 284.164 -5100.2 284.357C-5100.13 284.569 -5099.98 285.035 -5099.75 285.625C-5097.73 290.859 -5094.78 295.528 -5090.99 299.245C-5090.23 300.322 -5082.02 303.252 -5075.08 304.22C-5058.14 306.682 -5045.98 306.975 -5020.6 305.74C-5012.49 305.265 -5002.99 304.523 -4991.6 303.11C-4989.08 302.824 -4987.12 302.487 -4986.96 302.343C-4986.86 302.279 -4987.16 302.366 -4987.35 302.477C-4987.55 302.584 -4987.58 302.625 -4987.39 302.366C-4985.46 299.885 -4983.71 296.947 -4982.13 293.346Z" fill="#3E3E3E"/>
</g>
<use xlink:href="#pattern0_490_758_inner" transform="translate(223 0)"/>
<use xlink:href="#pattern0_490_758_inner" transform="translate(111.5 126)"/>
<use xlink:href="#pattern0_490_758_inner" transform="translate(334.5 126)"/>
<use xlink:href="#pattern0_490_758_inner" transform="translate(0 252)"/>
<use xlink:href="#pattern0_490_758_inner" transform="translate(223 252)"/>
</pattern></defs>
</svg>
