<svg width="250" height="264" viewBox="0 0 250 264" fill="none" xmlns="http://www.w3.org/2000/svg">
<g filter="url(#filter0_df_252_514)">
<path d="M42.5562 10L10 244H19.2893L51.8455 10H42.5572H42.5562ZM198.001 10L230.509 244H239.8L207.292 10H198.001ZM170.299 10.1182L105.097 10.3004C75.8781 30.7371 66.5317 58.5448 74.7687 93.0351C63.7768 77.6039 58.6448 61.893 58.2297 44.6666L45.091 139.095C45.608 137.303 46.1989 135.496 46.8897 133.673L44.9974 139.771L42.568 157.228C42.7699 175.916 51.7332 191.407 62.7113 200.265C53.5924 196.93 45.3032 192.738 38.4616 186.752L33.9282 219.324C55.1164 229.484 77.5601 231.311 93.2896 228.078C76.7742 237.342 58.1612 242.568 31.554 236.393L30.5052 243.926H137.631C173.902 236.779 195.397 216.541 201.171 199.998C202.914 215.049 199.815 229.587 182.72 243.926H218.783L198.323 96.6497C190.826 79.2652 173.159 67.5391 161.544 67.2457C166.9 65.4657 172.187 64.3318 177.451 64.3997C183.167 64.4736 188.854 65.9753 194.566 69.5992L192.495 54.6909C181.975 45.3564 169.613 39.4158 158.56 36.9879C161.78 36.753 164.982 36.6284 168.167 36.6506C175.666 36.7018 183.073 37.5704 190.413 39.7083L188.333 24.7409C162.393 23.7547 140.734 31.2777 128.734 40.6443C135.469 29.0487 150.661 17.1676 170.299 10.1177L170.299 10.1182ZM130.258 26.3987C96.3892 44.6587 94.8702 66.902 112.483 86.5411C108.728 52.3108 152.336 32.3713 171.056 57.4749C150.934 47.5435 132.754 61.3351 133.532 80.9727C144.972 69.1571 182.119 74.4403 172.821 98.792C167.258 82.3972 144.884 83.9743 141.482 92.0119C134.22 109.179 173.162 99.1918 189.793 124.649C180.512 119.294 166.287 124.886 170.482 131.833C186.376 158.15 212.103 187.563 177.031 204.225C188.636 185.181 182.342 171.859 166.272 164.13C178.899 196.994 163.761 244.742 115.158 229.711C146.095 224.077 153.739 198.899 143.353 188.634C131.725 218.359 83.2141 236.48 54.0139 207.567C82.9132 218.663 102.9 211.167 113.417 194.573C95.7452 205.128 66.4559 197.987 57.2882 173.412C71.4166 187.783 90.328 192.105 102.191 183.435C108.699 178.68 106.279 171.096 97.9811 168.958C85.903 165.846 67.4594 162.63 60.2829 150.943C70.9784 153.899 81.6739 156.21 92.3694 149.281C75.6358 138.414 52.2177 124.293 67.579 99.9063C68.0753 117.213 76.0627 127.754 93.7722 123.666C98.3439 122.611 102.044 116.047 97.982 112.157C67.8789 83.3332 74.5546 33.1764 130.257 26.4002L130.258 26.3987Z" fill="white"/>
</g>
<defs>
<filter id="filter0_df_252_514" x="0" y="0" width="249.8" height="264" filterUnits="userSpaceOnUse" color-interpolation-filters="sRGB">
<feFlood flood-opacity="0" result="BackgroundImageFix"/>
<feColorMatrix in="SourceAlpha" type="matrix" values="0 0 0 0 0 0 0 0 0 0 0 0 0 0 0 0 0 0 127 0" result="hardAlpha"/>
<feOffset dy="16"/>
<feGaussianBlur stdDeviation="2"/>
<feComposite in2="hardAlpha" operator="out"/>
<feColorMatrix type="matrix" values="0 0 0 0 1 0 0 0 0 1 0 0 0 0 1 0 0 0 0.25 0"/>
<feBlend mode="normal" in2="BackgroundImageFix" result="effect1_dropShadow_252_514"/>
<feBlend mode="normal" in="SourceGraphic" in2="effect1_dropShadow_252_514" result="shape"/>
<feGaussianBlur stdDeviation="5" result="effect2_foregroundBlur_252_514"/>
</filter>
</defs>
</svg>
