<svg width="61" height="64" viewBox="0 0 61 64" fill="none" xmlns="http://www.w3.org/2000/svg">
<g filter="url(#filter0_d_217_376)">
<path d="M4 50.3425V53.8579H41.1137L49.4622 40.3381H16.4332C16.2528 40.8386 16.0436 41.3201 15.8021 41.7515C15.6737 41.9818 15.532 42.2045 15.3777 42.4183H40.8386C41.0934 42.4184 41.3377 42.5197 41.5178 42.6999C41.698 42.88 41.7993 43.1243 41.7994 43.3791C41.7994 43.9089 41.3689 44.3401 40.8386 44.3401H12.1884C12.1265 44.3399 12.0646 44.3337 12.0038 44.3217C11.9972 44.3228 11.9905 44.3228 11.9837 44.3228C10.3817 44.3228 9.06076 43.3507 8.16535 41.7515C7.92369 41.3201 7.71466 40.8386 7.53422 40.3381H4V48.4216H21.1162L22.4236 46.7533C22.7508 46.3371 23.3552 46.2633 23.7726 46.5907C23.973 46.7481 24.1027 46.9785 24.1333 47.2314C24.1638 47.4844 24.0928 47.7391 23.9358 47.9397L23.5582 48.4216H27.1167C27.647 48.4216 28.0775 48.8517 28.0775 49.3821C28.0775 49.9124 27.647 50.3425 27.1167 50.3425H22.0513L20.6049 52.1872C20.2777 52.6046 19.6733 52.6784 19.2559 52.351C19.0556 52.1936 18.9259 51.9632 18.8953 51.7102C18.8647 51.4573 18.9357 51.2026 19.0928 51.002L19.6093 50.3425H4ZM38.1825 47.6076C38.9063 48.1807 39.1919 48.899 39.1919 49.5873C39.1919 50.2768 38.9063 50.9939 38.1825 51.5669C37.5364 52.0777 36.2639 52.5366 34.7648 52.5366C33.2657 52.5366 31.9932 52.0777 31.3471 51.5669C30.6234 50.9939 30.3378 50.2768 30.3378 49.5873C30.3378 48.899 30.6234 48.1807 31.3471 47.6076C31.9932 47.0969 33.2657 46.638 34.7648 46.638C36.2639 46.638 37.5364 47.0969 38.1825 47.6076ZM32.2593 49.5873C32.2593 50.1546 33.382 50.6157 34.7648 50.6157C36.1476 50.6157 37.2703 50.1546 37.2703 49.5873C37.2703 49.02 36.1476 48.56 34.7648 48.56C33.3821 48.56 32.2593 49.02 32.2593 49.5873ZM15.5845 35.0494H8.38292C8.38292 35.0494 8.89092 42.4006 11.9837 42.4006C15.0764 42.4006 15.5845 35.0494 15.5845 35.0494ZM54.3661 30.4588L56.467 34.2676L56.3739 40.5066C56.3739 40.5066 53.509 39.9778 54.3427 35.4157L52.8779 34.0157L54.3661 30.4588ZM30.6122 17.5905L26.6168 28.0928C26.6168 28.0928 31.4969 27.5288 32.3348 24.8872C32.3348 24.8872 31.2759 34.0175 28.6895 37.5266H35.1163L36.9275 22.0387L30.6122 17.5905ZM45.4467 18.6591L52.8719 28.7974L49.9056 35.0958L45.4253 25.1078C45.4253 25.1078 44.7518 32.508 47.7365 37.5266H41.7028L40.4025 22.2328L45.4467 18.6591ZM23.5992 11.0313C25.4752 15.1048 28.3378 16.4353 28.3378 16.4353L25.8085 20.7612C24.9017 19.6265 24.1258 18.4761 23.465 17.3625V11.3598L23.5992 11.0313ZM20.3423 13.1958V19.4414H21.7835V13.2793C21.064 13.3126 20.6959 13.2673 20.3423 13.1958ZM38.7742 7.88843C40.9272 7.88843 42.6751 10.2563 42.6751 13.1729C42.6751 16.0894 40.9272 18.4574 38.7742 18.4574C36.6211 18.4574 34.8732 16.0894 34.8732 13.1729C34.8732 10.2563 36.6211 7.88843 38.7742 7.88843ZM20.3295 11.4696L20.3454 11.4759C20.6866 11.6098 21.0941 11.6763 21.5802 11.6536L23.1943 7.70614L18.824 6.30332C18.824 6.30332 17.9613 10.5196 20.3295 11.4696ZM38.7732 5.11564C40.3391 6.31612 41.6257 6.78342 42.6005 6.84637C43.4438 6.90067 44.1106 6.67573 44.6124 6.31404C45.3879 5.75496 45.7871 4.84227 45.7771 3.9177C45.7635 2.64516 44.9892 1.37769 43.4918 1.04794C42.4153 0.810888 40.8164 1.09394 38.7751 2.64666C37.2092 1.44618 35.9225 0.978876 34.9478 0.916039C34.1045 0.861619 33.4377 1.08656 32.9359 1.44825C32.1604 2.00733 31.7612 2.92003 31.7711 3.8446C31.7847 5.11714 32.5591 6.38472 34.0565 6.71435C35.133 6.95141 36.7319 6.66835 38.7732 5.11564ZM21.7835 5.53786V0H20.3423V5.07517L21.7835 5.53786ZM41.3525 3.28045C42.2464 2.84727 42.911 2.77798 43.3629 3.03014C43.6983 3.21738 43.8519 3.58322 43.8556 3.93822C43.8589 4.24906 43.7494 4.56728 43.4887 4.75522C43.2996 4.8915 43.0418 4.94915 42.7242 4.92862C42.0862 4.88758 41.2981 4.56728 40.3358 3.88461C40.6959 3.63418 41.0345 3.43448 41.3525 3.28045ZM36.1958 4.48196C35.302 4.91502 34.6373 4.98431 34.1854 4.73216C33.85 4.54491 33.6965 4.17908 33.6927 3.82407C33.6894 3.51323 33.799 3.19501 34.0596 3.00708C34.2487 2.87079 34.5065 2.81315 34.8241 2.83367C35.4621 2.87483 36.2502 3.19501 37.2125 3.87769C36.8525 4.12811 36.5138 4.32781 36.1958 4.48196Z" fill="white"/>
</g>
<defs>
<filter id="filter0_d_217_376" x="0" y="0" width="60.4668" height="63.8579" filterUnits="userSpaceOnUse" color-interpolation-filters="sRGB">
<feFlood flood-opacity="0" result="BackgroundImageFix"/>
<feColorMatrix in="SourceAlpha" type="matrix" values="0 0 0 0 0 0 0 0 0 0 0 0 0 0 0 0 0 0 127 0" result="hardAlpha"/>
<feOffset dy="6"/>
<feGaussianBlur stdDeviation="2"/>
<feComposite in2="hardAlpha" operator="out"/>
<feColorMatrix type="matrix" values="0 0 0 0 1 0 0 0 0 1 0 0 0 0 1 0 0 0 0.25 0"/>
<feBlend mode="normal" in2="BackgroundImageFix" result="effect1_dropShadow_217_376"/>
<feBlend mode="normal" in="SourceGraphic" in2="effect1_dropShadow_217_376" result="shape"/>
</filter>
</defs>
</svg>
