<svg width="45" height="45" viewBox="0 0 45 45" fill="none" xmlns="http://www.w3.org/2000/svg">
<g filter="url(#filter0_d_219_254)">
<path d="M21.3322 0.0403859C24.9385 -0.207834 28.6146 0.693256 31.6857 2.60274C35.195 4.75851 37.9009 8.19093 39.1569 12.1153C40.0819 14.964 40.2461 18.0512 39.6552 20.9859C38.8602 24.9826 36.5984 28.6587 33.4071 31.1901C31.5112 32.7052 29.2959 33.8197 26.9475 34.4337C24.21 35.1506 21.2979 35.1913 18.541 34.5533C14.4628 33.6238 10.768 31.1558 8.32327 27.7648C7.13388 26.1274 6.23344 24.2813 5.67559 22.3356C4.8456 19.4416 4.77967 16.3331 5.48166 13.4061C6.02529 11.1379 7.0311 8.98277 8.41958 7.10949C9.83392 5.19289 11.6439 3.56912 13.7027 2.37068C16.02 1.01646 18.6541 0.21233 21.3322 0.0403859ZM19.5326 6.90781C18.3219 6.94465 17.0834 6.93431 15.9192 7.31634C14.956 7.6111 14.0782 8.17283 13.4189 8.93559C12.4803 9.97759 12.0692 11.3887 11.9761 12.7643C11.9069 13.8425 11.8953 14.9233 11.8947 16.0034C11.894 17.5192 11.8856 19.035 11.9082 20.5502C11.9444 21.8152 11.9503 23.1165 12.4079 24.3155C12.8042 25.4416 13.6018 26.4125 14.607 27.0511C15.5307 27.6277 16.6141 27.9005 17.6916 27.9826C18.5126 28.0395 19.3361 28.0602 20.159 28.0531C21.9476 28.0531 23.7355 28.0531 25.5241 28.0531C26.9107 28.0266 28.3483 28.0039 29.6379 27.4273C30.6986 26.9755 31.5926 26.1565 32.1679 25.161C32.7296 24.1649 32.9604 23.0176 33.0057 21.8844C33.0787 20.5909 33.0431 19.2949 33.0515 18.0008C33.0425 16.5793 33.0709 15.1572 33.0334 13.7364C33.0063 12.7125 32.9333 11.6705 32.5745 10.7022C32.2675 9.80759 31.7135 9.00734 30.9973 8.39196C30.0089 7.51996 28.6948 7.1069 27.4 6.99507C26.2164 6.9007 25.0284 6.90005 23.8422 6.89553C22.4059 6.89682 20.9689 6.88777 19.5326 6.90781Z" fill="white"/>
<path d="M20.246 8.79155C21.5957 8.78379 22.946 8.78573 24.2957 8.78896C25.275 8.79414 26.255 8.80512 27.2317 8.87946C28.2233 8.96608 29.2563 9.26989 29.9602 10.01C30.7307 10.7476 31.0216 11.8355 31.0953 12.8684C31.2058 14.6409 31.1696 16.4185 31.1761 18.1935C31.1748 19.5025 31.18 20.8128 31.0934 22.1192C31.0171 23.1463 30.7223 24.2264 29.955 24.9575C29.2472 25.6983 28.2097 25.9995 27.2162 26.0842C25.8141 26.1876 24.4069 26.1708 23.0023 26.1767C21.6881 26.1721 20.374 26.1864 19.0598 26.1495C18.0721 26.1146 17.0495 26.1056 16.1258 25.7087C15.195 25.3299 14.4561 24.5186 14.1497 23.5632C13.9772 23.0655 13.9002 22.5406 13.8627 22.017C13.7755 20.5516 13.7897 19.0836 13.7871 17.6163C13.7936 16.0048 13.7651 14.3907 13.8763 12.7825C13.9565 11.7767 14.2558 10.7256 15.0043 10.0094C15.7483 9.22787 16.8511 8.93699 17.8957 8.86589C18.6778 8.81676 19.4619 8.79672 20.246 8.79155ZM27.8083 10.6092C27.3423 10.7256 26.9635 11.127 26.8794 11.6008C26.7851 12.0669 26.9835 12.575 27.3688 12.8542C27.7669 13.1606 28.3532 13.1884 28.7799 12.9234C29.1289 12.7165 29.3662 12.3332 29.3901 11.9273C29.4269 11.4897 29.2123 11.0449 28.851 10.7967C28.5523 10.586 28.1613 10.5187 27.8083 10.6092ZM21.6804 12.105C19.6946 12.3798 17.9416 13.8542 17.3249 15.7605C16.8899 17.0584 16.9681 18.5206 17.5473 19.7617C18.0747 20.9071 19.0146 21.8561 20.1555 22.3932C21.2311 22.9091 22.4793 23.0455 23.6435 22.7914C24.6823 22.5665 25.65 22.0254 26.3875 21.2601C27.1929 20.4314 27.7256 19.3403 27.8697 18.1922C28.0184 17.083 27.8135 15.9279 27.2867 14.9395C26.7527 13.9273 25.8898 13.0934 24.8601 12.5944C23.8827 12.1121 22.7573 11.946 21.6804 12.105Z" fill="white"/>
<path d="M21.9992 13.978C22.8815 13.8546 23.8072 14.0782 24.5311 14.5986C25.3999 15.2095 25.9668 16.2282 26.0159 17.2902C26.0735 18.2359 25.727 19.1958 25.0806 19.8875C24.4387 20.5888 23.504 21.011 22.5525 21.0232C21.663 21.0465 20.7723 20.713 20.1142 20.115C19.4769 19.5443 19.0574 18.7369 18.9649 17.8862C18.8615 16.9974 19.1091 16.0731 19.6508 15.3607C20.2086 14.6122 21.0729 14.1009 21.9992 13.978Z" fill="white"/>
</g>
<defs>
<filter id="filter0_d_219_254" x="-0.000234127" y="0" width="45.0019" height="45.0039" filterUnits="userSpaceOnUse" color-interpolation-filters="sRGB">
<feFlood flood-opacity="0" result="BackgroundImageFix"/>
<feColorMatrix in="SourceAlpha" type="matrix" values="0 0 0 0 0 0 0 0 0 0 0 0 0 0 0 0 0 0 127 0" result="hardAlpha"/>
<feOffset dy="5.00023"/>
<feGaussianBlur stdDeviation="2.50012"/>
<feComposite in2="hardAlpha" operator="out"/>
<feColorMatrix type="matrix" values="0 0 0 0 0 0 0 0 0 0 0 0 0 0 0 0 0 0 0.25 0"/>
<feBlend mode="normal" in2="BackgroundImageFix" result="effect1_dropShadow_219_254"/>
<feBlend mode="normal" in="SourceGraphic" in2="effect1_dropShadow_219_254" result="shape"/>
</filter>
</defs>
</svg>
