<svg width="233" height="244" viewBox="0 0 233 244" fill="none" xmlns="http://www.w3.org/2000/svg">
<path d="M94.3333 0.26329C96.0533 -0.390043 97.8133 0.18329 98.6267 1.86329C101.16 6.14329 102.747 10.9433 105.68 14.97C108.72 17.45 112.453 18.8366 115.88 20.6633C119.133 18.97 122.56 17.5966 125.64 15.5833C129.253 10.9166 130.987 5.06329 134.413 0.30329C135.013 0.249956 136.187 0.14329 136.773 0.0899566C141.44 4.06329 141.973 11.25 146.307 15.57C150.427 18.37 155.227 19.9566 159.453 22.5833C160.933 23.25 161.733 25.97 160.347 26.97C155.48 29.6633 150.493 32.1566 145.613 34.85C147.787 35.9433 149.973 37.0366 152.147 38.13C160.507 42.5166 168.547 47.49 176.467 52.6233C176.24 47.0633 175.76 41.5033 175.827 35.9433C176.36 35.45 177.427 34.45 177.947 33.9433C183.72 35.53 188.013 40.37 193.493 42.7166C198.973 42.9833 204.44 41.97 209.92 42.3166C212.2 42.89 212.067 45.3833 211.053 47.01C208.507 51.29 205.347 55.2233 203.227 59.7433C202.853 63.5833 203.24 67.4633 203.507 71.3033L204.133 71.7433C207.067 73.5033 209.84 75.5566 212.893 77.13C218.187 77.8766 223.573 76.69 228.92 76.8233C231.4 76.4766 232.493 79.2766 231.267 81.17C228.987 85.41 225.893 89.1566 223.64 93.4233C221.347 99.7166 226.053 107.503 221.947 113.183C216.12 111.197 211.427 107.037 206.16 104.01C206.28 110.063 206.8 116.117 206.56 122.183C206.907 128.023 206.253 133.863 206.107 139.717C210.6 136.823 214.973 133.743 219.64 131.157C221.213 129.877 223.44 131.437 223.613 133.223C223.773 138.57 222.76 143.917 223.173 149.263C225.667 154.477 229.68 158.81 232.013 164.103C231.6 164.783 230.76 166.13 230.347 166.81C224.76 166.757 219.187 166.05 213.6 166.29C209.933 167.783 206.813 170.29 203.467 172.37C203.347 176.663 202.533 181.077 203.667 185.303C206.547 189.703 209.72 193.943 212.053 198.663C211.627 199.357 210.787 200.77 210.36 201.463C203.12 201.93 194.72 198.49 188.56 203.677C185.013 206.103 181.387 208.45 177.44 210.183C174.133 204.33 176.893 197.357 176.453 190.997C166.52 197.543 156.187 203.41 145.613 208.837C147.4 209.743 149.187 210.637 150.987 211.543C154.32 213.317 157.813 214.903 160.827 217.21C160.747 217.983 160.587 219.517 160.507 220.29C155.827 223.49 150.333 225.25 145.68 228.437C142.613 232.903 140.933 238.143 137.933 242.65C137.107 243.93 134.8 244.183 134.027 242.663C130.88 238.143 129.133 232.77 125.893 228.33C122.8 226.143 119.227 224.743 115.907 222.943C111.893 225.503 106.067 226.343 104.04 231.183C101.893 234.93 100.36 239.037 97.9333 242.637C97.28 243.837 94.7333 244.13 94.0933 242.797C91.0667 238.117 88.8133 232.997 86.12 228.13C81.12 225.623 76.04 223.237 71.32 220.21C70.56 218.903 70.6933 217.677 71.7067 216.53C74.7867 214.663 78.04 213.117 81.2 211.397C82.8533 210.53 84.5067 209.65 86.16 208.77C75.6533 203.25 65.2133 197.623 55.4 190.93C55.6 196.677 55.9867 202.41 56.08 208.157L54.32 209.837C48.4267 207.877 43.7333 203.637 38.3733 200.677C32.3333 201.01 26.2933 201.41 20.24 201.37C19.5867 192.33 31.5733 187.05 28.6133 177.477C28.5333 175.757 28.4667 174.037 28.3867 172.317C25.0667 170.197 21.72 168.117 18.3867 166.037C12.8533 166.357 7.32 166.663 1.78667 166.797C-0.36 165.89 -0.333334 163.21 1.02667 161.65C3.48 157.437 6.52 153.57 8.76 149.237C8.90667 143.437 8.09333 137.637 8.29333 131.837C9.05333 131.49 10.5867 130.81 11.3467 130.463C16.1467 133.543 21 136.543 25.76 139.677C25.6 133.717 24.9067 127.77 25.3333 121.81C25.0267 118.423 25.2267 115.023 25.4 111.65C25.5333 109.09 25.6533 106.543 25.7467 103.983C20.52 107.17 15.6267 111.01 9.86667 113.237C9.45333 112.623 8.64 111.423 8.24 110.81C8.13333 105.397 8.88 100.01 8.78667 94.5966C6.48 88.93 1.14667 84.5966 0 78.5299C3.68 74.9433 9.46667 77.81 14.0667 77.33C19.76 78.5566 23.8 73.7033 28.3467 71.2499C28.3733 70.8099 28.44 69.9433 28.4667 69.5033C28.3867 65.4633 29.9067 60.8766 27.4 57.29C25.4133 53.9033 23.0933 50.7166 21.08 47.3566C19.4533 45.65 19.6667 42.9966 22.08 42.1966C27.4267 42.0766 32.7467 42.8766 38.0933 42.7566C43.8667 40.7166 48.1733 35.1033 54.2 34.05C54.64 34.4633 55.5467 35.3033 55.9867 35.73C56.1333 41.37 55.6133 47.0233 55.36 52.6633C60.4533 49.5166 65.2933 45.8766 70.76 43.37C73.6667 41.29 76.8533 39.6766 80 38.0233C82.08 36.93 84.16 35.85 86.24 34.7833C81.44 32.13 76.48 29.77 71.6933 27.0766C70.24 25.7833 70.6933 23.17 72.48 22.45C76.7467 19.93 81.48 18.2633 85.64 15.57C89.2667 10.93 91.0667 5.14329 94.3333 0.26329ZM105.613 34.85C109.08 36.57 112.547 38.3033 115.933 40.17C119.347 38.3966 122.747 36.57 126.187 34.8233C122.773 32.93 119.347 31.0633 115.853 29.3166C112.467 31.1966 109.027 32.9966 105.613 34.85ZM72.9467 47.3166C73.0667 52.8233 71.4533 58.5433 73.12 63.9033C75.8533 67.8233 78.4933 71.8233 80.8667 75.97C80.8 76.8366 80.68 78.57 80.6133 79.4366C74.52 80.2366 68.4 78.8233 62.3333 79.3433C59.04 81.17 55.9733 83.33 52.7867 85.3033C52.6667 87.9566 52.5333 90.61 52.3733 93.2633C52.36 94.2366 52.3467 96.17 52.3467 97.1433C55.2267 101.583 58.1867 105.983 60.8667 110.557C60.8533 111.423 60.8267 113.17 60.8133 114.037C54.68 114.89 48.4933 113.437 42.3733 113.997C38.04 116.41 33.9733 119.277 29.7867 121.93C31.36 122.81 32.9333 123.703 34.4933 124.61C37.08 126.397 39.6533 128.25 42.48 129.663C48.1733 129.93 53.88 129.21 59.5733 129.13C59.96 129.757 60.7067 130.983 61.08 131.597C61.0667 132.05 61.0667 132.93 61.0667 133.37C57.7733 137.517 55.3067 142.223 52.2667 146.543C52.4 150.863 52.6667 155.183 52.8667 159.49L53.0533 158.317C56.1067 160.383 59.08 162.57 62.3733 164.237C68.1067 164.677 73.8533 163.783 79.6 163.77C80.0533 164.49 80.9867 165.943 81.4533 166.677C78.6267 171.677 75.3333 176.383 72.2933 181.25C72.44 186.223 72.7067 191.183 72.9867 196.157C77.2667 193.77 81.9733 192.077 86.0133 189.277C89.2 184.597 91.2 179.237 94.12 174.397C95.9333 173.583 97.3467 173.957 98.3733 175.517C101.16 179.943 102.72 185.09 105.893 189.277C108.96 191.57 112.587 192.93 115.987 194.65C119.293 192.837 122.893 191.517 125.973 189.317C129.2 184.637 131.173 179.237 134.133 174.397C134.84 174.317 136.24 174.143 136.947 174.063C140.12 176.997 141.16 181.477 143.32 185.13C145.72 191.743 153.547 192.823 158.933 196.13C159.04 193.103 159.147 190.077 159.36 187.05C161.08 180.103 155.187 175.13 152 169.717V169.65C150.6 167.783 150.027 164.81 152.747 163.85C158.12 163.73 163.48 164.543 168.867 164.37C172.52 162.863 175.653 160.33 179.027 158.29C179.12 156.33 179.227 154.37 179.36 152.423C181.04 145.477 175.187 140.45 171.987 135.037L172 134.997C170.707 133.21 169.933 130.17 172.64 129.303C178.133 129.117 183.613 129.73 189.107 129.89C191.973 128.197 194.8 126.423 197.547 124.543C199.013 123.623 200.48 122.703 201.973 121.81C197.88 119.21 193.84 116.53 189.707 114.01C183.547 113.343 177.307 114.957 171.147 113.983C171.08 113.183 170.947 111.57 170.893 110.77C173.933 104.197 181.107 98.8233 179.413 90.8233C179.32 89.0366 179.16 87.2766 178.933 85.5166C175.72 83.1566 172.44 80.5433 168.693 79.1833C163.053 79.1433 157.44 79.9033 151.813 79.6366C151.48 78.9833 150.827 77.65 150.493 76.9833C153.16 71.9433 156.507 67.3033 159.507 62.45C159.48 57.3033 159.107 52.1833 159 47.05C154.84 49.89 150.027 51.5566 145.813 54.2766C142.987 58.3966 141.16 63.09 138.747 67.45C138.08 69.0366 136.173 70.53 134.493 69.29C131.24 64.5433 128.893 59.2233 126.16 54.1699C122.733 52.4366 119.293 50.7566 115.933 48.93C112.587 50.7833 108.96 52.1433 105.787 54.3033C102.587 58.8633 100.88 64.3033 97.7467 68.9033C97.1067 69.1166 95.8133 69.5566 95.16 69.77C90.8667 65.3166 89.5467 58.7833 85.6667 54.0233C81.4933 51.6633 77.1333 49.65 72.9467 47.3166ZM186.173 69.3566C186.24 73.45 186.44 77.53 186.6 81.6233L186.84 81.0899C190.013 83.2099 193.28 85.1966 196.467 87.29C196.24 83.3966 196.067 79.4899 195.947 75.5966C192.707 73.4766 189.413 71.4633 186.173 69.3566ZM36.1067 75.4366C35.72 79.37 35.6133 83.3166 35.3733 87.25C38.56 85.17 41.8933 83.3166 44.9867 81.0899C45.28 79.3566 45.4533 77.61 45.52 75.8633C45.5867 73.69 45.6533 71.5166 45.72 69.3433C42.5067 71.3433 39.3333 73.4233 36.1067 75.4366ZM35.4267 156.317C35.5733 160.477 35.7467 164.65 35.9733 168.81L36.24 168.09C39.4 170.183 42.5867 172.25 45.7333 174.37C45.64 171.957 45.5467 169.557 45.4667 167.157C45.4 166.023 45.2667 163.77 45.2 162.637C41.9467 160.517 38.6933 158.397 35.4267 156.317ZM186.613 162.583C186.467 166.517 186.28 170.437 186.067 174.357C189.08 172.33 192.2 170.45 195.28 168.517L195.68 167.517L195.88 167.917C196.187 164.063 196.36 160.197 196.4 156.317C193.16 158.437 189.92 160.583 186.613 162.583ZM105.613 208.85C106.907 209.463 108.2 210.09 109.507 210.703C111.653 211.85 113.787 213.01 115.92 214.21C117.573 213.317 119.227 212.397 120.88 211.463C122.653 210.597 124.413 209.717 126.173 208.823C122.787 206.943 119.373 205.117 115.933 203.33C112.52 205.21 109.067 207.037 105.613 208.85Z" fill="white"/>
</svg>
