<svg width="178" height="178" viewBox="0 0 178 178" fill="none" xmlns="http://www.w3.org/2000/svg">
<g opacity="0.05">
<path d="M55.625 22.25H33.375C27.2562 22.25 22.25 27.2562 22.25 33.375V55.625C22.25 61.7438 27.2562 66.75 33.375 66.75H55.625C61.7438 66.75 66.75 61.7438 66.75 55.625V33.375C66.75 27.2562 61.7438 22.25 55.625 22.25ZM122.375 66.75H144.625C150.744 66.75 155.75 61.7438 155.75 55.625V33.375C155.75 27.2562 150.744 22.25 144.625 22.25H122.375C116.256 22.25 111.25 27.2562 111.25 33.375V55.625C111.25 61.7438 116.256 66.75 122.375 66.75ZM122.375 33.375H144.625V55.625H122.375V33.375ZM55.625 111.25H33.375C27.2562 111.25 22.25 116.256 22.25 122.375V144.625C22.25 150.744 27.2562 155.75 33.375 155.75H55.625C61.7438 155.75 66.75 150.744 66.75 144.625V122.375C66.75 116.256 61.7438 111.25 55.625 111.25ZM55.625 144.625H33.375V122.375H55.625V144.625ZM144.625 111.25H122.375C116.256 111.25 111.25 116.256 111.25 122.375V144.625C111.25 150.744 116.256 155.75 122.375 155.75H144.625C150.744 155.75 155.75 150.744 155.75 144.625V122.375C155.75 116.256 150.744 111.25 144.625 111.25Z" fill="white"/>
<path d="M155.75 89H144.625C129.762 89 115.8 83.215 105.287 72.713C94.7739 62.211 89 48.238 89 33.375V22.25C89 10.0125 78.9875 0 66.75 0H22.25C10.0125 0 0 10.0125 0 22.25V66.75C0 78.9875 10.0125 89 22.25 89H33.375C48.238 89 62.1999 94.785 72.713 105.287C83.2261 115.789 89 129.762 89 144.625V155.75C89 167.988 99.0125 178 111.25 178H155.75C167.988 178 178 167.988 178 155.75V111.25C178 99.0125 167.988 89 155.75 89ZM166.875 155.75C166.875 158.698 165.707 161.479 163.593 163.593C161.479 165.707 158.698 166.875 155.75 166.875H111.25C108.302 166.875 105.521 165.707 103.407 163.593C101.293 161.479 100.125 158.698 100.125 155.75V144.625C100.125 126.922 93.0924 109.944 80.5744 97.4256C68.0563 84.9076 51.0782 77.875 33.375 77.875H22.25C19.3019 77.875 16.5206 76.7069 14.4069 74.5931C12.2931 72.4794 11.125 69.687 11.125 66.75V22.25C11.125 19.3019 12.2931 16.5206 14.4069 14.4069C16.5206 12.2931 19.3019 11.125 22.25 11.125H66.75C69.6981 11.125 72.4794 12.2931 74.5931 14.4069C76.7069 16.5206 77.875 19.3019 77.875 22.25V33.375C77.875 51.0782 84.9076 68.0563 97.4256 80.5744C109.944 93.0924 126.922 100.125 144.625 100.125H155.75C158.698 100.125 161.479 101.293 163.593 103.407C165.707 105.521 166.875 108.302 166.875 111.25V155.75Z" fill="white"/>
</g>
</svg>
