<svg width="40" height="98" viewBox="0 0 40 98" fill="none" xmlns="http://www.w3.org/2000/svg">
<path d="M39.8194 8.38492C39.8194 8.34192 39.8194 8.34192 39.8194 8.38492C39.7789 7.99333 39.662 7.61348 39.4754 7.26688C39.4324 7.18088 39.3894 7.13788 39.3464 7.05188C39.1045 6.75384 38.7949 6.51795 38.4433 6.36385L38.4003 6.32085L20.6837 0.128638C20.2262 -0.0428793 19.7221 -0.0428793 19.2647 0.128638L1.41905 6.36385L1.37605 6.40685C1.02378 6.53914 0.712398 6.76155 0.473017 7.05188C0.430015 7.13788 0.387013 7.18088 0.344011 7.26688C0.129004 7.56789 0 7.95491 0 8.34192V89.2277C0 90.1307 0.559019 90.9478 1.41905 91.2488L19.2647 97.871C19.5227 97.957 19.7807 98 19.9957 98C20.2537 98 20.5117 97.957 20.7697 97.871L38.4863 91.2488C39.3463 90.9478 39.9054 90.1307 39.9054 89.2277V8.38492H39.8194ZM16.2116 15.9102V58.9117L4.30015 54.4825V11.481L16.2116 15.9102ZM35.5192 54.4825L23.6938 58.9117V15.9102L35.5192 11.481V54.4825Z" fill="white"/>
</svg>
