<svg width="77" height="61" viewBox="0 0 77 61" fill="none" xmlns="http://www.w3.org/2000/svg">
<g filter="url(#filter0_d_217_362)">
<path d="M65.9248 14.3438C66.9209 14.8971 67.8284 15.5723 68.6475 16.3691C69.4665 17.166 70.1527 18.0514 70.7061 19.0254C71.2594 19.9993 71.7021 21.0286 72.0342 22.1133C72.3662 23.1979 72.5212 24.3268 72.499 25.5H68.249C68.249 24.349 68.0277 23.2533 67.585 22.2129C67.1423 21.1725 66.5335 20.276 65.7588 19.5234C64.9841 18.7708 64.0765 18.1621 63.0361 17.6973C61.9958 17.2324 60.9001 17 59.749 17C58.5758 17 57.4801 17.2214 56.4619 17.6641C55.4437 18.1068 54.5472 18.7155 53.7725 19.4902C52.9977 20.265 52.389 21.1725 51.9463 22.2129C51.5036 23.2533 51.2712 24.349 51.249 25.5C51.249 27.5143 50.7952 29.429 49.8877 31.2441C48.9801 33.0592 47.7074 34.5645 46.0693 35.7598C47.5081 36.4902 48.8031 37.3867 49.9541 38.4492C51.1051 39.5117 52.1012 40.707 52.9424 42.0352C53.7835 43.3633 54.4144 44.7799 54.835 46.2852C55.2555 47.7904 55.4769 49.362 55.499 51H51.249C51.249 49.2513 50.917 47.6022 50.2529 46.0527C49.5889 44.5033 48.6702 43.153 47.4971 42.002C46.3239 40.8509 44.9736 39.9434 43.4463 39.2793C41.9189 38.6152 40.2699 38.2721 38.499 38.25C36.7503 38.25 35.1012 38.582 33.5518 39.2461C32.0023 39.9102 30.652 40.8288 29.501 42.002C28.3499 43.1751 27.4424 44.5254 26.7783 46.0527C26.1143 47.5801 25.7712 49.2292 25.749 51H21.499C21.499 49.3841 21.7204 47.8236 22.1631 46.3184C22.6058 44.8132 23.2367 43.3965 24.0557 42.0684C24.8747 40.7402 25.8597 39.5449 27.0107 38.4824C28.1618 37.4199 29.4678 36.5124 30.9287 35.7598C29.3128 34.5645 28.0511 33.0592 27.1436 31.2441C26.236 29.429 25.7712 27.5143 25.749 25.5C25.749 24.349 25.5277 23.2533 25.085 22.2129C24.6423 21.1725 24.0335 20.276 23.2588 19.5234C22.484 18.7708 21.5765 18.1621 20.5361 17.6973C19.4958 17.2324 18.4001 17 17.249 17C16.0758 17 14.9801 17.2214 13.9619 17.6641C12.9437 18.1068 12.0472 18.7155 11.2725 19.4902C10.4977 20.265 9.889 21.1725 9.44629 22.2129C9.00358 23.2533 8.77116 24.349 8.74902 25.5H4.49902C4.49902 24.349 4.65397 23.2311 4.96387 22.1465C5.27376 21.0618 5.7054 20.0326 6.25879 19.0586C6.81217 18.0846 7.50944 17.1992 8.35059 16.4023C9.19173 15.6055 10.0993 14.9193 11.0732 14.3438C10.3428 13.569 9.77832 12.6725 9.37988 11.6543C8.98145 10.6361 8.77116 9.58464 8.74902 8.5C8.74902 7.34896 8.97038 6.25326 9.41309 5.21289C9.85579 4.17253 10.4645 3.27604 11.2393 2.52344C12.014 1.77083 12.9105 1.16211 13.9287 0.697266C14.9469 0.232422 16.0537 0 17.249 0C18.4001 0 19.4958 0.221354 20.5361 0.664062C21.5765 1.10677 22.473 1.71549 23.2256 2.49023C23.9782 3.26497 24.5869 4.17253 25.0518 5.21289C25.5166 6.25326 25.749 7.34896 25.749 8.5C25.749 9.58464 25.5498 10.6361 25.1514 11.6543C24.7529 12.6725 24.1774 13.569 23.4248 14.3438C25.2399 15.3398 26.723 16.7122 27.874 18.4609C29.0693 16.6901 30.5967 15.2956 32.4561 14.2773C34.3154 13.2591 36.3298 12.75 38.499 12.75C40.6462 12.75 42.6494 13.2591 44.5088 14.2773C46.3682 15.2956 47.9066 16.6901 49.124 18.4609C50.2751 16.7122 51.7581 15.3398 53.5732 14.3438C52.8428 13.569 52.2783 12.6725 51.8799 11.6543C51.4814 10.6361 51.2712 9.58464 51.249 8.5C51.249 7.34896 51.4704 6.25326 51.9131 5.21289C52.3558 4.17253 52.9645 3.27604 53.7393 2.52344C54.514 1.77083 55.4105 1.16211 56.4287 0.697266C57.4469 0.232422 58.5537 0 59.749 0C60.9001 0 61.9958 0.221354 63.0361 0.664062C64.0765 1.10677 64.973 1.71549 65.7256 2.49023C66.4782 3.26497 67.0869 4.17253 67.5518 5.21289C68.0166 6.25326 68.249 7.34896 68.249 8.5C68.249 9.58464 68.0498 10.6361 67.6514 11.6543C67.2529 12.6725 66.6774 13.569 65.9248 14.3438ZM12.999 8.5C12.999 9.09766 13.1097 9.65104 13.3311 10.1602C13.5524 10.6693 13.8512 11.112 14.2275 11.4883C14.6038 11.8646 15.0576 12.1745 15.5889 12.418C16.1201 12.6615 16.6735 12.7721 17.249 12.75C17.8467 12.75 18.4001 12.6393 18.9092 12.418C19.4183 12.1966 19.861 11.8978 20.2373 11.5215C20.6136 11.1452 20.9235 10.6914 21.167 10.1602C21.4105 9.62891 21.5212 9.07552 21.499 8.5C21.499 7.90234 21.3883 7.34896 21.167 6.83984C20.9456 6.33073 20.6468 5.88802 20.2705 5.51172C19.8942 5.13542 19.4404 4.82552 18.9092 4.58203C18.3779 4.33854 17.8245 4.22786 17.249 4.25C16.6514 4.25 16.098 4.36068 15.5889 4.58203C15.0798 4.80339 14.637 5.10221 14.2607 5.47852C13.8844 5.85482 13.5745 6.30859 13.3311 6.83984C13.0876 7.37109 12.9769 7.92448 12.999 8.5ZM38.499 34C39.6501 34 40.7458 33.7786 41.7861 33.3359C42.8265 32.8932 43.723 32.2845 44.4756 31.5098C45.2282 30.735 45.8369 29.8385 46.3018 28.8203C46.7666 27.8021 46.999 26.6953 46.999 25.5C46.999 24.349 46.7777 23.2533 46.335 22.2129C45.8923 21.1725 45.2835 20.276 44.5088 19.5234C43.7341 18.7708 42.8265 18.1621 41.7861 17.6973C40.7458 17.2324 39.6501 17 38.499 17C37.3258 17 36.2301 17.2214 35.2119 17.6641C34.1937 18.1068 33.2972 18.7155 32.5225 19.4902C31.7477 20.265 31.139 21.1725 30.6963 22.2129C30.2536 23.2533 30.0212 24.349 29.999 25.5C29.999 26.6732 30.2204 27.7689 30.6631 28.7871C31.1058 29.8053 31.7145 30.7018 32.4893 31.4766C33.264 32.2513 34.1605 32.86 35.1787 33.3027C36.1969 33.7454 37.3037 33.9779 38.499 34ZM55.499 8.5C55.499 9.09766 55.6097 9.65104 55.8311 10.1602C56.0524 10.6693 56.3512 11.112 56.7275 11.4883C57.1038 11.8646 57.5576 12.1745 58.0889 12.418C58.6201 12.6615 59.1735 12.7721 59.749 12.75C60.3467 12.75 60.9001 12.6393 61.4092 12.418C61.9183 12.1966 62.361 11.8978 62.7373 11.5215C63.1136 11.1452 63.4235 10.6914 63.667 10.1602C63.9105 9.62891 64.0212 9.07552 63.999 8.5C63.999 7.90234 63.8883 7.34896 63.667 6.83984C63.4456 6.33073 63.1468 5.88802 62.7705 5.51172C62.3942 5.13542 61.9404 4.82552 61.4092 4.58203C60.8779 4.33854 60.3245 4.22786 59.749 4.25C59.1514 4.25 58.598 4.36068 58.0889 4.58203C57.5798 4.80339 57.137 5.10221 56.7607 5.47852C56.3844 5.85482 56.0745 6.30859 55.8311 6.83984C55.5876 7.37109 55.4769 7.92448 55.499 8.5Z" fill="white"/>
</g>
<defs>
<filter id="filter0_d_217_362" x="0.499023" y="0" width="76.002" height="61" filterUnits="userSpaceOnUse" color-interpolation-filters="sRGB">
<feFlood flood-opacity="0" result="BackgroundImageFix"/>
<feColorMatrix in="SourceAlpha" type="matrix" values="0 0 0 0 0 0 0 0 0 0 0 0 0 0 0 0 0 0 127 0" result="hardAlpha"/>
<feOffset dy="6"/>
<feGaussianBlur stdDeviation="2"/>
<feComposite in2="hardAlpha" operator="out"/>
<feColorMatrix type="matrix" values="0 0 0 0 1 0 0 0 0 1 0 0 0 0 1 0 0 0 0.25 0"/>
<feBlend mode="normal" in2="BackgroundImageFix" result="effect1_dropShadow_217_362"/>
<feBlend mode="normal" in="SourceGraphic" in2="effect1_dropShadow_217_362" result="shape"/>
</filter>
</defs>
</svg>
