<svg width="66" height="68" viewBox="0 0 66 68" fill="none" xmlns="http://www.w3.org/2000/svg">
<g filter="url(#filter0_d_217_383)">
<path d="M32.0981 0.00148741C18.5673 -0.13872 4.01774 9.63683 4 27.8206L6.63695 21.4885C5.46835 30.3937 5.68211 39.6287 11.4161 46.4377L6.27559 44.1853C11.1101 52.7818 21.8404 55.3939 31.0219 55.5829C16.8601 50.6591 9.93107 39.8635 9.44343 28.0623C8.61525 1.97005 41.5577 1.24142 51.4291 18.7271C51.0081 16.3256 50.3667 13.9929 49.5049 11.8141C59.0417 22.7984 56.8101 38.2877 46.8819 42.9893C43.8942 43.476 40.8535 44.4752 39.3721 45.3302C32.1587 49.4948 38.5996 60.92 45.9296 56.6882C47.0927 56.0167 48.8131 54.5564 50.4259 52.8255C58.3553 45.4923 62.5122 38.2578 61.8972 29.5472C61.0939 33.1325 59.5347 36.6812 57.5083 39.9805C65.2896 21.8914 58.4885 7.46806 39.6636 2.85232C41.154 3.57122 42.5592 4.5316 43.8369 5.73038C36.7631 2.80402 27.6819 2.94349 20.8119 6.16221C24.2698 2.93425 28.7926 0.774474 33.4034 0.0460877C32.9696 0.0208718 32.5344 0.00600491 32.0978 0.00148741H32.0981ZM29.666 19.7391L27.2212 32.1293C26.8568 32.5987 26.5264 32.9735 26.1083 33.354L22.9435 27.3051L20.1461 28.775L24.011 36.2837C24.563 37.6973 25.2455 38.8315 25.8791 39.798C29.3365 45.0715 33.8315 44.1412 37.6208 40.9752L48.3741 35.0057L46.8082 32.2338L38.6599 36.785C38.473 36.3964 38.2575 35.9777 38.037 35.6133L46.3925 27.6099L44.2315 25.3066L36.0421 33.1624C35.7518 32.8768 35.5199 32.6046 35.2086 32.3566L40.7632 22.7362L37.9623 21.1189L32.3117 30.7654C31.8447 30.604 31.3606 30.4944 30.8831 30.4273L32.812 20.3373L29.6662 19.7392L29.666 19.7391Z" fill="white"/>
</g>
<defs>
<filter id="filter0_d_217_383" x="0" y="0" width="65.957" height="67.6133" filterUnits="userSpaceOnUse" color-interpolation-filters="sRGB">
<feFlood flood-opacity="0" result="BackgroundImageFix"/>
<feColorMatrix in="SourceAlpha" type="matrix" values="0 0 0 0 0 0 0 0 0 0 0 0 0 0 0 0 0 0 127 0" result="hardAlpha"/>
<feOffset dy="6"/>
<feGaussianBlur stdDeviation="2"/>
<feComposite in2="hardAlpha" operator="out"/>
<feColorMatrix type="matrix" values="0 0 0 0 1 0 0 0 0 1 0 0 0 0 1 0 0 0 0.25 0"/>
<feBlend mode="normal" in2="BackgroundImageFix" result="effect1_dropShadow_217_383"/>
<feBlend mode="normal" in="SourceGraphic" in2="effect1_dropShadow_217_383" result="shape"/>
</filter>
</defs>
</svg>
