<svg width="51" height="66" viewBox="0 0 51 66" fill="none" xmlns="http://www.w3.org/2000/svg">
<path d="M22 65.9998C9.84972 65.9998 0 56.15 0 43.9998V26.714C0 24.1104 2.11066 21.9998 4.71429 21.9998V21.9998C7.31791 21.9998 9.42857 19.8891 9.42857 17.2855V15.714C9.42857 11.3664 10.9612 7.661 14.0266 4.59776C17.0919 1.53452 20.7973 0.00185324 25.1429 -0.000241995C29.4884 -0.00233723 33.1949 1.53033 36.2623 4.59776C39.3297 7.66519 40.8613 11.3706 40.8571 15.714V17.2855C40.8571 19.8891 42.9678 21.9998 45.5714 21.9998V21.9998C48.1751 21.9998 50.2857 24.1104 50.2857 26.714V43.9998C50.2857 56.15 40.436 65.9998 28.2857 65.9998H22ZM25.1429 50.2855C26.8714 50.2855 28.3517 49.6705 29.5837 48.4406C30.8157 47.2107 31.4307 45.7304 31.4286 43.9998C31.4265 42.2691 30.8115 40.7899 29.5837 39.562C28.3559 38.3342 26.8756 37.7182 25.1429 37.714C23.4101 37.7099 21.9309 38.3259 20.7051 39.562C19.4794 40.7982 18.8634 42.2775 18.8571 43.9998C18.8509 45.722 19.4669 47.2023 20.7051 48.4406C21.9434 49.6789 23.4227 50.2939 25.1429 50.2855ZM15.7143 15.714C15.7143 19.1855 18.5285 21.9998 22 21.9998H28.2857C31.7572 21.9998 34.5714 19.1855 34.5714 15.714V15.714C34.5714 13.095 33.6548 10.8688 31.8214 9.03547C29.9881 7.20214 27.7619 6.28547 25.1429 6.28547C22.5238 6.28547 20.2976 7.20214 18.4643 9.03547C16.631 10.8688 15.7143 13.095 15.7143 15.714V15.714Z" fill="white"/>
</svg>
