<svg width="164" height="125" viewBox="0 0 164 125" fill="none" xmlns="http://www.w3.org/2000/svg">
<path d="M82.4833 1.23994C82.0887 0.774965 82.4234 0.348731 82.7686 0C83.0927 0.619966 83.5471 1.2646 83.3181 2.00081C83.7443 2.63134 84.1846 3.25835 84.6109 3.89241C84.8046 3.67049 85.0019 3.44856 85.2062 3.23721C87.8974 7.85878 91.2191 12.107 93.854 16.7778C93.6603 16.7884 93.2763 16.8131 93.0826 16.8272C93.1143 17.0279 93.1742 17.4295 93.2023 17.6303C93.7272 17.9086 93.9456 18.4475 94.171 18.9653C94.0583 18.282 93.7237 17.6056 93.8505 16.9047C96.1683 20.7442 98 24.855 99.8212 28.9447C99.4302 29.0081 99.0638 28.8496 98.7045 28.7263C99.4196 30.1106 100.068 31.5302 100.614 32.9885C100.459 32.0339 100.152 31.0934 99.5288 30.3396C99.631 29.938 99.7578 29.547 99.9269 29.1701C100.98 31.6465 101.621 34.2672 102.622 36.7612C102.431 36.9937 102.241 37.2262 102.047 37.4551C101.988 37.205 101.864 36.7013 101.804 36.4512C102.128 38.3921 102.653 40.2908 103.08 42.2141C103.051 41.0939 102.77 40.0089 102.498 38.9346C102.706 38.9522 103.118 38.9874 103.323 39.0015C103.252 40.9037 104.154 42.6966 103.935 44.6164C103.404 44.0317 103.425 43.2145 103.284 42.4888C103.245 43.2849 103.199 44.0845 103.157 44.8841L103.622 44.8066C103.576 45.8986 103.928 47.0892 103.372 48.1002C103.534 48.0509 103.858 47.9487 104.02 47.8994C103.869 46.7335 103.298 45.3421 104.203 44.3558C104.703 49.2415 104.897 54.2083 104.15 59.0835C104.002 60.2424 103.594 61.3696 103.689 62.5497C103.478 62.5814 103.062 62.6377 102.851 62.6694C103.108 61.6056 103.347 60.5348 103.411 59.4393C103.051 61.0667 102.495 62.6835 102.59 64.3743C102.625 63.9551 102.692 63.1133 102.727 62.6941C102.932 62.9266 103.132 63.1626 103.333 63.4056C103.115 64.1594 102.932 64.9344 102.949 65.727C102.762 65.7481 102.389 65.7939 102.199 65.815C102.241 65.5473 102.326 65.0084 102.364 64.7407C102.185 64.9802 101.829 65.4593 101.649 65.6953C101.674 66.2906 102.157 66.3434 102.639 66.361C102.076 68.2667 101.251 70.0808 100.691 71.9901C100.529 71.7153 100.374 71.437 100.226 71.1623C100.082 71.2433 99.7965 71.4018 99.6521 71.4793C99.6662 71.6942 99.6979 72.1204 99.7155 72.3317C99.9938 72.2261 100.272 72.1169 100.55 72.0006C100.004 73.547 99.2364 74.9983 98.6235 76.513C98.3805 76.2664 98.1445 76.0128 97.9155 75.7627C97.6583 76.2805 97.4399 76.8194 97.137 77.3126C96.7883 78.0206 96.4748 78.7427 96.1683 79.4719C96.665 78.6018 97.1969 77.7212 98.0317 77.14C97.4364 78.6864 96.5523 80.0954 95.5977 81.4375C93.0227 85.3369 89.9581 88.9405 86.3897 91.9593C85.1111 93.1816 83.7091 94.2947 82.1838 95.193C81.5991 95.6298 80.9686 95.038 80.5001 94.721C78.8304 93.3401 77.0233 92.1178 75.5227 90.5468C73.8988 88.8841 72.1763 87.3166 70.6546 85.5624L70.8061 85.4496C71.5423 85.3052 71.891 86.1788 72.3736 86.591C72.1869 86.1506 71.5669 85.7279 71.9051 85.2242C71.7114 85.0446 71.5211 84.8684 71.338 84.6923C71.183 84.7628 70.8765 84.9037 70.725 84.9741C70.5489 84.5479 70.3834 84.1357 70.2178 83.713C70.2777 84.0406 70.3164 84.3718 70.327 84.7099C70.2425 84.7205 70.0769 84.7416 69.9959 84.7522C68.1078 82.2688 66.2056 79.7678 64.7755 76.985C63.1622 73.8253 61.7848 70.5352 60.7985 67.1254C60.323 65.2972 59.7347 63.469 59.7488 61.5598C60.1398 62.0177 60.2631 62.6131 60.4569 63.1731C60.5238 63.1626 60.6612 63.1379 60.7281 63.1273C60.5238 62.1093 60.249 61.1054 60.0024 60.1015C60.0306 60.7144 59.8897 61.3062 59.4811 61.7782C59.2733 59.2244 58.6885 56.6987 58.7484 54.1273C58.8013 51.5488 58.6146 48.9562 59.002 46.3953C59.0972 44.1655 59.622 41.9921 59.8439 39.7765C60.2384 40.2661 60.3582 40.8614 60.3265 41.4814C60.5907 40.5796 60.95 39.6673 60.788 38.7127C60.5801 39.1635 60.397 39.6285 60.0905 40.023C60.3864 36.3984 61.9434 33.052 62.9755 29.6104C63.1657 29.8324 63.3559 30.0613 63.5426 30.2903C63.3841 30.7271 63.2256 31.1674 63.0671 31.6077C63.3453 31.0018 63.7082 30.4417 64.078 29.8887C64.0463 29.7267 63.9899 29.4061 63.9618 29.2441C63.6941 29.3533 63.4299 29.4695 63.1763 29.5928C63.2995 29.156 63.5426 28.2824 63.6659 27.8456C63.8737 28.0781 64.0674 28.3318 64.2682 28.5819C64.4091 28.4797 64.6874 28.2719 64.8248 28.1697C64.786 27.9971 64.705 27.6554 64.6628 27.4828C64.388 27.585 64.1203 27.6942 63.8596 27.8139C64.3211 26.803 64.7825 25.785 65.1031 24.7176C65.2968 24.9396 65.487 25.172 65.6808 25.4045C65.7512 25.32 65.8921 25.1509 65.9626 25.0664C66.5262 24.2491 65.959 23.2276 66.417 22.3928C67.7062 19.7649 69.2632 17.278 70.6933 14.7277C70.7744 14.7312 70.9364 14.7418 71.0174 14.7453C71.0843 14.8862 71.2147 15.168 71.2816 15.3125C71.5247 14.844 71.4859 13.8858 72.2679 14.15C71.7043 13.3293 72.9161 12.8573 73.3846 12.35C73.3317 12.262 73.219 12.0858 73.1626 11.9978C72.7611 12.2338 72.3665 12.4839 71.9615 12.7128C74.1384 8.81339 76.6464 5.06188 79.5455 1.66264C79.5419 1.89512 79.5314 2.36363 79.5279 2.59612C79.2989 2.83213 79.0981 3.08574 78.8762 3.32527C79.4785 2.74758 80.0316 2.11352 80.5001 1.42311C80.9087 0.933475 81.2891 -0.0316929 82.1028 0.373399C82.1733 0.760877 82.2367 1.15187 82.2966 1.5464C82.3424 1.4689 82.4375 1.31743 82.4833 1.23994ZM100.681 33.4429C100.114 34.4786 101.847 33.5204 100.681 33.4429V33.4429Z" fill="white"/>
<path d="M14.2225 15.3304C15.0327 14.7914 15.8112 14.0658 16.8257 13.9566C18.4354 13.7805 20.0664 13.8122 21.6832 13.9214C22.976 14.6188 24.614 14.4779 26.0124 14.9957C25.7764 14.9323 25.3079 14.8055 25.0719 14.7421C25.2938 14.5413 25.5228 14.3476 25.7588 14.1574C29.0735 15.3022 32.3424 16.5844 35.4317 18.2611C36.4426 18.3245 35.6078 18.8635 35.3753 19.11C35.6888 19.258 35.9812 19.4482 36.3088 19.5856C36.2806 19.3073 36.2595 19.0325 36.2489 18.7578C41.8497 21.9034 46.7531 26.1833 50.9238 31.0479C52.826 33.2812 54.3723 35.7787 55.9082 38.2691C56.9438 39.5548 56.1759 41.2879 56.3097 42.7709C55.5806 42.0241 55.88 40.9568 55.8095 40.0233C55.8976 39.0582 55.1684 38.336 54.6295 37.6315C55.4185 38.7411 56.0526 40.0621 55.6581 41.457C55.2776 42.7005 55.2107 43.9897 55.4009 45.2754C55.5172 44.3455 55.3551 43.2605 56.0385 42.5138C56.1864 44.2997 55.6862 46.0363 55.6264 47.8117C55.5911 51.764 55.4397 55.7409 56.1512 59.6509C55.9469 59.8869 55.7391 60.1194 55.5313 60.3519C55.4995 59.5523 55.4714 58.7632 55.4115 57.9671C55.2776 59.2881 55.3622 60.6302 55.7285 61.9088C55.7285 61.539 55.7215 60.8028 55.7215 60.4329C55.9046 60.44 56.278 60.454 56.4647 60.4611C56.2005 61.7961 56.7183 63.0819 57.0213 64.3605C59.001 73.262 63.3337 81.7231 69.7271 88.2609C70.7521 89.441 71.9533 90.4555 73.0242 91.5968C71.2418 91.6179 69.6108 90.843 67.913 90.4238C61.2025 88.5568 54.9007 85.4429 49.078 81.6491C49.2752 81.4519 49.476 81.2617 49.6839 81.075C48.7997 80.4656 47.7218 79.9935 47.2251 78.9826C47.1476 79.0389 46.9891 79.1517 46.9116 79.2045C46.5312 78.9403 46.1543 78.6867 45.7738 78.4331C46.8059 79.3419 47.9754 80.0746 49.1308 80.8213C48.9265 81.0186 48.7222 81.2159 48.5144 81.4096C47.8768 80.7861 47.1864 80.226 46.4466 79.7329C43.4137 77.6229 40.6732 75.1324 37.7953 72.8287C38.056 72.6138 38.3342 72.4201 38.5914 72.2052C37.3691 71.631 36.4145 70.6764 35.4951 69.7113C36.3229 70.6518 37.2317 71.5465 37.8164 72.6702C33.7761 69.3273 30.0316 65.6286 26.4105 61.8278C24.5365 59.5276 22.9196 57.0196 21.5599 54.3812C19.4394 50.8023 18.682 46.607 18.3086 42.5208C18.4566 39.7169 18.8758 36.927 18.9039 34.116C19.7106 34.8311 19.4746 35.9442 19.4112 36.8988C19.2632 38.0578 19.0695 39.2132 19.0871 40.3897C19.3513 38.3748 19.7212 36.3669 19.5908 34.3274C19.3724 33.7814 19.2386 33.2108 19.0977 32.6472C19.0272 33.1262 18.9533 33.6088 18.8758 34.0914C18.2558 32.161 17.6323 30.1919 16.3994 28.5504C14.5783 26.0318 13.4616 23.0588 12.9966 19.9977C12.9368 19.0502 12.6796 17.8983 13.437 17.148C13.5215 18.6909 13.6025 20.2443 13.9513 21.7555C13.9196 20.9101 13.8174 20.0717 13.6201 19.251C13.754 17.937 14.0006 16.6337 14.2225 15.3304ZM30.3451 16.4787C30.3698 17.6447 31.4089 15.9785 30.3451 16.4787V16.4787ZM30.4684 39.4492C33.1279 43.3733 38.1757 44.1799 41.818 46.8571C40.7225 44.6132 40.2258 42.1404 39.2219 39.8578C38.3166 37.8112 37.6544 35.518 35.9248 33.9822C35.016 33.0417 33.7268 32.309 32.3917 32.3794C29.4751 33.1826 28.7706 37.2159 30.4684 39.4492ZM57.1094 85.4746C57.1481 86.6441 58.1591 84.9392 57.1094 85.4746V85.4746Z" fill="white"/>
<path d="M139.396 14.1819C141.639 13.8155 143.887 13.9917 146.141 13.9494C147.103 14.0586 147.779 14.8336 148.568 15.3161C148.301 14.7807 148.008 14.2594 147.744 13.7275C149.266 14.5306 149.896 16.2426 150.076 17.8594C150.291 19.4868 149.991 21.1178 149.847 22.7381C149.643 22.7698 149.234 22.8403 149.03 22.872L149.1 22.1217C148.48 24.6297 147.163 26.863 145.757 28.9977C147.117 27.1519 148.36 25.1546 148.921 22.9072C149.111 23.1397 149.301 23.3757 149.495 23.6152C148.336 26.3593 146.659 28.8356 145.342 31.4951C144.299 33.6192 144.151 36.0604 144.588 38.3606C145.712 46.3955 142.576 54.5255 137.522 60.6934C137.353 59.848 138.046 59.1365 138.346 58.3932C138.004 58.8899 137.733 59.4923 137.106 59.679C136.969 60.0347 136.842 60.3976 136.715 60.7604C136.93 60.778 137.36 60.8132 137.574 60.8308C136.482 61.8242 135.549 62.969 134.601 64.0962C131.414 67.4955 127.845 70.4931 124.407 73.6282C121.977 75.6924 119.426 77.6087 116.929 79.5848C116.513 80.011 115.925 79.6235 115.439 79.6059C115.682 79.687 116.168 79.849 116.411 79.93C115.622 80.5042 114.844 81.096 114.139 81.7758C113.921 81.5785 113.706 81.3778 113.501 81.177L113.995 80.8529C113.766 80.9797 113.537 81.1101 113.311 81.2404C113.346 81.5398 113.378 81.8463 113.417 82.1527C111.962 82.7833 110.712 83.7731 109.331 84.5304C103.564 87.7958 97.2731 90.096 90.8516 91.653C91.2567 90.9203 91.704 90.2123 92.1725 89.5219C92.3698 89.7085 92.567 89.9023 92.7643 90.0996C92.5248 90.2933 92.0422 90.6773 91.8027 90.871C92.2007 90.6526 92.6023 90.4342 93.0038 90.2193C92.9616 89.8459 92.9228 89.4725 92.8911 89.1062C95.3428 86.5629 97.6219 83.8259 99.5276 80.8459C101.5 77.4255 103.335 73.8818 104.547 70.1162C104.776 70.3945 105.002 70.6833 105.231 70.9722C105.544 70.074 105.748 69.1475 105.893 68.2105C105.53 68.908 105.319 69.7006 104.804 70.3135C104.914 68.5205 105.731 66.8861 106.058 65.1354C106.347 64.0962 106.33 62.9619 106.777 61.9862C107.489 62.0848 107.094 63.1099 107.203 63.6383C107.298 62.3385 107.643 61.0668 107.608 59.76C107.464 60.3024 107.777 61.6974 106.83 61.3169C107.376 59.0836 107.309 56.7764 107.647 54.5149C107.978 50.7317 107.457 46.9591 107.15 43.197C107.105 41.8444 106.143 40.2909 107.097 39.0756C108.665 36.7613 109.965 34.2533 111.821 32.1468C113.033 30.7589 114.093 29.1914 115.664 28.1699C115.309 28.8251 114.886 29.4415 114.46 30.0544C114.995 29.5754 115.569 29.1421 116.14 28.7018C116.559 28.1241 116.985 27.5499 117.482 27.0356C116.915 27.3879 116.365 28.0607 115.636 27.8845C120.793 22.569 127.049 18.3279 133.908 15.524C133.784 15.7952 133.675 16.07 133.573 16.3447C133.745 16.3835 134.087 16.461 134.256 16.4962C134.365 16.3553 134.58 16.0664 134.69 15.9255C134.422 15.7353 134.161 15.5381 133.908 15.3408C134.309 15.2492 135.658 14.4813 135.373 15.5134L135.394 15.679C135.87 15.7107 136.239 15.3655 136.641 15.1612L135.841 15.2844C135.87 15.0837 135.929 14.6856 135.961 14.4848C136.289 14.4637 136.947 14.4214 137.275 14.4003L137.268 14.9181C138.001 14.749 138.716 14.506 139.396 14.1819ZM129.688 32.7492C128.166 33.2494 127.01 34.4893 126.158 35.7997C124.027 39.3751 123.195 43.5457 121.174 47.1775C123.227 46.0115 125.376 45.0217 127.447 43.8804C129.152 42.9892 130.945 42.098 132.189 40.5833C133.619 38.8291 133.869 36.233 132.875 34.2145C132.231 33.186 130.931 32.3229 129.688 32.7492ZM103.24 74.6638C102.652 75.6924 104.403 74.7519 103.24 74.6638V74.6638ZM93.7365 90.0502C93.8563 91.2162 94.7475 89.4444 93.7365 90.0502V90.0502Z" fill="white"/>
<path d="M0.637097 63.353C2.71187 62.8317 4.81482 62.2892 6.96357 62.2117C10.9898 62.1976 15.1006 61.9792 19.0036 63.1734C24.46 64.6951 28.8526 68.4818 33.0021 72.1629C34.848 74.0087 36.7959 75.7558 38.846 77.3692C38.6664 77.5418 38.4832 77.7144 38.3036 77.887C37.9865 77.5805 37.666 77.2776 37.3454 76.9852C37.8351 77.7003 38.5149 78.3167 39.4413 77.9715C41.0758 79.3488 42.6574 80.8177 44.4962 81.9308C44.3024 82.114 44.1122 82.2972 43.9185 82.4768C44.8414 83.0721 45.715 83.7379 46.5709 84.4248L46.6308 84.2416C47.6453 85.0377 48.7655 85.6929 49.9772 86.1367C49.1213 85.4745 47.7122 85.2878 47.4516 84.0937C49.0825 84.9109 50.643 85.8655 52.1612 86.88C51.0516 87.2534 51.661 87.4013 52.3127 87.5282C52.2634 87.6831 52.1647 87.9967 52.1189 88.1516C52.6649 87.2428 53.3272 88.2961 53.3765 88.9266C53.3589 88.7575 53.3236 88.4264 53.3096 88.2608C54.0563 88.6307 54.8912 88.8702 55.5393 89.4233L55.1835 89.6734C55.2681 89.7333 55.4336 89.853 55.5182 89.9129C55.5569 89.7967 55.638 89.5571 55.6802 89.4374C55.6274 89.0886 55.5781 88.7399 55.5287 88.3982C56.4552 88.8667 57.6 89.1098 58.2129 90.0362C57.5613 89.8495 56.9272 89.6628 56.2896 89.4655C57.3393 89.9728 58.4207 90.4166 59.4388 90.9978C59.1922 90.7407 59.1076 90.4554 59.1887 90.1348C59.9073 90.0538 60.5554 90.5047 61.2282 90.6984C62.521 91.2444 63.9899 91.417 65.1312 92.2871C64.8635 92.3012 64.3351 92.3258 64.0709 92.3399C65.3496 92.671 66.6423 93.0022 67.833 93.594C68.4248 93.8265 68.9884 94.2985 69.6682 94.154C70.186 94.073 70.732 93.7947 71.2393 94.0977C75.4205 95.7533 79.4432 98.286 81.9759 102.09C83.7548 99.0645 86.682 96.8734 89.8136 95.3904C89.6551 96.2887 88.6793 96.5705 88.0488 97.0777C89.6797 96.1724 91.3107 95.1826 93.1811 94.8621C93.241 94.7634 93.3608 94.5697 93.4206 94.4746C93.1776 94.2844 92.9451 94.0977 92.7126 93.9075C94.4845 93.4848 96.1365 92.6851 97.8872 92.2026C98.8489 92.3223 99.8317 92.4315 100.737 91.9771C99.9796 92.0793 99.2152 92.2519 98.4649 92.0194C108.071 89.0076 117.184 84.1853 124.69 77.4326C126.726 75.8509 128.424 73.903 130.442 72.3002C133.081 69.7393 135.814 67.1292 139.126 65.463C138.964 65.7201 138.643 66.2344 138.481 66.4916C140.08 65.3996 141.912 64.7514 143.687 64.0152C143.839 64.0399 144.145 64.0892 144.297 64.1139C144.399 64.0293 144.603 63.8638 144.702 63.7827C144.438 63.8039 143.909 63.8461 143.645 63.8708C143.652 63.6912 143.666 63.3354 143.677 63.1557C148.411 62.2258 153.276 61.9968 158.098 62.254C159.782 62.5428 161.694 62.4407 163.082 63.5961C161.48 65.1847 159.105 65.8047 157.763 67.6892C157.57 67.4744 157.379 67.256 157.196 67.0411C157.087 67.0974 156.865 67.2172 156.756 67.2736L157.133 67.1679C157.112 67.4427 157.069 67.9957 157.048 68.2705C156.442 68.4712 155.819 68.5593 155.188 68.5523C154.938 68.7354 154.688 68.9186 154.441 69.1053C153.874 70.4086 152.701 71.2822 151.842 72.3742C152.698 71.6169 153.325 70.5883 154.36 70.0423C154.579 69.6513 154.797 69.2603 155.061 68.901L155.343 69.5245C153.388 71.712 151.5 73.9629 149.7 76.2877C149.679 76.0553 149.633 75.5903 149.612 75.3543C149.82 75.0725 150.028 74.7907 150.236 74.5089C148.362 76.6365 147.15 79.2748 145.128 81.2686C144.79 81.7477 144.459 82.2303 144.142 82.7234C145.146 81.6209 146.068 80.4479 146.949 79.2467C147.742 78.1688 148.2 76.6858 149.623 76.2701C144.832 84.2769 137.783 90.9239 129.498 95.2214C129.523 95.0171 129.576 94.6049 129.604 94.3971C129.766 94.2808 130.087 94.0519 130.249 93.9392C129.872 94.1893 129.481 94.4182 129.1 94.6648C128.984 94.7071 128.752 94.7881 128.635 94.8304C128.914 94.9924 129.192 95.1685 129.467 95.3552C127.959 95.7498 126.621 96.6163 125.081 96.9157C125.437 96.493 125.881 96.1548 126.307 95.8096C125.902 95.8484 125.5 95.8871 125.102 95.9294C125.049 96.0914 124.947 96.412 124.894 96.5705C123.95 96.7008 123.045 96.9967 122.143 97.2961C122.33 97.3454 122.7 97.4441 122.887 97.4899C122.848 97.5815 122.774 97.7682 122.739 97.8597C121.615 97.7717 120.481 97.5357 119.361 97.7646C116.24 98.5642 112.935 98.3952 109.762 98.05C109.571 98.1275 109.381 98.2085 109.195 98.293C111.526 98.4938 113.862 98.367 116.194 98.367C116.694 98.2543 117.085 98.6136 117.473 98.8566C114.69 99.0821 111.896 99.0151 109.117 98.8003C108.187 98.6594 107.243 98.4903 106.306 98.6699C106.31 98.4868 106.313 98.1204 106.317 97.9337C107.127 97.9689 107.944 98.0042 108.761 98.0253C107.409 97.8139 106.049 97.6449 104.686 97.504L104.654 97.74C105.041 97.7365 105.816 97.7224 106.204 97.7188C105.975 97.9337 105.742 98.1451 105.51 98.3529C104.422 98.057 103.308 97.8456 102.181 97.7822C102.78 97.3243 103.544 97.3243 104.259 97.2363C103.682 97.2468 103.094 97.2539 102.519 97.275C102.477 97.0953 102.396 96.7361 102.354 96.5564C101.959 96.6973 101.565 96.8417 101.174 96.9861C101.375 97.039 101.78 97.1411 101.98 97.194C101.949 97.2997 101.892 97.511 101.861 97.6167C99.5393 96.9192 97.0982 96.8453 94.7205 96.6762C94.7486 96.5811 94.8015 96.3944 94.8297 96.2993C96.0731 96.2147 97.387 96.4437 98.5565 95.8871C97.5209 96.1231 96.4606 96.1936 95.4038 96.1971C94.0688 96.1901 92.8148 96.6903 91.5326 96.9791C91.7968 97.0143 92.3287 97.0918 92.5929 97.1306C92.5471 97.2151 92.459 97.3877 92.4132 97.4758C89.2147 98.4691 86.2523 100.695 84.8926 103.82C83.6773 106.162 83.7126 108.864 83.3004 111.407C82.6805 113.813 81.7752 116.18 80.3556 118.234C77.9849 121.316 74.6174 123.803 70.7179 124.448C70.0205 124.536 69.2878 124.55 68.6361 124.258C68.1923 123.43 69.2208 122.937 69.8056 122.616C72.5496 121.285 74.8745 119.164 76.6182 116.681C78.3865 113.588 79.7039 109.977 79.0452 106.37C78.4428 104.024 77.4777 101.604 75.498 100.082C72.9759 98.0641 69.7598 96.81 66.5226 96.7607C62.6548 97.1271 58.8787 98.1063 55.0497 98.7228C52.0837 99.2124 49.0684 98.6417 46.0989 99.0327C46.0848 98.8496 46.0531 98.4832 46.0355 98.2965C48.4062 98.5255 50.7945 98.4093 53.1722 98.3353C50.9741 98.1909 48.769 98.3564 46.5745 98.1768C46.0743 97.7576 45.3909 97.7999 44.8061 97.9619C45.0175 98.0464 45.4437 98.2191 45.6586 98.3036C45.1936 98.9236 44.232 98.455 43.6085 98.6875C43.6155 98.5044 43.6261 98.1345 43.6332 97.9513C43.8973 97.969 44.4257 98.0007 44.6899 98.0147C43.8656 97.8492 43.0378 97.7048 42.203 97.5991C41.2801 97.1693 40.1846 97.0108 39.4554 96.257C39.3216 96.3239 39.0609 96.4578 38.9306 96.5247C38.6593 96.0527 38.2049 95.9294 37.6906 96.0104C37.9901 96.2993 38.293 96.5916 38.5783 96.9051C36.5634 96.5247 34.7775 95.4715 32.8965 94.7141C30.3215 93.4108 27.7994 91.9172 25.6048 90.0291C25.4745 89.4514 25.3019 88.8843 25.1469 88.3172C24.6925 88.4792 24.7841 88.9055 24.7946 89.2718C24.6502 89.3035 24.3614 89.3634 24.2169 89.3951C23.7907 88.5285 22.9664 87.9896 22.3007 87.3274C18.9261 84.1359 16.1186 80.4126 13.4345 76.6365C13.6458 76.6435 14.0615 76.6611 14.2693 76.6682C14.6075 77.1578 14.9527 77.6439 15.3049 78.13C14.7131 77.3058 14.2834 76.3899 13.8149 75.4987C13.6846 75.4599 13.4309 75.3754 13.3041 75.3367C13.4098 75.7312 13.5859 76.1292 13.4908 76.5519C11.5464 73.9453 9.5632 71.3315 7.11152 69.1793C5.26923 67.5096 3.34593 65.8293 1.01048 64.8959C0.996395 64.6845 0.968213 64.2653 0.954123 64.054C2.96549 65.065 4.94163 66.2203 6.51621 67.8548C5.08958 65.9843 2.89856 65.0473 0.975257 63.8039C0.686409 64.0822 0.390517 64.3534 0.0840565 64.6105C-0.12025 64.1209 0.0417887 63.4164 0.637097 63.353Z" fill="white"/>
</svg>
