<svg width="1464" height="1586" viewBox="0 0 1464 1586" fill="none" xmlns="http://www.w3.org/2000/svg" xmlns:xlink="http://www.w3.org/1999/xlink">
<g filter="url(#filter0_df_543_682)">
<rect width="1424" height="1546" transform="translate(20 20)" fill="url(#pattern0_543_682)"/>
</g>
<defs>
<filter id="filter0_df_543_682" x="0" y="0" width="1464" height="1586" filterUnits="userSpaceOnUse" color-interpolation-filters="sRGB">
<feFlood flood-opacity="0" result="BackgroundImageFix"/>
<feColorMatrix in="SourceAlpha" type="matrix" values="0 0 0 0 0 0 0 0 0 0 0 0 0 0 0 0 0 0 127 0" result="hardAlpha"/>
<feOffset dy="4"/>
<feGaussianBlur stdDeviation="2"/>
<feComposite in2="hardAlpha" operator="out"/>
<feColorMatrix type="matrix" values="0 0 0 0 0 0 0 0 0 0 0 0 0 0 0 0 0 0 0.25 0"/>
<feBlend mode="normal" in2="BackgroundImageFix" result="effect1_dropShadow_543_682"/>
<feBlend mode="normal" in="SourceGraphic" in2="effect1_dropShadow_543_682" result="shape"/>
<feGaussianBlur stdDeviation="10" result="effect2_foregroundBlur_543_682"/>
</filter>
<pattern id="pattern0_543_682" patternUnits="userSpaceOnUse" viewBox="-32791.1 640.311 223 252" width="15.330180806222927%" height="15.95671375849577%" x="589.985" y="694.735" patternContentUnits="objectBoundingBox">
<g id="pattern0_543_682_inner">
<path d="M-32854.8 565.503C-32847.2 565.902 -32839.1 566.284 -32830.7 566.686C-32826.6 566.888 -32822.4 567.094 -32818.2 567.328C-32816.1 567.445 -32814 567.566 -32811.9 567.713C-32811.5 567.746 -32810.9 567.787 -32810.4 567.826C-32809.9 567.866 -32809.5 567.903 -32809 567.95C-32808.7 567.973 -32808.5 567.995 -32808.3 568.016C-32808.1 568.036 -32807.8 568.067 -32807.7 568.088C-32807.5 568.109 -32807.4 568.133 -32807.4 568.139C-32807.4 568.14 -32807.5 568.134 -32807.6 568.097C-32807.7 568.087 -32808 568.047 -32808.6 567.819C-32809 567.695 -32809.4 567.534 -32810.2 567.124C-32810.9 566.68 -32812 566.105 -32813.5 564.143C-32812.7 565.28 -32812.2 566.168 -32811.8 566.975C-32811.6 567.313 -32811.5 567.658 -32811.5 567.736C-32811.5 567.834 -32811.6 567.655 -32811.7 566.912C-32811.7 566.075 -32811.5 564.21 -32810.3 562.541C-32809.1 560.935 -32807.8 560.344 -32807.3 560.157C-32806.8 559.953 -32806.8 559.991 -32806.9 559.982C-32807.1 559.982 -32807.5 559.981 -32807.9 559.952C-32811.7 559.69 -32817.4 558.126 -32822.3 556.572C-32822.6 556.467 -32822.9 556.36 -32823.3 556.252C-32833 553.093 -32843 549.104 -32855.6 544.439C-32857.3 543.837 -32858.9 543.242 -32860.7 542.628C-32864.5 541.32 -32868.4 539.924 -32873.6 538.721C-32886.8 535.569 -32902.9 532.852 -32920.9 528.175C-32923.2 527.569 -32925.4 526.937 -32927.6 526.273C-32944 521.519 -32960.2 518.421 -32978 520.051C-32980.9 520.425 -32985.7 521.368 -32990.2 525.845C-32994.8 530.4 -32996 536.266 -32996.1 539.442C-32996.1 546.031 -32994.8 548.617 -32994 551.151C-32990.9 560.252 -32985.8 568.781 -32979.3 575.645C-32969.7 584.545 -32962.9 585.576 -32956.5 587.683C-32950.1 589.429 -32944.4 590.41 -32939 591.167C-32928.2 592.634 -32918.7 593.111 -32910.3 593.336C-32893.4 593.725 -32881 592.969 -32873.8 592.507C-32867.6 592.099 -32861.5 591.583 -32855.2 590.928C-32852.8 590.62 -32849.3 590.587 -32843.8 588.871C-32838.2 587.24 -32832.1 582.692 -32829 578.67C-32824.1 572.783 -32820.4 566.106 -32817.6 559.598C-32816.3 556.364 -32815.1 553.133 -32814.1 550.332C-32813.6 548.947 -32813.1 547.65 -32812.8 546.832C-32812.6 546.427 -32812.5 546.147 -32812.5 546.215C-32812.6 546.298 -32812.7 546.702 -32813.9 548.223C-32819.6 553.992 -32823.4 553.22 -32825.6 553.229C-32826.8 553.091 -32828 552.872 -32829.7 552.063C-32831.3 551.151 -32834.3 549.973 -32837 544.177C-32837.4 543.597 -32837.7 541.309 -32837.3 539.932C-32837 538.526 -32836.6 538.436 -32837.1 538.93C-32838 539.997 -32841.3 542.358 -32845 544.265C-32852.5 548.144 -32863.6 551.946 -32872.5 553.599C-32874.1 553.872 -32876.3 554.07 -32878.5 554.173C-32883.2 554.385 -32888.5 554.232 -32893.9 553.841C-32898.4 553.525 -32902.1 552.47 -32902.1 551.695C-32902.1 550.91 -32898.5 550.706 -32894.1 551.033C-32888.8 551.428 -32883.7 551.592 -32879.3 551.431C-32879.3 551.43 -32879.3 551.43 -32879.2 551.429C-32876.8 551.342 -32874.6 551.143 -32873 550.88C-32864.5 549.325 -32853.3 545.519 -32846.2 541.82C-32842.6 540.018 -32839.6 537.753 -32839.1 537.138C-32838.8 536.875 -32839.4 537.339 -32839.9 539.316C-32840.5 541.263 -32840 544.228 -32839.5 545.22C-32836.3 551.96 -32832.8 553.373 -32830.9 554.464C-32828.8 555.435 -32827.4 555.712 -32825.9 555.88C-32823.1 555.889 -32818.5 556.725 -32811.9 549.967C-32810.4 548.138 -32810.3 547.582 -32810.2 547.392C-32810.1 547.221 -32810.2 547.445 -32810.3 547.811C-32810.7 548.554 -32811.1 549.841 -32811.6 551.228C-32812.6 554.037 -32813.8 557.344 -32815.2 560.658C-32818.1 567.332 -32821.9 574.234 -32827 580.321C-32830.3 584.627 -32837 589.591 -32843 591.338C-32849 593.179 -32852.6 593.187 -32854.9 593.495C-32860.4 594.061 -32865.8 594.519 -32871.2 594.894C-32878.6 595.394 -32891.4 596.208 -32908.7 595.846C-32917.4 595.634 -32927.2 595.165 -32938.4 593.676C-32944 592.904 -32949.9 591.919 -32956.6 590.113C-32963.2 587.904 -32970.4 587.026 -32980.9 577.275C-32987.7 570.147 -32993 561.313 -32996.2 551.935C-32996.9 549.285 -32998.4 546.587 -32998.3 539.353C-32998.2 535.869 -32997 529.336 -32991.8 524.256C-32986.7 519.263 -32981.4 518.233 -32978.3 517.823C-32960 516.18 -32943.6 519.378 -32927.1 524.211C-32924.3 525.051 -32921.5 525.841 -32918.7 526.596C-32901.6 530.954 -32886.1 533.692 -32873.3 536.779C-32866.7 538.323 -32862.1 540.096 -32857.5 541.694C-32855.9 542.299 -32854.2 542.909 -32852.7 543.491C-32852.7 543.505 -32852.6 543.519 -32852.6 543.533C-32839.9 548.303 -32830.4 552.096 -32821.2 555.031C-32821 555.092 -32820.8 555.151 -32820.6 555.213C-32815.9 556.712 -32810.3 558.132 -32807.5 558.258C-32807.2 558.276 -32807 558.27 -32807.1 558.3C-32807.2 558.317 -32807.3 558.347 -32807.5 558.415C-32807.7 558.493 -32808.1 558.626 -32808.6 558.877C-32809.5 559.326 -32811.4 560.745 -32812.5 562.894C-32813.5 565.068 -32813.4 566.752 -32813.3 567.427C-32813.3 567.791 -32813.2 568.029 -32813.2 568.159C-32813.1 568.278 -32813.1 568.297 -32813.1 568.275C-32813.1 568.252 -32813.1 568.167 -32813.2 568.047C-32813.2 567.945 -32813.3 567.812 -32813.3 567.652C-32813.7 566.93 -32814.1 566.15 -32814.8 565.096C-32813.1 567.401 -32811.8 568.063 -32810.9 568.579C-32810.1 569.054 -32809.5 569.241 -32809.1 569.384C-32808.4 569.65 -32808 569.693 -32808 569.708C-32807.7 569.754 -32807.7 569.764 -32807.6 569.766C-32807.6 569.764 -32807.7 569.74 -32807.9 569.719C-32808 569.698 -32808.3 569.667 -32808.5 569.647C-32808.7 569.625 -32808.9 569.602 -32809.1 569.579C-32809.6 569.53 -32810.1 569.492 -32810.6 569.45C-32811.1 569.408 -32811.6 569.367 -32812.1 569.331C-32814.2 569.175 -32816.2 569.048 -32818.4 568.922C-32822.6 568.672 -32826.8 568.451 -32831 568.234C-32839.3 567.803 -32847.5 567.393 -32855 566.967C-32860 566.689 -32863.9 566.146 -32863.8 565.752C-32863.7 565.36 -32859.8 565.247 -32854.8 565.503ZM-32969.1 534.767C-32967.4 531.187 -32963.1 527.072 -32958.2 522.547C-32946.4 511.854 -32920.7 513.268 -32900.7 517.018C-32899.5 517.233 -32898.5 517.549 -32897.6 517.974C-32883.3 525.568 -32883.5 551.659 -32881.4 565.755C-32880.1 572.753 -32877 576.501 -32874.9 579.389C-32870.6 584.704 -32865.4 588.827 -32859.6 592.472C-32847.6 600.092 -32833.5 593.145 -32827 590.349C-32826.7 590.241 -32826.4 590.172 -32826.5 590.183C-32822.8 589.53 -32817.9 585.769 -32816.5 581.804C-32814.8 577.927 -32814.9 574.931 -32815 572.372C-32817.2 554.556 -32825.4 541.957 -32831 527.179C-32831.2 526.7 -32831.4 526.236 -32831.5 525.809C-32833.1 521.519 -32834.7 516.81 -32837.2 512.114C-32838.5 509.281 -32843.1 503.158 -32848.9 501.737C-32854.4 500.187 -32858.2 500.839 -32861.6 501.355C-32895.1 508.132 -32915 526.517 -32928.4 543.393C-32935.7 553.065 -32936.3 564.274 -32936 571.994C-32935.8 576.079 -32935.3 579.698 -32935 582.835C-32934.8 585.613 -32934.2 588.303 -32933.4 590.8C-32933.4 590.811 -32933.4 590.823 -32933.4 590.834C-32930.1 600.211 -32924.1 606.119 -32919 610.477C-32909.5 618.608 -32898.5 621.971 -32888.7 622.726C-32884 623.095 -32879.5 622.889 -32875.2 622.285C-32868.4 621.562 -32862.2 616.011 -32859.8 611.708C-32857.1 607.292 -32855.8 603.454 -32854.6 600.009C-32852.4 593.253 -32849.8 587.203 -32848 586.221C-32849 587.117 -32850.1 587.449 -32850.4 587.531C-32850.8 587.62 -32850.7 587.594 -32850.4 587.658C-32849.7 587.768 -32848.3 588.135 -32846.3 588.718C-32846.2 588.724 -32846.2 588.731 -32846.2 588.738C-32845.4 589.018 -32845.6 589.013 -32845.1 589.415C-32844.6 589.818 -32843.7 590.807 -32842.8 592.118C-32841.6 593.686 -32840.4 595.479 -32839.9 596.712C-32839.6 597.278 -32839.5 597.81 -32839.7 597.167C-32839.7 596.832 -32839.8 596.079 -32839.5 594.67C-32839.2 593.288 -32838 591.338 -32836.7 590.382C-32848.1 602.828 -32873.1 579.807 -32887.6 565.129C-32888.8 563.975 -32890.1 562.756 -32891.6 561.452C-32892.1 560.979 -32892.8 560.42 -32893.4 559.927C-32896.1 557.654 -32899.5 556.7 -32901.2 556.372C-32902.1 556.195 -32902.7 556.099 -32902.7 556.102C-32902.8 556.118 -32902.1 556.234 -32901 557.073C-32899.6 558.112 -32899.1 559.54 -32899.1 560.053C-32899.1 560.616 -32899.2 560.529 -32899.1 560.154C-32898.5 555.557 -32891.4 547.333 -32882.5 539.684C-32877 534.581 -32866.3 531.463 -32853.6 530.623C-32849.4 530.331 -32845.3 530.252 -32841.2 530.3C-32833.6 530.215 -32826.7 534.815 -32819.6 540.857C-32809.9 548.996 -32805.3 562.024 -32802.7 574.289C-32801.4 580.615 -32800.6 586.865 -32800 593.033C-32799.9 593.639 -32799.8 594.246 -32799.7 594.855C-32799.2 597.046 -32798.4 599.283 -32796.6 601.556C-32795 603.655 -32791.2 606.756 -32785.9 605.837C-32777.1 603.897 -32774.4 597.085 -32772.9 593.215C-32771.3 588.916 -32770.7 585.047 -32770.2 581.31C-32769.6 572.414 -32771.8 566.637 -32773.7 560.726C-32780.4 542.712 -32789.5 528.48 -32799.1 516.102C-32799.6 515.364 -32800.2 514.666 -32800.9 514.015C-32801.7 513.274 -32802.7 512.55 -32803.8 511.93C-32806.1 510.526 -32810 510.034 -32812.7 510.971C-32818.1 512.946 -32819.6 515.686 -32821.3 517.744C-32824.4 522.052 -32826.2 525.951 -32827.9 529.754C-32831.3 537.316 -32833.8 544.35 -32836.3 550.904C-32841.2 563.964 -32845.6 575.466 -32850.6 583.888C-32857.3 595.068 -32865.8 601.879 -32873.7 606.24C-32893.4 616.376 -32907.1 615.525 -32916 615.624C-32918.7 615.548 -32921.1 615.374 -32923.3 615.148C-32923.3 615.146 -32923.3 615.144 -32923.4 615.142C-32938.8 613.323 -32952.6 603.066 -32966.6 590.065C-32968.7 588.112 -32970.7 585.984 -32972.6 583.669C-32975.6 579.98 -32978.4 575.805 -32980.9 571.135C-32986.6 560.412 -32989.5 550.376 -32991.4 541.858C-32992 538.967 -32992 536.306 -32991.5 533.772C-32990.9 530.266 -32989.5 527.059 -32987.7 524.106C-32987.7 524.051 -32987.6 523.997 -32987.6 523.942C-32987.4 523.53 -32987.1 523.123 -32986.9 522.72C-32986.7 522.416 -32986.5 522.112 -32986.3 521.81C-32986.2 521.688 -32986.1 521.58 -32986.1 521.499C-32986 521.435 -32986 521.385 -32986 521.353C-32986 521.347 -32986 521.341 -32985.9 521.335C-32985.6 520.753 -32985.2 520.264 -32985.1 520.164C-32985 519.989 -32984.9 519.835 -32984.8 519.756C-32984.5 519.34 -32984.1 518.81 -32983.8 518.461C-32983.1 517.563 -32981.8 516.002 -32979.5 513.703C-32979.3 513.49 -32979.1 513.279 -32978.9 513.07C-32977.1 511.34 -32975.4 509.719 -32973.4 508.313C-32973.3 508.216 -32973.1 508.12 -32973 508.029C-32972.2 507.487 -32971.3 507.016 -32970.5 506.651C-32969.7 506.277 -32968.2 505.969 -32965.9 506.231C-32962.4 506.598 -32958.7 508.369 -32958.3 508.897C-32957.9 509.49 -32961 508.505 -32964.4 507.835C-32967.6 507.231 -32969.3 507.605 -32970 507.951C-32970.2 508.056 -32970.5 508.173 -32970.7 508.3C-32970.8 508.36 -32970.9 508.423 -32971.1 508.488C-32973 509.561 -32975.2 511.402 -32977.6 513.758C-32977.7 513.862 -32977.8 513.968 -32977.9 514.076C-32978.6 514.79 -32979.3 515.528 -32980 516.224C-32981.3 517.681 -32982.8 519.372 -32984.3 521.444C-32984.6 521.859 -32984.9 522.289 -32985.1 522.731C-32987 525.556 -32988.9 528.945 -32989.8 532.573C-32990.5 535.439 -32990.7 538.368 -32990 541.562C-32987.9 550.702 -32984.8 561.305 -32978.6 572.222C-32976.2 576.52 -32973.4 580.404 -32970.4 583.87C-32968.9 585.67 -32967.2 587.359 -32965.6 588.937C-32952 601.557 -32937.9 611.898 -32923.2 613.502C-32921.9 613.637 -32920.4 613.745 -32919 613.818C-32916.1 613.97 -32913.3 614.009 -32910.3 613.92C-32901.7 613.331 -32890.1 613.424 -32872.7 603.759C-32865.7 599.582 -32858.2 593.257 -32852 583.014C-32847.3 574.965 -32842.9 563.606 -32838.1 550.561C-32835.6 544.001 -32833 536.946 -32829.6 529.25C-32827.9 525.376 -32826.1 521.375 -32822.8 516.835C-32821 514.625 -32819.5 511.677 -32813.4 509.321C-32810.3 508.179 -32805.7 508.685 -32803 510.3C-32801.7 511.027 -32800.6 511.834 -32799.7 512.679C-32799 513.412 -32798.3 514.188 -32797.6 514.998C-32788.1 527.267 -32779.1 541.32 -32772.3 559.226C-32770.2 565.542 -32767.7 571.504 -32768.4 581.528C-32768.8 585.397 -32769.5 589.403 -32771.1 593.952C-32772.8 598.007 -32775.7 605.524 -32785.5 607.703C-32792.9 608.839 -32797.1 604.247 -32798.9 601.647C-32800.8 598.724 -32801.6 595.943 -32801.9 593.231C-32801.9 593.2 -32801.9 593.17 -32801.9 593.14C-32802.5 586.814 -32803.4 580.569 -32804.7 574.404C-32807.2 562.335 -32811.9 549.874 -32820.9 542.359C-32828 536.342 -32834.4 532.198 -32841.3 532.313C-32844.7 532.278 -32848.1 532.334 -32851.5 532.527C-32865 533.2 -32876 536.416 -32881.2 541.279C-32890 548.834 -32896.8 557.11 -32897.1 560.652C-32897.1 560.814 -32896.9 560.624 -32897 559.664C-32897.1 558.765 -32897.8 556.774 -32899.7 555.354C-32900.8 554.546 -32901.6 554.233 -32902 554.107C-32902.3 553.984 -32902.2 554.01 -32901.9 554.067C-32901.1 554.205 -32899.3 554.46 -32897 555.368C-32895.4 555.986 -32893.6 556.978 -32892 558.273C-32891.9 558.357 -32891.8 558.442 -32891.7 558.526C-32890.8 559.305 -32889.9 560.033 -32889.1 560.742C-32873.2 576.721 -32847.6 600.446 -32838.1 588.681C-32839.7 589.89 -32841.2 592.299 -32841.6 594.072C-32842 595.872 -32841.9 596.919 -32841.8 597.455C-32841.7 598 -32841.7 598.129 -32841.7 598.116C-32841.7 598.097 -32841.7 597.923 -32841.8 597.689C-32842.3 596.699 -32843.4 594.981 -32844.5 593.497C-32845.4 592.276 -32846.2 591.407 -32846.5 591.181C-32846.6 591.058 -32846.6 591.073 -32846.5 591.07C-32846.5 591.069 -32846.5 591.027 -32846.7 590.935C-32848.3 590.497 -32849.4 590.202 -32850.1 590.043C-32850.6 589.897 -32850.9 589.905 -32850.5 589.846C-32850.1 589.786 -32848.3 589.514 -32846.5 587.948C-32847.5 588.121 -32850.2 593.911 -32852.4 600.71C-32853.7 604.182 -32854.9 608.124 -32857.8 612.858C-32860.4 617.448 -32867.2 623.729 -32874.9 624.533C-32880.2 625.283 -32885.9 625.46 -32891.8 624.699C-32900.9 623.507 -32911.1 620.233 -32920.5 612.21C-32925.1 608.233 -32930.8 602.937 -32934.6 593.998C-32936 590.726 -32937 586.981 -32937.3 583.03C-32937.6 580.157 -32938 576.754 -32938.2 572.822C-32938.7 564.814 -32938.2 552.606 -32930.3 541.996C-32916.5 524.59 -32896.3 505.985 -32862.1 498.998C-32858.5 498.462 -32854.3 497.711 -32848.2 499.442C-32841.7 501.025 -32836.4 508.067 -32835.1 510.962C-32832.5 515.87 -32830.8 520.698 -32829.3 524.974C-32829 525.666 -32828.7 526.455 -32828.4 527.24C-32822.9 541.593 -32815.1 553.334 -32812.6 572.062C-32812.4 574.803 -32812.3 578.068 -32814.1 582.568C-32815.7 587.169 -32821.6 591.824 -32825.9 592.565C-32825.7 592.51 -32825.9 592.581 -32826.3 592.714C-32832.2 595.096 -32846.9 603.128 -32860.9 594.602C-32868.1 590.035 -32874.7 584.891 -32880 576.524C-32881.4 574.141 -32883.1 571.013 -32883.9 566.18C-32885 558.642 -32885.4 549.927 -32887.4 540.642C-32889.2 531.495 -32893.3 521.853 -32899.2 520.043C-32899.8 519.826 -32900.4 519.655 -32901.1 519.523C-32921.8 515.462 -32947.1 515.276 -32956.4 524.495C-32960.2 527.963 -32963.3 530.973 -32965.2 533.558C-32966.2 534.916 -32966.9 536.168 -32967.3 537.216C-32967.5 537.857 -32967.6 538.425 -32967.6 538.983C-32968.4 544.251 -32969.3 549.276 -32969.7 553.662C-32969.9 555.836 -32969.9 557.858 -32969.8 559.32C-32969.7 560.788 -32969.2 561.534 -32969.4 560.812C-32965.6 567.113 -32960.6 572.308 -32959.5 571.826C-32959.5 571.794 -32959.6 571.767 -32959.6 571.745C-32959.8 571.543 -32959.5 571.457 -32960.1 571.239C-32960.5 571.172 -32960.9 570.908 -32963 571.235C-32964.1 571.489 -32965.9 571.731 -32968.7 574.061C-32971.7 576.308 -32973.5 581.733 -32973.2 584.409C-32974.5 579.28 -32979.1 564.873 -32978 550.822C-32977.3 536.413 -32971.8 521.859 -32964.1 509.568C-32959.5 499.746 -32941.3 485.96 -32927.1 486.214C-32906.4 485.159 -32887.6 481.955 -32859.5 494.328C-32847.7 501.108 -32826.6 511.913 -32820.6 536.528C-32817.4 549.701 -32815.7 568.002 -32825.8 584.442C-32837.9 602.095 -32843.3 616.43 -32866.8 634.419C-32870.5 636.634 -32876.2 638.458 -32881.3 638.455C-32883.8 638.5 -32886 638.216 -32887.7 637.925C-32887.7 637.924 -32887.8 637.911 -32887.9 637.893C-32888.8 637.708 -32891.6 637.583 -32895.8 636.041C-32900 634.699 -32906.4 630.041 -32909.1 624.568C-32922.2 592.417 -32922.3 573.575 -32932 558.466C-32940.2 544.183 -32957.6 532.649 -32964 532.708C-32968.7 532.275 -32971.1 531.943 -32972.5 531.96C-32972.8 531.958 -32972.9 531.978 -32972.8 531.963C-32972.6 531.933 -32972.1 531.929 -32970.8 531.478C-32969.5 531.003 -32966.8 530.005 -32964.1 526.527C-32961.2 523.045 -32960.5 518.218 -32960.7 516.06C-32960.2 537.873 -32959 549.705 -32957.1 557.032C-32956.9 557.966 -32956.7 558.801 -32956.5 559.538C-32956.3 560.195 -32956.1 560.783 -32956 561.292C-32953.6 568.96 -32950.4 573.958 -32946.9 576.662C-32946.7 576.814 -32946.6 576.958 -32946.4 577.098C-32945.8 577.51 -32945.2 577.874 -32944.6 578.211C-32943.8 578.638 -32942.8 578.925 -32942.4 578.931C-32942.3 578.945 -32942.3 578.881 -32942.8 578.924C-32943.3 578.976 -32944.5 579.153 -32946 580.058C-32944.2 578.949 -32942 577.383 -32939.5 575.552C-32928 566.817 -32915.9 557.442 -32904.6 549.537C-32881.5 533.279 -32862 518.792 -32841.7 506.012C-32838.9 504.257 -32836 502.53 -32832.7 500.797C-32831 499.933 -32829.2 499.054 -32827.1 498.153C-32824.8 497.287 -32822.9 496.212 -32817.3 495.475C-32817.2 495.467 -32817.2 495.46 -32817.1 495.453C-32816.3 495.378 -32815.5 495.331 -32814.5 495.336C-32806.2 494.545 -32792.8 501.699 -32788.8 509.156C-32777.9 525.212 -32761.7 547.98 -32765.2 575.692C-32765.4 577.672 -32765.8 579.611 -32766.2 581.516C-32769.9 600.047 -32778.5 619.41 -32794.9 630.739C-32803 635.857 -32814.9 643.547 -32832.8 635.72C-32836.6 633.814 -32845 631.246 -32852.7 626.877C-32860.5 622.67 -32869.3 614.878 -32873.5 605.112C-32873.6 604.941 -32873.7 604.77 -32873.8 604.6C-32879.4 592.105 -32882.8 581.266 -32886.2 570.702C-32888.5 563.338 -32890.6 556.394 -32892.8 550.829C-32893.8 548.068 -32895 545.65 -32895.8 544.321C-32896.2 543.67 -32896.5 543.315 -32896.4 543.455C-32896.3 543.569 -32895.8 544.276 -32894.3 545.047C-32898.5 542.96 -32902.4 541.092 -32906.4 539.357C-32907.8 538.742 -32909.1 538.16 -32910.5 537.586C-32910.9 537.419 -32911.3 537.252 -32911.8 537.085C-32927.9 530.49 -32945.4 526.256 -32957.1 528.678C-32959.8 529.214 -32961.7 529.402 -32962.1 528.693C-32962.5 527.999 -32960.9 526.518 -32957.9 525.891C-32945.2 523.225 -32927.4 527.561 -32910.6 534.401C-32910.6 534.401 -32910.6 534.401 -32910.6 534.401C-32909.2 534.969 -32907.8 535.568 -32906.4 536.17C-32902 538.082 -32897.6 540.135 -32893 542.449C-32894 541.903 -32894.3 541.451 -32894.3 541.508C-32894.2 541.543 -32893.8 542.016 -32893.4 542.745C-32892.4 544.244 -32891.3 546.688 -32890.2 549.465C-32888 555.065 -32885.9 561.894 -32883.6 569.121C-32880.4 579.27 -32877.2 589.368 -32872 601.421C-32871.6 602.247 -32871.3 603.082 -32870.9 603.928C-32867.3 612.157 -32860.1 619.233 -32853 623.369C-32845 628.239 -32836.1 630.863 -32831.5 633.136C-32815.3 640.227 -32804.2 633.252 -32796.6 628.359C-32781 617.588 -32772.7 599.035 -32769 580.918C-32768.6 579.249 -32768.3 577.566 -32768.1 575.836C-32764.5 549.402 -32780 527.125 -32791.2 510.748C-32794.8 504.223 -32806 497.798 -32813.8 498.231C-32814 498.224 -32814.3 498.219 -32814.5 498.218C-32820.9 498.441 -32822.7 499.646 -32825.1 500.429C-32827.2 501.294 -32828.9 502.097 -32830.6 502.956C-32833.8 504.617 -32836.6 506.297 -32839.5 508.016C-32859.8 520.755 -32879.6 535.429 -32903 551.879C-32914.1 559.721 -32926.1 568.926 -32937.6 577.696C-32940.2 579.608 -32942.5 581.276 -32944.5 582.494C-32943.4 581.862 -32942.7 581.776 -32942.5 581.76C-32942.3 581.752 -32942.5 581.798 -32942.8 581.756C-32943.6 581.687 -32944.9 581.287 -32946 580.693C-32946.5 580.428 -32946.9 580.148 -32947.4 579.845C-32947.7 579.677 -32947.9 579.504 -32948.1 579.323C-32952.2 576.373 -32956 570.88 -32958.6 562.432C-32958.9 561.31 -32959.3 559.848 -32959.8 558.02C-32961.7 550.463 -32963.1 538.03 -32963.5 516.217C-32963.4 517.941 -32964 521.93 -32966.3 524.8C-32968.6 527.666 -32970.8 528.455 -32971.7 528.82C-32972.7 529.165 -32973 529.147 -32973.1 529.16C-32973.1 529.16 -32972.8 529.139 -32972.5 529.142C-32970.8 529.13 -32968.3 529.488 -32963.8 529.901C-32955.7 530.175 -32938.3 542.066 -32929.6 557.034C-32919.6 572.671 -32919.3 592.372 -32906.6 623.266C-32904.2 628.316 -32898.3 632.457 -32894.5 633.591C-32890.6 634.912 -32888.1 635.018 -32887.3 635.181C-32887.3 635.188 -32887.3 635.194 -32887.2 635.198C-32886.9 635.259 -32886.5 635.319 -32886.1 635.375C-32881.3 636.395 -32872.7 634.952 -32868.2 632.018C-32852.7 621.112 -32849.6 613.516 -32843.1 605.337C-32837.5 597.355 -32832.7 589.91 -32828.3 582.883C-32817.9 565.028 -32821.2 548.439 -32823.7 537.282C-32830.6 512.74 -32848.7 505.106 -32858.4 499.329C-32859.4 498.761 -32860.4 498.212 -32861.4 497.691C-32890 486.092 -32905.3 489.939 -32920.3 489.834C-32922.5 489.96 -32924.7 490.112 -32926.8 490.282C-32927.5 490.342 -32928.2 490.412 -32929 490.5C-32944 491.454 -32956.7 503.663 -32961 511.595C-32961.1 511.693 -32961.1 511.792 -32961.2 511.89C-32977.5 535.486 -32976.4 565.384 -32970.2 583.387C-32970.2 583.708 -32970.1 584.028 -32970.1 584.282C-32970.3 582.244 -32968.8 577.983 -32966.5 576.305C-32964.4 574.563 -32963 574.427 -32962.2 574.257C-32960.7 574.056 -32960.6 574.251 -32960.5 574.284C-32960.3 574.415 -32960.8 574.355 -32960.8 574.438C-32963.1 574.075 -32968.1 568.305 -32971.8 562.15C-32972.3 562.256 -32972.9 557.437 -32972.3 553.118C-32971.9 548.622 -32971 543.774 -32970.3 538.927C-32970.3 538.896 -32970.3 538.866 -32970.3 538.835C-32970.3 538.724 -32970.3 538.613 -32970.3 538.502C-32970.1 537.289 -32969.8 536.068 -32969.1 534.767ZM-32908.8 538.956C-32904.9 541.92 -32902 544.571 -32902.3 544.808C-32902.5 545.055 -32905.8 542.802 -32909.7 539.848C-32918.8 532.821 -32928.1 525.965 -32937.6 519.805C-32941.6 517.238 -32944.7 515.09 -32944.5 514.797C-32944.2 514.5 -32940.7 516.206 -32936.7 518.801C-32927.2 525.006 -32917.9 531.906 -32908.8 538.956ZM-32985.8 549.85C-32985.1 544.873 -32983.7 540.342 -32982.8 539.409C-32981.9 538.491 -32981.8 541.525 -32982.6 546.3C-32982.9 548.839 -32983.7 552.968 -32983.7 558.939C-32983.5 561.479 -32983.3 564.517 -32981.6 567.587C-32978.1 572.95 -32974.4 580.435 -32966 584.91C-32964.8 585.46 -32963.6 585.826 -32962.2 585.999C-32961.5 586.078 -32960.9 586.121 -32960.1 585.975C-32959.7 585.893 -32959.2 585.774 -32958.8 585.413C-32958.3 585.063 -32958 584.324 -32958.1 583.8C-32962.2 565.794 -32965 541.168 -32949.8 519.043C-32945.3 510.999 -32936.3 503.813 -32925.8 503.317C-32907.6 501.932 -32887.8 500.051 -32867.6 508.678C-32855.6 515.15 -32840.1 523.335 -32835.8 540.202C-32832.9 551.357 -32831.6 564.948 -32838.6 576.576C-32840.1 579.023 -32841.6 581.461 -32843.1 583.889C-32848.6 592.68 -32853.7 600.436 -32859.2 607.58C-32863.5 612.803 -32866.9 617.831 -32873.7 622.345C-32876.9 624.454 -32882 625.144 -32885.4 624.458C-32886.5 624.295 -32888.3 624.23 -32890.6 623.556C-32892.8 622.966 -32895.8 621.014 -32897.2 618.276C-32907.2 599.024 -32907.7 576.804 -32921.9 552.434C-32926.4 545.057 -32933 537.514 -32941.4 531.042C-32948.1 525.868 -32956.1 521.665 -32963.1 521.08C-32966.7 520.754 -32969.6 520.316 -32972.2 520.278C-32973.4 520.241 -32974.6 520.394 -32974.7 520.45C-32974.7 520.446 -32974.2 520.405 -32973.4 519.511C-32972.6 518.604 -32972.3 517.085 -32972.4 516.709C-32971.7 544.592 -32971.2 576.427 -32950.7 588.952C-32946.7 591.439 -32940.9 592.012 -32939.4 590.811C-32926 581.917 -32911.7 569.964 -32897.2 560.085C-32870.2 542.706 -32850.6 522.403 -32814.6 509.066C-32809.6 508.781 -32802.9 512.29 -32800.4 516.8C-32789.4 533.259 -32774.6 554.478 -32780.2 578.544C-32783.4 592.994 -32789.3 608.965 -32803.3 618.675C-32808.9 622.311 -32816.6 626.706 -32826.1 622.463C-32835.8 617.445 -32852.4 614.276 -32859.4 598.831C-32870.7 575.569 -32873.2 543.522 -32886.9 530.495C-32893 527.377 -32899.1 524.409 -32905.3 521.792C-32927.6 512.563 -32954.4 505.101 -32973.8 517.313C-32977.4 519.655 -32979.8 523.561 -32979.8 527.328C-32979.9 537.363 -32979.9 550.366 -32975.1 551.41C-32941.5 562.822 -32904.3 570.944 -32870 567.436C-32859.9 565.391 -32849.3 561.753 -32839.9 557.044C-32830.8 552.584 -32821.4 544.713 -32824.7 538.974C-32824.2 540.08 -32823.8 540.079 -32823.9 540.105C-32823.9 540.102 -32824.1 540.032 -32824.3 540.019C-32824.4 539.998 -32824.6 540.029 -32824.6 540.03C-32824.6 540.029 -32824.3 539.958 -32823.9 539.535C-32824.1 539.622 -32825 541.579 -32825.5 543.254C-32826.2 545.02 -32826.8 546.939 -32827.5 548.874C-32828.9 552.748 -32830.5 556.725 -32832.5 560.553C-32834.3 564.023 -32836.5 567.383 -32839 570.487C-32841 573.086 -32844.3 575.567 -32847.7 576.624C-32851.1 577.721 -32854 577.875 -32856.5 578.173C-32894.2 580.161 -32931.8 588.444 -32970.7 567.183C-32976.3 561.46 -32980.4 554.482 -32983.1 547.12C-32983.7 545.154 -32984.6 543.127 -32984.5 539.804C-32984.5 538.189 -32983.9 535.712 -32982 533.893C-32980.1 532.091 -32978.1 531.611 -32976.6 531.414C-32960.5 529.668 -32945.1 532.336 -32930.2 536.25C-32916.2 540.054 -32901.5 542.278 -32886.7 545.002C-32883 545.672 -32879.2 546.393 -32875.2 547.186C-32861.8 550.247 -32848.6 555.646 -32834.3 560.303C-32827.2 562.624 -32819.9 564.999 -32812.6 566.319C-32810.8 566.628 -32809 566.859 -32807.4 566.869C-32806.6 566.874 -32805.9 566.814 -32805.3 566.696C-32804.8 566.587 -32804.6 566.38 -32804.7 566.561C-32804.8 566.642 -32804.9 566.799 -32804.9 566.812C-32804.9 566.844 -32804.8 566.709 -32804.9 566.534C-32804.9 566.362 -32804.9 566.016 -32805 565.744C-32805.1 565.459 -32805.2 565.121 -32805.4 564.738C-32805.7 564.034 -32806 563.322 -32806.5 562.51C-32806.9 561.818 -32807.4 561.057 -32808 560.232C-32860.6 559.663 -32922.8 556.337 -32941.1 555.613C-32946 555.386 -32949.9 554.953 -32949.9 554.657C-32949.9 554.655 -32949.9 554.653 -32949.9 554.651C-32949.8 554.355 -32945.8 554.293 -32940.9 554.497C-32922.2 555.364 -32862 557.441 -32806.6 559.272C-32806 560.125 -32805.5 560.918 -32805.1 561.65C-32804.6 562.511 -32804.2 563.273 -32803.8 564.07C-32803.1 565.656 -32803 567.33 -32803.4 567.65C-32803.8 568.217 -32805.7 568.629 -32807.4 568.589C-32809.2 568.584 -32811.1 568.344 -32812.9 568.032C-32820.4 566.696 -32827.8 564.329 -32834.9 562.022C-32849.2 557.399 -32862.5 552.032 -32875.6 549.107C-32879.3 548.381 -32882.9 547.719 -32886.3 547.1C-32901.3 544.365 -32916.3 542.174 -32930.8 538.304C-32945.5 534.472 -32960.7 531.906 -32976.3 533.644C-32977.5 533.805 -32979.1 534.201 -32980.4 535.497C-32981.8 536.801 -32982.2 538.604 -32982.2 539.906C-32982.3 542.574 -32981.6 544.486 -32980.9 546.335C-32978.4 553.424 -32974.4 560.096 -32969 565.55C-32932.7 585.326 -32894 577.858 -32856.8 575.614C-32852 575.272 -32844.7 574.008 -32841 568.837C-32838.9 566.22 -32837 563.419 -32835.4 560.495C-32831.1 553.103 -32829.1 543.335 -32825.9 537.784C-32825.8 537.596 -32824.9 537.236 -32824 537.356C-32823.5 537.401 -32823 537.53 -32822.7 537.698C-32822.3 537.853 -32822.2 538.099 -32822.3 537.925C-32818.2 546.813 -32829.6 554.868 -32838.7 559.515C-32848.4 564.407 -32859 568.09 -32869.5 570.271C-32905 573.997 -32942 565.934 -32976.2 554.548C-32984.9 550.717 -32982.9 537.221 -32983.3 527.332C-32983.3 522.159 -32980.2 517.216 -32975.7 514.32C-32954.2 500.805 -32926.5 508.955 -32903.8 518.113C-32897.5 520.742 -32891.2 523.735 -32885.1 526.835C-32867.2 544.046 -32867 574.01 -32855.3 596.979C-32849.5 609.807 -32834.9 612.913 -32823.9 618.219C-32817.6 621.177 -32811 618.042 -32806 614.677C-32793.8 606.109 -32788.1 591.423 -32785.2 577.487C-32780.3 555.974 -32793.6 536.484 -32804.9 519.797C-32806.9 516.519 -32810.9 514.427 -32814.7 514.546C-32844.4 526.287 -32867.8 547.627 -32893.8 564.889C-32908.3 574.834 -32921.8 586.314 -32936.3 595.969C-32941.5 598.966 -32948.4 597.216 -32953.7 594.246C-32978.7 578.297 -32977.6 544.38 -32978.6 517.053C-32979 514.396 -32975 513.998 -32972.1 514.059C-32969 514.111 -32965.8 514.597 -32962.6 514.878C-32953.3 515.739 -32944.7 520.65 -32937.3 526.347C-32928.3 533.337 -32921.5 541.342 -32916.8 549.389C-32902.1 576.006 -32902.8 598.437 -32894.1 616.581C-32892 620.629 -32887.3 620.782 -32884.8 621.232C-32881.8 621.889 -32878 621.44 -32875.2 619.729C-32869.8 616.339 -32866.2 611.813 -32862.4 607.164C-32856.9 600.164 -32851.7 592.453 -32846.2 583.644C-32844.4 580.821 -32842.6 577.982 -32840.9 575.133C-32834.5 564.502 -32835.6 551.715 -32838.5 540.846C-32842.4 525.424 -32856.9 517.527 -32869 511.062C-32887.7 503.022 -32907.7 504.601 -32925.6 506.033C-32935.5 506.633 -32943.1 512.763 -32947.5 520.545C-32962.3 542.545 -32959.4 564.792 -32955.4 583.691C-32955.2 584.825 -32956 586.763 -32957.1 587.533C-32958.1 588.344 -32959 588.504 -32959.6 588.639C-32960.9 588.856 -32961.8 588.767 -32962.6 588.668C-32964.3 588.436 -32965.7 588.01 -32967.2 587.325C-32977.1 581.917 -32980.4 574.203 -32983.9 568.894C-32984.8 567.308 -32985.4 565.734 -32985.7 564.308C-32987.1 557.03 -32986 552.677 -32985.8 549.85ZM-32828.8 577.162C-32828 576.897 -32827.7 572.576 -32828.7 568.835C-32829.6 564.941 -32831.1 560.849 -32832.8 556.699C-32836 548.342 -32840.3 539.957 -32844 530.374C-32845.5 526.203 -32847 522.134 -32848.9 518.481C-32850.2 516.126 -32851.1 515.057 -32852.7 514.533C-32854.3 513.974 -32856.8 514.062 -32859.3 514.507C-32881.7 518.511 -32903.4 532.813 -32917.9 551.269C-32924.2 559.37 -32923.3 570.641 -32922.3 581.749C-32922.1 584.198 -32921.5 586.576 -32920.5 588.822C-32918.5 593.487 -32914.9 597.481 -32910.8 600.97C-32901.4 609.339 -32888.5 611.577 -32877.1 609.794C-32868 608.14 -32867.2 593.624 -32862.7 584.55C-32861.3 581.448 -32859.4 578.398 -32856.6 576.075C-32850.8 572.269 -32846.5 574.95 -32842.9 575.558C-32838 576.664 -32834.4 580.47 -32832 583.582C-32830.2 585.933 -32828.6 588.329 -32827.3 591.03C-32826.7 592.391 -32826.2 593.82 -32826 595.55C-32825.8 597.187 -32826.3 599.734 -32828.1 601.06C-32839.7 610.842 -32855.1 607.367 -32864.8 601.043C-32865 600.907 -32865.2 600.77 -32865.4 600.63C-32878.2 592.66 -32887.7 580.939 -32900.6 568.49C-32902.2 566.916 -32904.8 567.407 -32907.5 565.782C-32909.9 563.877 -32910.1 560.422 -32909.4 557.69C-32907.5 550.421 -32902 544.391 -32895.8 538.57C-32893.6 536.465 -32891.2 534.386 -32888.7 532.3C-32876.7 522.501 -32858.7 521.141 -32841 521.421C-32830.8 521.415 -32821.7 527.535 -32813.9 534.222C-32798.9 547.118 -32794 568.2 -32791.6 587.692C-32791.6 587.734 -32791.6 587.777 -32791.6 587.82C-32791.4 589.236 -32791.3 590.695 -32791.1 592.11C-32790.9 594.511 -32789.2 597.354 -32787.5 596.998C-32781.4 595.319 -32780.1 586.667 -32779.3 580.245C-32780.6 558.082 -32794.5 538.098 -32806.6 521.948C-32806.9 521.538 -32807.2 521.206 -32807.5 520.944C-32807.8 520.638 -32808.1 520.428 -32808.4 520.279C-32809 519.984 -32809.4 519.968 -32810 520.165C-32811.2 520.585 -32812.6 522.119 -32813.8 523.736C-32816 526.974 -32817.8 530.847 -32819.5 534.513C-32822.7 541.961 -32825.4 549.29 -32828 556.117C-32832.4 567.491 -32836.5 578.628 -32842.4 588.744C-32861.2 620.299 -32897.5 627.48 -32924.1 625.234C-32946.1 622.729 -32961.2 608.801 -32973.5 597.555C-32991.4 580.357 -32997.4 559.686 -33000.7 543.79C-33002.3 535.198 -32999.7 527.527 -32996.5 521.902C-32993.4 516.449 -32989.2 511.621 -32984.5 507.23C-32981.2 504.085 -32977.6 501.063 -32973.3 499.429C-32934.7 500.555 -32904.8 536.498 -32873.3 559.868C-32865.6 565.783 -32862.7 574.885 -32858.5 583.739C-32857.4 585.399 -32855.9 586.99 -32853.8 587.72C-32851.8 588.466 -32849.6 588.196 -32847.7 587.728C-32843.8 586.822 -32840 584.612 -32837.6 581.329C-32834.3 576.871 -32832.9 571.576 -32832 566.408C-32830.9 560.128 -32831.4 553.595 -32832.9 547.528C-32835.4 539.629 -32828.5 551.115 -32830.9 566.592C-32831 567.614 -32831.2 568.642 -32831.4 569.673C-32831.6 570.253 -32831.7 570.83 -32831.9 571.407C-32832.9 575.119 -32834.1 578.552 -32836.6 582.063C-32837.9 583.699 -32839.5 585.271 -32841.5 586.54C-32843.5 587.739 -32845.5 588.484 -32847.4 588.963C-32849.6 589.535 -32852.3 589.797 -32854.6 588.811C-32857 587.846 -32858.5 586.103 -32859.6 584.492C-32861 582.306 -32861.7 580.362 -32862.4 578.531C-32863.8 575.291 -32866.2 567.601 -32874.2 560.984C-32897.4 544.315 -32936.3 501.009 -32972.8 500.684C-32976.9 502.275 -32980.5 505.27 -32983.6 508.218C-32989.8 514.135 -32994.3 520.263 -32996.8 525.604C-32999 530.451 -33000.5 536.673 -32999.1 543.472C-32995.9 558.785 -32989.8 579.13 -32972 595.877C-32959.8 606.799 -32944.6 620.181 -32923.9 622.268C-32898.1 624.148 -32863.3 616.937 -32845.6 586.836C-32840 577.115 -32835.9 565.88 -32831.5 554.378C-32828.9 547.608 -32826.2 540.354 -32822.8 532.829C-32821.1 529.099 -32819.2 525.189 -32816.6 521.591C-32815.2 519.801 -32813.8 517.867 -32811.1 516.891C-32808.1 515.816 -32805.3 518.057 -32804 519.916C-32792 536.745 -32778.3 556.364 -32777.2 580.492C-32778.3 587.036 -32778.8 596.22 -32787.1 598.905C-32789.1 599.254 -32790.7 597.9 -32791.5 596.634C-32792.4 595.312 -32792.8 593.812 -32793 592.308C-32793.1 591.277 -32793.2 590.229 -32793.4 589.18C-32793.4 589.028 -32793.4 588.886 -32793.4 588.738C-32795.8 569.217 -32800.6 548.203 -32815.2 535.726C-32822.9 529.097 -32831.5 523.412 -32841 523.428C-32858.5 523.135 -32876.2 524.652 -32887.4 533.874C-32889.9 535.931 -32892.2 537.977 -32894.4 540.037C-32900.4 545.73 -32905.7 551.675 -32907.4 558.177C-32908 560.56 -32907.7 563.041 -32906.2 564.099C-32905.1 565.05 -32901.6 564.774 -32899.2 566.872C-32885.1 580.602 -32875.3 592.68 -32862 600.154C-32861.8 600.268 -32861.6 600.381 -32861.4 600.492C-32852.1 605.887 -32839.3 607.512 -32829.5 599.355C-32827.2 597.528 -32828.3 594.271 -32829.3 591.958C-32830.4 589.504 -32832 587.194 -32833.7 584.947C-32836 581.909 -32839.1 578.674 -32843.4 577.698C-32847 576.94 -32851.3 575.021 -32855.2 577.759C-32857.6 579.765 -32859.3 582.504 -32860.7 585.433C-32862.8 590.113 -32864.1 595.332 -32866.1 600.476C-32867.9 605.463 -32870.9 611.277 -32876.8 612.02C-32888.6 613.905 -32902.4 611.558 -32912.3 602.705C-32916.8 598.882 -32920.8 594.338 -32923 588.806C-32923.8 586.618 -32924.4 584.303 -32924.6 581.944C-32925.6 571.001 -32926.8 558.853 -32919.8 549.871C-32904.8 530.86 -32882.9 516.345 -32859.7 512.153C-32854.2 511.02 -32848.9 512.088 -32846.8 517.331C-32844.7 521.204 -32843.2 525.383 -32841.7 529.542C-32835.3 547.297 -32822.7 564.999 -32826.8 578.612C-32827.4 579.302 -32828.2 579.678 -32829.1 579.839C-32832.6 580.734 -32834.7 581.458 -32835.1 581.01C-32835.4 580.594 -32833.9 579.126 -32829.6 577.605C-32829.2 577.459 -32829 577.305 -32828.8 577.162ZM-32840.9 567.875C-32842.7 570.289 -32843.1 572.187 -32843.2 573.066C-32843.4 573.998 -32843.3 574.166 -32843.4 574.076C-32843.4 573.841 -32843.6 572.584 -32844 571.192C-32844.8 568.319 -32846.2 564.682 -32847.8 560.977C-32851 553.349 -32854.8 546.058 -32858.8 535.821C-32860.4 531.538 -32861.7 528.239 -32862.9 526.089C-32863.3 525.291 -32863.3 525.654 -32862.2 526.791C-32861.2 527.931 -32859 529.311 -32857.6 529.715C-32856.1 530.177 -32855.5 530.117 -32855.5 530.133C-32855.4 530.133 -32855.9 530.162 -32856.5 530.281C-32874.2 533.4 -32893.4 546.277 -32904.8 561.044C-32906.6 562.974 -32907.4 567.848 -32906 580.366C-32906 581.91 -32905 584.445 -32900.2 588.639C-32895.2 593.161 -32888.2 595.068 -32879.6 593.92C-32880.5 594.052 -32882.2 594.729 -32883.2 595.527C-32884.2 596.316 -32884.4 596.859 -32884.3 596.712C-32884.1 596.442 -32883 594.059 -32882 591.038C-32879.4 585.039 -32878.8 575.345 -32866.8 564.146C-32858.4 557.463 -32851.2 558.496 -32847.5 558.716C-32843.5 559.165 -32840.8 560.004 -32839.1 560.432C-32835.3 561.332 -32830.1 563.847 -32826.8 566.592C-32823.5 569.317 -32821.5 571.783 -32819.8 573.943C-32817.6 576.863 -32815.5 579.771 -32813.5 584.112C-32812.5 586.364 -32811.3 588.848 -32810.7 593.346C-32810.4 595.606 -32810.3 598.599 -32811.3 602.421C-32812.3 606.216 -32815.1 610.609 -32818.4 613.104C-32826.6 620.078 -32840.4 624.359 -32851.8 622.311C-32863.1 620.526 -32871.5 615.55 -32878.5 610.621C-32892.1 600.912 -32902.9 587.612 -32910.4 580.345C-32908.6 581.885 -32906.5 582.275 -32907 582.122C-32907.4 581.762 -32910.3 582.364 -32916.6 578.098C-32926.9 569.659 -32925.4 559.22 -32924.2 554.134C-32920.3 540.874 -32913.2 534.821 -32907.3 528.931C-32904.3 526.142 -32901.3 523.538 -32898.2 520.992C-32879.9 506.823 -32859.5 506.983 -32840.6 507.247C-32825.6 507.4 -32812.8 516.749 -32805 523.774C-32785.2 541.643 -32781.2 566.205 -32778.8 586.728C-32778.7 587.37 -32778.7 588.035 -32778.6 588.675C-32778.5 589.372 -32778.5 590.104 -32778.4 590.789C-32778.5 590.349 -32778.5 589.777 -32779.4 588.498C-32779.8 587.864 -32780.5 586.976 -32782.1 585.969C-32783.6 584.979 -32786.7 583.971 -32789.7 584.585C-32791.7 584.912 -32793.3 586.326 -32793.4 586.637C-32793.7 587.012 -32793.3 586.6 -32793 585.846C-32792.4 584.294 -32791.8 581.606 -32791.4 578.826C-32791.1 577.807 -32792.1 572.226 -32793.6 567.853C-32795.1 563.23 -32797.2 558.501 -32799.4 553.931C-32803.9 544.781 -32809.3 536.139 -32815.1 528.533C-32815.1 528.499 -32815 528.587 -32814.8 528.774C-32814.6 529 -32814.2 529.336 -32813.3 529.758C-32811.8 530.726 -32808 530.944 -32806.4 530.134C-32804.8 529.463 -32804.6 529.021 -32804.6 529.084C-32804.7 529.123 -32805 529.477 -32805.4 529.976C-32806.9 532.05 -32808.7 535.665 -32810.3 539.1C-32813.5 546.148 -32816.3 553.533 -32818.9 560.413C-32823.4 571.581 -32827.4 582.556 -32834 593.746C-32855.7 629.592 -32896.2 637.075 -32924.9 634.563C-32951.2 631.323 -32966.9 615.9 -32979.8 604.29C-32999.7 584.96 -33006.1 562.52 -33009.5 545.62C-33011.8 533.67 -33007.7 523.255 -33003.6 516.498C-32999.4 509.69 -32994.7 504.937 -32990.6 501.013C-32986.3 497.094 -32981.8 493.548 -32976.3 491.516C-32963.3 487.83 -32956.7 492.407 -32950.9 494.38C-32945.2 496.895 -32940.7 499.446 -32935.7 502.469C-32935.3 502.72 -32934.9 502.973 -32934.5 503.217C-32934.5 503.232 -32934.5 503.247 -32934.5 503.262C-32933.9 503.558 -32933.5 503.815 -32933.3 503.948C-32932.9 504.22 -32932.5 504.449 -32932.4 504.535C-32932 504.733 -32931.8 504.906 -32931.7 504.961C-32931.3 505.198 -32930.9 505.474 -32930.6 505.654C-32928 507.319 -32920.2 512.733 -32914.3 517.267C-32908.2 521.869 -32904 525.285 -32899.6 528.879C-32899.1 529.253 -32898.7 529.605 -32898.2 529.97C-32894.2 533.249 -32890 536.78 -32883.8 541.951C-32880.1 545.095 -32877.6 547.575 -32878.3 547.444C-32879 547.305 -32882.5 544.672 -32886.3 541.525C-32892.7 536.12 -32897.3 532.341 -32901.3 529.096C-32901.8 528.734 -32902.2 528.374 -32902.7 528.016C-32906.9 524.59 -32910.7 521.625 -32916.1 517.559C-32923.9 511.718 -32930 507.568 -32935.8 504.017C-32940.7 500.998 -32945.3 498.345 -32951 495.794C-32956.9 493.724 -32963.6 489.307 -32975.8 492.809C-32981.1 494.759 -32985.4 498.196 -32989.6 502.028C-32994.4 506.604 -32999.9 512.22 -33004.3 520.797C-33007.4 526.892 -33009.9 535.645 -33008 545.324C-33004.7 561.665 -32998.7 583.86 -32978.7 603.171C-32966 614.611 -32950.5 629.829 -32924.8 632.973C-32896.6 635.391 -32856.8 628.162 -32835.5 592.874C-32829 581.945 -32825 570.999 -32820.6 559.842C-32817.9 552.951 -32815.1 545.547 -32811.9 538.403C-32810.3 534.911 -32808.5 531.245 -32806.8 528.951C-32806.4 528.393 -32806 527.968 -32805.9 527.819C-32805.7 527.656 -32805.8 527.928 -32807 528.452C-32808.3 529.088 -32811.4 528.916 -32812.5 528.16C-32813.2 527.836 -32813.4 527.591 -32813.6 527.456C-32813.7 527.346 -32813.7 527.33 -32813.7 527.43C-32802.6 541.91 -32789.8 565.394 -32789.6 579.044C-32789.9 581.92 -32790.6 584.719 -32791.3 586.514C-32791.6 587.391 -32792 587.968 -32792 587.836C-32791.9 587.776 -32791.7 587.525 -32791.3 587.21C-32790.8 586.897 -32790.1 586.574 -32789.4 586.451C-32786.9 585.94 -32784.3 586.782 -32783.1 587.583C-32781.8 588.398 -32781.3 589.091 -32780.9 589.557C-32780.3 590.496 -32780.4 590.798 -32780.3 590.986C-32780.4 590.291 -32780.4 589.548 -32780.5 588.843C-32780.6 588.188 -32780.6 587.512 -32780.7 586.855C-32783.1 566.479 -32787.2 542.431 -32806.3 525.274C-32814.1 518.289 -32826.4 509.39 -32840.7 509.25C-32859.4 508.966 -32879.5 509.009 -32896.9 522.564C-32900 525.08 -32902.9 527.646 -32905.8 530.373C-32911.6 536.229 -32918.4 542.319 -32921.9 554.692C-32923 559.408 -32924.2 568.738 -32915.1 576.085C-32909.6 579.787 -32907 579.283 -32906.5 579.618C-32905.8 579.775 -32907.4 579.499 -32908.8 578.332C-32900.6 585.912 -32889.9 598.785 -32876.5 608.044C-32869.7 612.736 -32861.7 617.327 -32851.2 618.851C-32840.7 620.6 -32828.3 616.642 -32820.7 610.166C-32818.1 608.107 -32815.8 604.518 -32815 601.393C-32814.1 598.248 -32814.2 595.749 -32814.5 593.833C-32815 590.018 -32816 587.803 -32817 585.782C-32818.9 581.87 -32820.8 579.128 -32822.9 576.403C-32824.5 574.379 -32826.4 572.128 -32829.4 569.739C-32832.2 567.332 -32836.7 565.193 -32840.1 564.404C-32841.9 563.979 -32844.4 563.227 -32847.9 562.849C-32851.2 562.649 -32857.3 561.893 -32864.1 567.351C-32874.5 577.131 -32875.3 586.274 -32877.8 592.428C-32878.8 595.532 -32879.9 598.153 -32880.5 599.086C-32880.8 599.56 -32880.9 599.485 -32880.5 599.148C-32880.1 598.805 -32879.2 598.465 -32878.9 598.436C-32888.5 599.858 -32897.1 597.767 -32903.4 592.255C-32908.5 587.775 -32910.6 584.063 -32910.8 580.774C-32912.1 568.627 -32911.8 561.873 -32908.6 558.18C-32896.3 542.437 -32876.4 529.284 -32857.2 526.161C-32856.4 526.032 -32855.8 525.993 -32855.5 526.007C-32855.3 526.009 -32855.5 526.105 -32856.4 525.848C-32857.2 525.635 -32858.7 524.716 -32859.3 524.029C-32860 523.345 -32859.9 523.311 -32859.4 524.207C-32858.1 526.748 -32856.8 530.248 -32855.3 534.546C-32851.7 544.308 -32848 551.712 -32845 559.412C-32843.6 563.171 -32842.2 566.895 -32841.4 570.025C-32841 571.566 -32840.8 573.004 -32840.7 573.71C-32840.7 574.052 -32840.8 574.191 -32840.8 573.825C-32840.7 573.459 -32840.7 572.474 -32839.8 570.671C-32838.6 568.023 -32834.5 565.311 -32832.8 565.098C-32835.9 565.947 -32837.2 566.606 -32838.5 567.145C-32839.8 567.687 -32840.8 568.129 -32841.7 568.504C-32843.5 569.253 -32844.8 569.728 -32845.8 569.958C-32846.8 570.196 -32847.2 570.16 -32847.1 570.158C-32847 570.14 -32846.5 570.299 -32846.3 570.424C-32849.4 568.52 -32852.3 566.331 -32854.3 564.29C-32856.3 562.383 -32857.1 560.042 -32856.6 561.555C-32857.4 556.464 -32858.1 549.786 -32859.2 543.33C-32860.7 534.532 -32862.6 525.369 -32867.6 515.695C-32872 506.244 -32883.4 495.122 -32896.5 493.287C-32921.3 490.144 -32946.7 484.069 -32974.2 504.551C-32979.9 510.265 -32990.8 517.006 -32994.5 534.097C-32995.3 538.815 -32996.3 543.829 -32997.1 549.708C-32997.4 555.688 -32999.8 562.276 -32993.9 574.443C-32992.1 577.472 -32990.2 580.645 -32987.8 583.936C-32985.2 586.977 -32982.6 592.195 -32972.5 597.776C-32969.9 599.019 -32967.7 599.738 -32964.6 600.257C-32963 600.469 -32961.4 600.772 -32958 600.325C-32956.3 599.988 -32953.9 599.756 -32950.2 597.107C-32946.2 594.711 -32943 587.197 -32943.5 583.215C-32946.5 562.237 -32950.2 550.927 -32937.9 530.248C-32937.4 529.487 -32936.9 528.708 -32936.4 527.91C-32931.9 521.555 -32931.3 520.828 -32924.6 519.899C-32921.6 519.659 -32918.6 519.473 -32915.6 519.355C-32902.4 518.776 -32884.9 519.8 -32876.2 523.998C-32864.2 530.447 -32854.9 536.951 -32853.4 544.44C-32851 553.58 -32851 561.935 -32854.2 566.993C-32854.8 568.085 -32855.5 569.154 -32856.2 570.243C-32861.4 578.748 -32866.3 586.176 -32871.1 592.793C-32873.3 595.791 -32875.6 598.648 -32877.7 601.143C-32879.8 603.547 -32882.5 606.059 -32882.9 606.227C-32883 606.291 -32882.7 606.11 -32882.2 606.061C-32881.8 606.001 -32881.6 606.105 -32882.2 606.003C-32884.6 605.66 -32885.3 605.519 -32884.7 605.671C-32884.4 605.773 -32883.7 606.051 -32882.8 606.736C-32881.9 607.402 -32881 608.49 -32880.5 609.387C-32887.3 597.42 -32887.7 572.453 -32904.5 542.07C-32909.5 533.674 -32916 525.823 -32924.4 518.525C-32933.6 510.934 -32944 502.687 -32961.5 500.614C-32963.7 500.435 -32967.4 499.841 -32971.7 499.73C-32974 499.735 -32976.4 499.59 -32980.6 500.758C-32982.7 501.42 -32985.7 502.469 -32988.9 505.884C-32992.1 509.308 -32993.3 514.757 -32993 517.849C-32991 542.194 -32997.5 581.465 -32961 607.022C-32952.7 611.206 -32942.9 615.914 -32928.5 608.594C-32911.2 597.086 -32899.4 586.879 -32885.1 577.211C-32870.8 567.283 -32857.1 557.629 -32844.2 548.907C-32837.7 544.539 -32831.5 540.405 -32825.6 536.778C-32822.6 534.971 -32819.8 533.301 -32817.2 531.947C-32815.9 531.288 -32814.7 530.69 -32813.8 530.334C-32813.3 530.157 -32813 530.037 -32812.9 530.027C-32812.9 529.995 -32813 530.192 -32814.8 530.233C-32814.7 530.261 -32815.6 530.224 -32816.5 529.712C-32817.5 529.217 -32818 528.541 -32818 528.508C-32817.9 528.705 -32817.8 528.902 -32817.6 529.097C-32801.3 552.374 -32798.8 564.685 -32801.2 574.092C-32802.4 579.347 -32803.8 583.493 -32805.2 586.848C-32806.6 589.973 -32808 592.386 -32809.4 594.325C-32811.5 597.279 -32813.5 599.18 -32815.8 600.685C-32817.3 601.725 -32819 602.346 -32819.1 602.261C-32819.1 602.233 -32817.8 602.05 -32816.1 602.883C-32832.1 595.986 -32838.8 592.708 -32839.4 589.865C-32844.1 579.145 -32847.6 567.645 -32851.4 555.354C-32853.4 549.168 -32855.3 542.798 -32858.1 535.772C-32861.5 529.01 -32862.7 520.072 -32877.2 511.28C-32883.3 508.22 -32890.1 504.999 -32897.1 502.112C-32912.4 496.048 -32929.5 489.88 -32951.7 490.233C-32957.7 490.386 -32963.3 490.834 -32964 490.156C-32964.6 489.491 -32959.8 487.719 -32953.5 487.403C-32929.8 486.599 -32911.9 493.147 -32896 499.43C-32888.9 502.348 -32882 505.611 -32875.9 508.687C-32860 518.395 -32859 527.718 -32855.4 534.627C-32852.6 541.814 -32850.6 548.222 -32848.7 554.425C-32844.9 566.737 -32841.4 578.15 -32836.7 588.684C-32836.9 589.936 -32831.5 593.182 -32814.8 600.303C-32817.3 599.051 -32819.3 599.332 -32819.6 599.419C-32820.1 599.595 -32818.6 599.153 -32817.4 598.305C-32815.2 596.866 -32813.3 594.978 -32811.2 591.925C-32810 590.099 -32808.8 587.851 -32807.6 584.993C-32806.3 581.965 -32805.1 578.231 -32804.1 573.493C-32802 565.029 -32803.6 554.196 -32820.3 530.338C-32820.3 530.259 -32820.4 530.18 -32820.4 530.1C-32820.2 530.42 -32819.3 531.48 -32817.9 532.239C-32816.5 533.022 -32815.1 533.142 -32814.8 533.113C-32812.5 533.067 -32812.2 532.795 -32812.1 532.79C-32812 532.756 -32812.3 532.842 -32812.7 532.991C-32813.4 533.291 -32814.6 533.855 -32815.8 534.484C-32818.3 535.784 -32821.1 537.426 -32824 539.209C-32829.9 542.793 -32836.1 546.909 -32842.5 551.263C-32855.4 559.962 -32869.2 569.617 -32883.4 579.552C-32897.8 589.222 -32909.2 599.178 -32927 611.026C-32943.2 619.185 -32953.5 613.911 -32962.4 609.495C-33001.1 582.227 -32993.6 542.089 -32995.8 518.005C-32996.1 514.437 -32994.8 508.02 -32991 504.005C-32987.3 500.002 -32983.8 498.809 -32981.4 498.055C-32976.6 496.737 -32974.1 496.921 -32971.6 496.91C-32967.1 497.029 -32963.3 497.644 -32961.3 497.805C-32942.8 500.026 -32932.2 508.508 -32922.7 516.232C-32914.1 523.795 -32907.3 531.904 -32902.1 540.637C-32884.8 571.934 -32884.4 597.157 -32878.1 608.082C-32879.3 605.408 -32883 603.154 -32883.9 603.033C-32884.8 602.754 -32884.3 602.903 -32881.8 603.268C-32881.3 603.343 -32881.8 603.198 -32882.6 603.318C-32883.5 603.422 -32884.2 603.75 -32884.3 603.821C-32884.6 603.994 -32883.8 603.41 -32883 602.654C-32882.2 601.882 -32881.2 600.885 -32880.2 599.799C-32878.3 597.617 -32876.3 595.053 -32874.2 592.331C-32869.4 585.892 -32864.5 578.497 -32859.2 569.994C-32858.3 568.518 -32857.4 567.041 -32856.5 565.551C-32853.9 561.519 -32853.7 553.948 -32856 545.082C-32857.1 539.076 -32865.4 532.806 -32877.6 526.365C-32884.6 522.838 -32901.8 521.467 -32914.3 522.005C-32917.7 522.115 -32921.1 522.313 -32924.4 522.579C-32927.4 522.851 -32928.8 523.456 -32929.7 524.133C-32930.7 524.801 -32932.3 526.446 -32934.2 529.388C-32934.5 529.834 -32934.7 530.273 -32935 530.705C-32948 552.189 -32943.6 561.796 -32940.9 583.109C-32940.2 587.861 -32944.3 596.847 -32948.9 599.454C-32953.3 602.414 -32955.9 602.617 -32957.9 602.977C-32961.6 603.432 -32963.4 603.085 -32965.2 602.844C-32968.6 602.257 -32970.9 601.473 -32973.6 600.142C-32981.5 596.016 -32984.3 592.132 -32986.5 589.782C-32990.9 584.757 -32993.7 580.079 -32996.2 575.736C-33002.7 562.285 -33000 555.491 -32999.7 549.338C-32998.9 543.313 -32997.8 538.293 -32997.1 533.628C-32993.1 515.162 -32981.5 508.311 -32975.9 502.618C-32946.5 480.952 -32920.9 487.751 -32896.1 490.785C-32881.7 492.787 -32869.5 505.222 -32865 515.183C-32859.9 525.437 -32858.1 534.914 -32856.6 543.91C-32855.6 550.099 -32854.9 556.497 -32854.2 561.138C-32854.4 559.882 -32854.6 559.896 -32854.3 560.336C-32854 560.788 -32853.4 561.641 -32852.5 562.551C-32850.7 564.402 -32848 566.49 -32845 568.302C-32845.5 567.986 -32846.5 567.701 -32846.9 567.695C-32847.3 567.67 -32847.2 567.755 -32846.4 567.564C-32845.6 567.381 -32844.4 566.957 -32842.7 566.232C-32841.8 565.868 -32840.8 565.432 -32839.5 564.88C-32838.1 564.329 -32836.8 563.643 -32833.4 562.715C-32835.2 563.088 -32838.9 565.037 -32840.9 567.875ZM-32849.1 548.837C-32847.6 545.335 -32845.9 541.816 -32845 541.735C-32844.3 541.656 -32844.7 545.219 -32846.3 548.988C-32848.1 553.189 -32850.1 556.625 -32852.4 559.508C-32852.7 559.914 -32852.8 560.053 -32852.9 560.104C-32852.9 560.152 -32852.9 560.182 -32853.2 560.305C-32853.8 560.564 -32855.8 560.875 -32858.3 561.162C-32868.8 562.441 -32877.7 563.154 -32885.4 563.624C-32911.5 564.957 -32924.5 564.701 -32942.3 562.095C-32949.5 561.015 -32957.9 558.307 -32959.7 556.368C-32963.7 552.382 -32966.8 547.407 -32968.9 541.9C-32969.1 541.261 -32969.3 540.721 -32969.4 540.384C-32969.5 540.062 -32969.5 539.902 -32969.5 540.488C-32969.5 540.961 -32969.8 542.981 -32971.5 544.583C-32973.1 546.134 -32974.4 546.209 -32974.7 546.255C-32961.7 544.564 -32947.2 546.68 -32933.9 549.972C-32919.8 553.504 -32906.3 555.356 -32893.5 557.41C-32888.1 558.261 -32882.9 559.12 -32877.7 560.034C-32863.2 563.133 -32847.4 569.204 -32832.9 573.286C-32825.5 575.371 -32818.6 577.408 -32810.2 578.108C-32808 578.218 -32806 578.352 -32802.7 577.631C-32801.2 577.224 -32799.3 576.654 -32797.2 574.746C-32795.1 572.966 -32793.8 569.655 -32793.8 567.475C-32793.7 563.061 -32795 560.916 -32796 558.982C-32797 556.982 -32798 555.587 -32799.1 553.959C-32800.7 551.998 -32801.6 551.79 -32802.2 551.462C-32802.8 551.198 -32803.2 551.102 -32803.5 551.018C-32803.8 550.927 -32803.9 550.923 -32804 550.898C-32804.1 550.876 -32804.2 550.858 -32804.3 550.841C-32804.6 550.776 -32805 550.729 -32805.3 550.696C-32805.7 550.647 -32806.2 550.608 -32806.7 550.57C-32807.4 550.519 -32808.4 550.462 -32809 550.432C-32810.6 550.356 -32812 550.308 -32813.5 550.265C-32816.5 550.175 -32819.1 550.122 -32821.9 550.067C-32827.4 549.968 -32832.6 549.899 -32837.4 549.84C-32847 549.724 -32855.5 549.641 -32862.5 549.564C-32867.4 549.509 -32871.3 549.15 -32871.3 548.763C-32871.2 548.376 -32867.2 548.089 -32862.3 548.121C-32855.3 548.171 -32846.9 548.223 -32837.2 548.303C-32832.5 548.343 -32827.3 548.393 -32821.9 548.473C-32819 548.518 -32816.4 548.561 -32813.4 548.641C-32811.9 548.68 -32810.5 548.723 -32808.9 548.794C-32808.2 548.821 -32807.2 548.876 -32806.5 548.927C-32806 548.965 -32805.5 549.005 -32805.1 549.055C-32804.8 549.09 -32804.4 549.14 -32804 549.214C-32803.9 549.232 -32803.8 549.253 -32803.6 549.278C-32803.5 549.307 -32803.4 549.311 -32803 549.419C-32802.7 549.518 -32802.2 549.632 -32801.5 549.952C-32800.8 550.35 -32799.6 550.604 -32797.8 553C-32796.6 554.671 -32795.6 556.105 -32794.5 558.215C-32793.5 560.265 -32792 562.524 -32792.1 567.544C-32792.1 570.03 -32793.6 573.889 -32796 575.967C-32798.4 578.186 -32800.6 578.827 -32802.3 579.286C-32805.9 580.09 -32808 579.937 -32810.3 579.832C-32819 579.125 -32825.9 577.088 -32833.4 575.018C-32848 570.969 -32863.9 564.907 -32878.1 561.954C-32883 561.101 -32888 560.297 -32893.1 559.501C-32906.1 557.445 -32919.9 555.627 -32934.4 552.024C-32947.6 548.813 -32961.9 546.8 -32974.4 548.484C-32973.9 548.401 -32972.1 548.244 -32969.9 546.192C-32967.7 544.079 -32967.2 541.382 -32967.2 540.594C-32967.2 539.666 -32967.3 539.655 -32967.2 539.848C-32967.1 540.06 -32967 540.526 -32966.7 541.116C-32964.7 546.35 -32961.8 551.019 -32958 554.736C-32957.2 555.813 -32949 558.743 -32942.1 559.711C-32925.1 562.173 -32913 562.466 -32887.6 561.231C-32879.5 560.757 -32870 560.014 -32858.6 558.601C-32856.1 558.315 -32854.1 557.978 -32854 557.834C-32853.9 557.77 -32854.2 557.857 -32854.3 557.968C-32854.5 558.075 -32854.6 558.116 -32854.4 557.858C-32852.5 555.377 -32850.7 552.438 -32849.1 548.837Z" fill="#3E3E3E"/>
</g>
<use xlink:href="#pattern0_543_682_inner" transform="translate(223 0)"/>
<use xlink:href="#pattern0_543_682_inner" transform="translate(111.5 126)"/>
<use xlink:href="#pattern0_543_682_inner" transform="translate(334.5 126)"/>
<use xlink:href="#pattern0_543_682_inner" transform="translate(0 252)"/>
<use xlink:href="#pattern0_543_682_inner" transform="translate(223 252)"/>
</pattern></defs>
</svg>
