<svg width="101" height="87" viewBox="0 0 101 87" fill="none" xmlns="http://www.w3.org/2000/svg">
<path d="M78.2125 1.42388L60.0307 19.6057C59.5761 20.0602 59.3488 20.6057 59.3488 21.2421V58.3784C59.3488 60.333 61.667 61.3784 63.1216 60.0602L81.3034 43.6966C81.5476 43.4901 81.7434 43.2323 81.8769 42.9417C82.0105 42.6511 82.0785 42.3346 82.0761 42.0148V3.06025C82.0788 2.61155 81.9485 2.17211 81.7018 1.79731C81.4551 1.42251 81.103 1.12912 80.6898 0.954131C80.2766 0.779137 79.8209 0.730365 79.38 0.813961C78.9392 0.897558 78.5329 1.10978 78.2125 1.42388ZM97.8488 18.9239C95.7125 17.833 93.4852 16.9239 91.167 16.1512V70.833C85.9852 68.9693 80.667 68.0148 75.2579 68.0148C66.6216 68.0148 58.0761 70.4693 50.2579 75.1966V20.1966C42.8943 15.9693 34.3943 13.4693 25.2579 13.4693C17.1216 13.4693 9.43975 15.4693 2.66703 18.9239C1.16703 19.6512 0.257935 21.2421 0.257935 22.9239V77.833C0.257935 81.2875 3.93975 83.4239 6.98521 81.7875C12.4852 78.9239 18.667 77.1057 25.2579 77.1057C34.667 77.1057 43.3488 80.833 50.2579 86.1966C57.167 80.833 65.8488 77.1057 75.2579 77.1057C81.8488 77.1057 88.0307 78.9239 93.5307 81.833C96.5761 83.4693 100.258 81.333 100.258 77.8784V22.9239C100.258 21.2421 99.3488 19.6512 97.8488 18.9239Z" fill="white"/>
</svg>
