<svg width="59" height="60" viewBox="0 0 59 60" fill="none" xmlns="http://www.w3.org/2000/svg">
<g clip-path="url(#clip0_490_963)">
<mask id="mask0_490_963" style="mask-type:luminance" maskUnits="userSpaceOnUse" x="0" y="0" width="59" height="60">
<path d="M0.227264 0.887924L0.227264 59.5566L58.896 59.5566L58.896 0.887924L0.227264 0.887924Z" fill="white"/>
</mask>
<g mask="url(#mask0_490_963)">
<path fill-rule="evenodd" clip-rule="evenodd" d="M0.227295 59.5565L0.2273 30.2222L0.227296 0.887819L29.5617 0.887817L58.896 0.887821V30.2222V59.5565H29.5617H0.227295ZM29.5617 44.8814C29.5661 36.7846 36.1311 30.2222 44.2288 30.2222C36.1284 30.2222 29.5617 23.6554 29.5617 15.555C29.5617 23.6554 22.9949 30.2222 14.8945 30.2222C22.9923 30.2222 29.5574 36.7846 29.5617 44.8814ZM14.8945 37.8491C18.7827 37.8491 21.9347 41.0011 21.9347 44.8894C21.9347 48.7776 18.7827 51.9296 14.8945 51.9296C11.0063 51.9296 7.85423 48.7776 7.85423 44.8894C7.85423 41.0011 11.0063 37.8491 14.8945 37.8491ZM21.9347 15.555C21.9347 19.4432 18.7827 22.5952 14.8945 22.5952C11.0063 22.5952 7.85423 19.4432 7.85423 15.555C7.85423 11.6668 11.0063 8.51476 14.8945 8.51476C18.7827 8.51476 21.9347 11.6668 21.9347 15.555ZM37.1886 44.8894C37.1886 41.0011 40.3406 37.8491 44.2288 37.8491C48.1171 37.8491 51.2691 41.0011 51.2691 44.8894C51.2691 48.7776 48.1171 51.9296 44.2288 51.9296C40.3406 51.9296 37.1886 48.7776 37.1886 44.8894ZM37.1886 15.555C37.1886 19.4432 40.3406 22.5952 44.2288 22.5952C48.1171 22.5952 51.2691 19.4432 51.2691 15.555C51.2691 11.6668 48.1171 8.51476 44.2288 8.51476C40.3406 8.51476 37.1886 11.6668 37.1886 15.555Z" fill="url(#paint0_linear_490_963)"/>
</g>
</g>
<defs>
<linearGradient id="paint0_linear_490_963" x1="0.227294" y1="30.2222" x2="58.896" y2="30.2222" gradientUnits="userSpaceOnUse">
<stop stop-color="#DF99F7"/>
<stop offset="1" stop-color="#FFDBB0"/>
</linearGradient>
<clipPath id="clip0_490_963">
<rect width="58.6687" height="58.6687" fill="white" transform="translate(0.227295 0.887817)"/>
</clipPath>
</defs>
</svg>
