<svg width="60" height="61" viewBox="0 0 60 61" fill="none" xmlns="http://www.w3.org/2000/svg">
<g clip-path="url(#clip0_490_951)">
<mask id="mask0_490_951" style="mask-type:luminance" maskUnits="userSpaceOnUse" x="0" y="0" width="60" height="61">
<path d="M59.891 0.887817H0V60.7788H59.891V0.887817Z" fill="white"/>
</mask>
<g mask="url(#mask0_490_951)">
<path fill-rule="evenodd" clip-rule="evenodd" d="M29.9448 0.887817H11.3793C5.09469 0.887817 0 5.9825 0 12.2671V49.3995C0 55.6842 5.09469 60.7788 11.3793 60.7788H29.9448C29.9452 60.7291 29.9455 60.6791 29.9455 60.6291C29.9455 60.6791 29.9458 60.7291 29.9461 60.7788H48.5117C54.7963 60.7788 59.891 55.6842 59.891 49.3995V12.2671C59.891 5.9825 54.7963 0.887817 48.5117 0.887817H29.9461C30.0266 9.17077 36.7659 15.8606 45.068 15.8606H44.9182C36.6491 15.8606 29.9455 22.5641 29.9455 30.8333C29.9455 22.5641 23.242 15.8606 14.9727 15.8606H14.823C23.125 15.8606 29.8644 9.17077 29.9448 0.887817ZM29.9455 30.8333C29.9455 38.4053 24.3247 44.6645 17.0279 45.6662C24.3347 46.7335 29.9455 53.0262 29.9455 60.6291C29.9455 53.0262 35.5564 46.7335 42.8631 45.6662C35.5663 44.6645 29.9455 38.4053 29.9455 30.8333Z" fill="url(#paint0_linear_490_951)"/>
</g>
</g>
<defs>
<linearGradient id="paint0_linear_490_951" x1="8.23501" y1="6.57746" x2="44.6188" y2="53.1427" gradientUnits="userSpaceOnUse">
<stop stop-color="#FFD9A0"/>
<stop offset="1" stop-color="#FFF5F1"/>
</linearGradient>
<clipPath id="clip0_490_951">
<rect width="59.891" height="59.891" fill="white" transform="translate(0 0.887817)"/>
</clipPath>
</defs>
</svg>
