<svg width="60" height="61" viewBox="0 0 60 61" fill="none" xmlns="http://www.w3.org/2000/svg">
<mask id="mask0_490_958" style="mask-type:luminance" maskUnits="userSpaceOnUse" x="0" y="0" width="61" height="61">
<path d="M60.0048 0.887817H0.113861V60.7788H60.0048V0.887817Z" fill="white"/>
</mask>
<g mask="url(#mask0_490_958)">
<path fill-rule="evenodd" clip-rule="evenodd" d="M0.113861 0.887817C8.38307 0.887817 15.0866 7.59132 15.0866 15.8606C6.8174 15.8606 0.113861 9.15705 0.113861 0.887817ZM30.0593 0.887817C21.7901 0.887817 15.0866 7.59132 15.0866 15.8606C6.8174 15.8606 0.113861 22.5641 0.113861 30.8333C0.113861 39.1025 6.8174 45.806 15.0866 45.806C6.8174 45.806 0.113861 52.5096 0.113861 60.7788C8.38307 60.7788 15.0866 54.0752 15.0866 45.806C15.0866 54.0752 21.7901 60.7788 30.0593 60.7788C38.3285 60.7788 45.0321 54.0752 45.0321 45.806C45.0321 54.0752 51.7357 60.7788 60.0048 60.7788C60.0048 52.5096 53.3012 45.806 45.0321 45.806C53.3012 45.806 60.0048 39.1025 60.0048 30.8333C60.0048 22.5641 53.3012 15.8606 45.0321 15.8606C53.3012 15.8606 60.0048 9.15705 60.0048 0.887817C51.7357 0.887817 45.0321 7.59132 45.0321 15.8606C45.0321 7.59132 38.3285 0.887817 30.0593 0.887817ZM45.0321 45.806C45.0321 37.5369 38.3285 30.8333 30.0593 30.8333C30.0593 39.1025 36.7629 45.806 45.0321 45.806ZM30.0593 30.8333C38.3285 30.8333 45.0321 24.1298 45.0321 15.8606C45.0321 24.1298 51.7357 30.8333 60.0048 30.8333C51.7357 30.8333 45.0321 37.5369 45.0321 45.806C36.7629 45.806 30.0593 52.5096 30.0593 60.7788C30.0593 52.5096 23.3558 45.806 15.0866 45.806C23.3558 45.806 30.0593 39.1025 30.0593 30.8333ZM30.0593 30.8333C21.7901 30.8333 15.0866 37.5369 15.0866 45.806C15.0866 37.5369 8.38307 30.8333 0.113861 30.8333C8.38307 30.8333 15.0866 24.1298 15.0866 15.8606C15.0866 24.1298 21.7901 30.8333 30.0593 30.8333ZM30.0593 30.8333C30.0593 22.5641 36.7629 15.8606 45.0321 15.8606C36.7629 15.8606 30.0593 9.15705 30.0593 0.887817C30.0593 9.15705 23.3558 15.8606 15.0866 15.8606C23.3558 15.8606 30.0593 22.5641 30.0593 30.8333Z" fill="url(#paint0_linear_490_958)"/>
</g>
<defs>
<linearGradient id="paint0_linear_490_958" x1="30.0593" y1="0.887817" x2="30.0593" y2="60.7788" gradientUnits="userSpaceOnUse">
<stop stop-color="#B8DBFC"/>
<stop offset="1" stop-color="#F8FBFE"/>
</linearGradient>
</defs>
</svg>
