<svg width="507" height="190" viewBox="0 0 507 190" fill="none" xmlns="http://www.w3.org/2000/svg">
<g filter="url(#filter0_d_231_247)">
<path d="M14.0606 112.448C14.5146 109.497 14.217 119.347 14.8951 112.807C14.9409 114.17 14.9881 115.543 15.0339 116.907C14.7828 117.253 14.5323 117.607 14.2812 117.953C14.2073 116.121 14.1333 114.289 14.0594 112.448C14.0598 112.448 14.0602 112.448 14.0606 112.448ZM10.9158 109.947C11.632 111.626 11.823 116.959 12.4839 111.197C12.2381 110.739 11.9924 110.27 11.7466 109.812C11.9372 107.812 12.1278 105.8 12.3174 103.799C12.2237 103.08 12.1299 102.361 12.0372 101.642C12.4643 100.726 12.8926 99.8179 13.3208 98.9019C13.2583 99.7152 13.1947 100.54 13.1322 101.353C13.479 104.569 13.5739 107.43 13.6385 111.795C13.7396 111.412 13.8397 111.028 13.9408 110.644C13.7689 112.86 13.5966 115.074 13.4247 117.28C13.2559 115.364 13.0682 113.222 12.911 111.447C12.2412 114.288 12.614 119.3 12.7537 121.909C12.9443 125.461 12.6259 124.658 12.7592 127.294C12.78 127.715 13.0296 127.763 13.0339 128.594C13.0537 132.792 12.9213 140.945 12.3389 136.177C12.4139 129.268 11.9462 123.376 12.1171 116.598C11.4436 118.391 11.2144 114.82 10.9158 109.947ZM78.868 164.94C76.7743 165.267 72.5103 165.135 69.6214 164.908C69.6182 164.908 69.6147 164.908 69.6115 164.908C68.9757 164.858 67.536 164.423 69.6115 164.441C72.995 164.471 74.6309 165.155 76.4069 164.691C77.2015 164.777 78.036 164.854 78.868 164.94ZM86.2214 164.899C88.2968 165.067 87.3554 165.583 84.7567 165.443C84.7567 165.443 84.7567 165.444 84.7567 165.444C83.6721 165.386 85.8012 164.978 81.912 165.392C81.1177 165.07 80.3355 164.777 79.5505 164.466C80.5028 164.461 81.3715 164.452 82.3703 164.448C81.698 164.977 84.1465 164.733 86.2214 164.899ZM12.6302 139.684C13.106 140.011 13.103 138.644 13.4333 136.317C13.4176 138.513 13.401 140.71 13.3853 142.898C13.1333 141.823 12.8822 140.759 12.6302 139.684ZM12.7039 88.076C12.7039 88.0727 12.7039 88.0694 12.7039 88.066C12.6289 87.3462 12.5536 86.6243 12.4796 85.9138C12.6494 85.4837 12.8185 85.0586 12.9884 84.6285C12.829 82.0856 12.6696 79.529 12.5091 76.9861C13.0279 77.2951 12.9435 81.8596 13.3061 84.3744C13.1498 88.1136 12.8486 89.9154 12.4089 90.1585C12.5068 89.4669 12.606 88.7769 12.7039 88.076ZM498.364 125.365C498.221 124.515 498.077 123.675 497.933 122.824C497.867 123.955 497.817 125.077 497.741 126.217C498.366 129.199 497.813 129.479 497.852 133.386C497.971 145.362 498.942 142.185 497.52 153C497.587 144.317 496.919 147.654 496.404 142.419C496.796 141.334 497.68 146.522 497.863 143.006C497.448 136.949 497.062 131.125 496.794 124.404C496.727 124.6 496.659 124.795 496.591 124.992C496.634 126.057 496.677 127.114 496.719 128.18C496.538 127.03 496.358 125.906 496.175 124.737C496.587 126.214 496.357 122.45 496.829 122.954C497.04 123.178 497.332 124.842 497.533 125.824C497.642 123.29 497.743 120.692 497.849 118.131C498.017 119.458 498.184 120.784 498.352 122.102C498.357 123.186 498.361 124.261 498.366 125.345C498.366 125.352 498.365 125.359 498.364 125.365ZM75.1566 6.82371C78.3726 6.33399 84.2168 6.25296 87.2927 6.7979C83.2446 6.80624 79.2046 6.81537 75.1566 6.82371ZM12.0464 90.4026C12.1297 90.0384 12.212 89.6857 12.2953 89.3215C12.4494 90.9292 12.6026 92.5463 12.7567 94.154C12.5161 94.4624 12.2755 94.7779 12.036 95.0956C12.0391 93.5348 12.0433 91.9633 12.0464 90.4026ZM35.2607 165.686C34.0845 165.7 33.9804 165.692 32.5156 165.658C32.5173 165.658 32.5189 165.658 32.5206 165.659C31.9399 165.646 27.0817 165.505 27.6233 165.32C30.0354 165.317 32.6082 165.32 35.0764 165.32C35.151 165.442 35.1674 165.563 35.2607 165.686ZM12.4225 164.868C12.4229 164.865 12.4233 164.862 12.4237 164.858C12.4518 163.98 12.5091 163.149 12.5195 162.243C12.7756 165.107 12.4034 165.854 12.4091 168L10 165.591C10.2977 165.59 10.6225 165.582 10.9835 165.564C13.9465 165.415 15.7777 165.126 18.292 165.843C17.3571 165.95 16.3504 166.104 15.3875 166.229C12.8709 166.057 11.4545 166.085 10 166.195L11.8046 168C11.7305 167.023 11.6191 166.03 11.5057 164.674C11.812 164.74 12.1162 164.803 12.4225 164.868ZM488.318 165.915C487.514 166.269 486.617 165.922 486.524 165.917C486.526 165.917 486.527 165.917 486.529 165.916C479.408 166.244 487.456 165.72 480.735 165.665C481.735 165.576 482.719 165.483 483.709 165.393C485.242 165.564 486.822 165.758 488.318 165.915ZM256.939 165.882C256.874 165.779 256.795 165.675 256.73 165.572C260.769 165.596 261.798 165.19 265.154 165.56C262.416 165.668 259.678 165.776 256.939 165.883C256.939 165.883 256.939 165.882 256.939 165.882ZM55.6171 166.436C51.1388 166.633 47.8264 166.72 43.5258 166.407C43.5225 166.407 43.5191 166.406 43.5158 166.406C43.2679 166.387 44.4672 166.171 44.1435 166.116C43.2562 166.149 42.34 166.198 41.4433 166.237C41.3219 166.064 41.2061 165.891 41.0846 165.719C43.6085 165.768 46.134 165.817 48.6672 165.866C48.2932 165.765 47.9103 165.665 47.5363 165.564C49.6862 165.512 51.8281 165.46 53.978 165.408C53.2304 165.691 52.4844 165.975 51.7461 166.259C53.0357 166.318 54.3274 166.376 55.6171 166.436ZM324.176 167.01C323.465 166.898 324.781 166.709 323.678 166.612C322.574 166.517 320.541 166.727 321.017 166.409C322.503 166.366 324.063 166.317 325.576 166.272C320.705 165.7 315.846 166.218 315.771 165.511C320.446 165.694 324.289 165.609 328.814 165.413C328.627 165.974 324.101 166.46 326.951 166.987C326.035 166.994 325.073 167.005 324.186 167.009C324.183 167.01 324.179 167.01 324.176 167.01ZM5.00466 24.9791C5.04738 22.2118 4.8182 15.8713 5.14538 12.3747C5.226 11.5145 6.27043 8.64861 6.4081 8.66313C6.87175 8.74727 6.93486 12.2472 7.23701 8.49873C7.24015 9.75973 7.25755 10.9835 7.26589 12.2352C7.57743 12.0108 7.88814 11.7876 8.19864 11.5726C8.15176 10.0488 8.10463 8.52303 8.0567 6.99916C8.15986 6.92434 8.26324 6.8498 8.36639 6.77496C8.36848 12.2535 8.76661 9.01943 9.13754 11.8616C9.32505 9.2444 9.51165 6.60782 9.69916 4C9.67624 5.50495 9.65927 7.28086 9.63219 8.60833C10.1604 8.78599 10.0345 5.61881 10.1324 5.07611C10.6856 2.01921 10.4064 17.5827 11.1751 18.8563C11.2605 16.37 11.3439 13.7613 11.4283 11.2189C11.5231 11.948 11.6179 12.6868 11.7128 13.416C11.1826 19.1836 10.9947 25.6515 10.6645 32.3724C10.6863 32.9796 10.7088 33.588 10.7296 34.1859C10.9681 34.0083 11.2057 33.8403 11.4442 33.6627C11.4724 34.579 11.5003 35.5065 11.5284 36.4228C10.7429 33.7215 10.7536 37.4623 10.2743 41.9777C9.99824 39.5754 10.1656 36.6119 9.65123 36.8163C10.047 45.0613 9.4877 54.717 9.9345 62.7376C10.0449 64.7286 10.7085 64.7222 10.6473 69.4035C10.5743 69.2446 10.4427 69.2174 10.3468 69.1146C10.6646 77.2108 10.8546 82.123 10.5305 90.5371C10.769 90.0512 11.0085 89.5732 11.247 89.0873C11.1282 87.3017 11.0075 85.513 10.8888 83.7367C11.2826 82.5216 11.4564 84.3174 11.4522 78.9889C11.4491 74.6228 11.2752 77.2219 11.1585 76.0345C10.9992 74.4269 11.3126 73.0159 11.1345 71.2867C10.9981 69.9498 10.6731 71.3961 10.7554 67.9089C11.1764 69.3113 11.611 70.7419 12.0372 72.1536C11.9424 73.0043 11.8461 73.8486 11.7502 74.6994C11.6377 73.8393 11.5267 72.9938 11.4141 72.1336C11.6163 75.1625 11.8069 78.0244 12.0163 81.156C11.4078 80.137 11.6359 83.374 11.7078 85.1316C11.8203 87.8696 11.4015 85.5239 11.4713 87.3187C11.5422 89.1137 12.01 91.0496 11.91 94.2935C11.6391 92.5549 11.3962 94.92 11.1462 94.4629C10.8962 94.0049 10.8408 90.5735 10.568 93.87C10.7754 100.209 11.7275 93.3305 11.8817 97.6115C12.0672 102.753 10.5151 103.977 10.1815 102.444C9.91895 101.238 9.97175 97.0882 9.71022 95.8728C9.23825 103.305 10.17 103.37 10.3523 104.641C11.016 109.259 9.24464 106.157 9.88535 111.626C9.55409 111.523 9.25616 111.44 8.93846 111.337C8.99888 112.281 9.07919 112.907 9.1271 114.047C9.77252 110.685 9.74485 113.437 9.74586 114.849C9.74795 117.074 10.0628 113.637 10.144 114.226C10.3615 115.816 10.2628 118.329 10.5471 116.787C10.4148 117.479 10.2821 118.229 10.1508 118.939C10.3157 121.539 11.6983 127.648 11.419 121.834C11.9327 122.376 11.6858 124.257 11.6077 125.725C11.5296 127.192 11.8568 127.165 11.7963 128.455C11.5546 133.587 10.995 130.23 10.5563 129.417C10.8585 136.194 11.0584 129.559 11.2605 139.326C11.6179 140.27 11.9992 135.757 12.2056 139.515C11.5847 140.207 11.1387 142.974 10.9324 148.368C11.0751 148.892 11.2192 149.414 11.3619 149.937C10.7888 152.882 10.1929 151.377 10.9035 156.827C9.5959 153.901 10.4324 155.913 9.90009 160.793C9.79277 161.784 9.52148 159.494 9.38394 160.878C9.32192 161.505 9.5267 163.028 9.36858 164.559C9.32217 165.004 9.12545 166.418 9.02353 168L9.03111 168.984L10 168.976C11.0817 169.046 12.2422 169.072 13.2253 168.974C11.449 168.341 16.0498 167.802 12.1044 167.278C19.3966 167.407 24.5002 167.103 16.3291 167.967C18.1803 168.158 20.0329 168.349 21.884 168.54C23.1742 168.389 24.4755 168.239 25.775 168.089C25.9711 168.61 25.774 168.756 30.8566 168.664C28.6514 168.787 26.4551 168.912 24.2405 169.036C24.1658 169.141 23.8576 169.25 23.9316 169.352C26.6442 169.152 34.2816 169.066 36.1325 168.928C37.9836 168.789 34.4089 168.751 34.9418 168.617C39.3817 167.508 39.0296 168.326 42.2156 168.136C44.0853 168.023 39.6209 167.901 40.6213 167.853C44.3303 167.677 46.0509 168.266 49.3398 168.274C48.1714 167.939 47.0126 167.6 45.8723 167.262C49.3221 167.28 53.1676 167.283 56.3743 167.176C57.6331 167.134 56.6819 166.885 56.8875 166.869C57.9073 166.783 62.0579 166.648 62.4972 166.647C65.8048 166.645 65.8993 166.989 69.1133 167.008C67.8517 167.037 66.6652 167.063 65.4316 167.092C64.8708 167.65 64.2986 168.208 63.7377 168.768C66.8877 168.808 70.0392 168.848 73.1985 168.889C70.8896 168.702 68.5724 168.517 66.2636 168.33C69.8722 167.879 73.4808 167.427 77.0895 166.975C78.9685 167.252 80.8401 167.529 82.7191 167.806C87.8221 167.733 86.7945 166.608 89.2156 167.594C90.7201 167.51 92.2247 167.427 93.7293 167.345C93.5143 167.485 93.3016 167.626 93.0866 167.767C94.9003 167.68 96.7133 167.594 98.5269 167.507C96.6199 167.009 94.7507 166.485 92.8624 166.002C96.4315 165.893 96.5001 166.316 97.0323 166.421C98.4441 166.7 101.246 166.324 102.368 166.582C102.747 166.671 99.2496 166.949 100.455 167.27C100.69 167.332 105.373 168.511 108.361 168.239C108.305 168.025 108.074 167.763 107.953 167.531C111.971 167.401 114.021 168.516 113.488 168.829C115.629 168.61 118.758 168.592 119.197 168.25C120.291 168.242 121.377 168.234 122.47 168.225C121.331 169.058 125.893 168.905 126.192 168.19C124.313 168.172 122.431 168.153 120.552 168.136C121.973 167.258 116.263 166.729 128.145 167.541C130.417 167.998 124.107 167.479 125.958 167.821C129.173 168.02 132.192 167.853 135.249 168.171C139.053 168.568 134.373 168.95 143.235 168.445C123.687 167.179 145.916 167.589 155.097 167.197C157.622 168.447 165.375 168.843 176.052 168.471C174.939 168.123 171.58 168.302 169.645 168.188C167.71 168.073 169.803 167.867 167.393 167.704C164.982 167.542 159.86 167.321 157.419 167.075C159.486 166.878 169.692 166.412 162.944 166.972C167.981 167.317 170.347 167.671 176.59 167.736C178.459 167.193 178.321 166.855 184.406 166.839C180.807 167.593 187.722 168.118 186.2 168.897C181.884 168.715 184.297 167.958 181.801 167.595C181.545 167.559 177.524 167.749 176.59 167.736C180.647 168.416 182.05 168.669 179.554 169.479C182.424 169.408 184.209 169.51 184.471 169.123C185.069 169.291 185.671 169.459 186.26 169.626C187.194 169.622 188.035 169.607 189.025 169.61C187.661 169.027 190.304 169.385 192.183 169.121C194.062 168.856 191.541 168.396 196.702 168.39C194.982 168.253 193.409 168.136 191.745 168.007C195.073 167.857 198.411 167.706 201.739 167.556C199.402 167.2 194.337 166.671 194.475 166.202C196.008 166.379 201.259 166.068 201.833 166.055C204.058 166.007 202.846 166.303 203.014 166.31C206.51 166.454 209.389 166.353 210.716 166.801C213.343 166.599 215.324 166.714 218.11 166.703C219.643 166.696 219.345 166.367 220.242 166.43C226.206 166.847 220.524 167.272 232.029 166.462C230.636 166.233 229.262 165.999 227.869 165.767C229.169 165.681 230.461 165.594 231.76 165.507C232.63 165.549 233.491 165.591 234.361 165.633C234.342 166.13 234.32 166.628 234.301 167.125C235.255 167.152 236.212 167.178 237.166 167.205C235.53 167.254 233.889 167.303 232.253 167.352C232.104 167.44 231.964 167.527 231.815 167.614C234.246 167.75 236.668 167.887 239.099 168.023C239.145 167.85 239.191 167.676 239.238 167.503C244.717 167.744 244.847 167.89 250.054 167.414C254.065 167.419 257.331 166.697 259.649 166.392C260.481 166.489 261.314 166.587 262.155 166.684C262.688 166.54 263.227 166.397 263.759 166.253C264.816 166.453 265.887 166.654 266.943 166.853C267.532 166.399 267.837 166.257 263.715 166.097C265.126 165.533 272.383 165.782 275.338 165.971C277.579 166.115 275.092 166.586 275.372 166.644C276.308 166.838 280.002 166.67 280.778 166.703C284.059 166.837 286.358 166.813 289.322 166.918C289.899 166.939 291.512 167.237 291.649 167.246C292.714 167.297 295.345 167.443 295.644 167.447C311.076 167.67 294.587 166.374 308.936 166.511C308.506 166.34 308.111 166.17 307.691 166C308.775 165.989 309.87 165.979 310.954 165.969C312.328 166.112 310.666 166.371 313.395 166.162C313.217 166.372 313.039 166.583 312.852 166.792C314.039 166.679 315.184 166.566 316.399 166.453C318.306 167.183 325.269 167.349 324.774 168.206C324.606 168.498 319.67 168.797 322.278 169.109C324.397 169.17 322.963 168.822 323.827 168.803C330.072 168.676 329.71 169.165 332.262 169.035C332.664 168.825 333.086 168.612 333.497 168.4C334.46 168.462 335.425 168.523 336.397 168.585C336.621 168.444 336.855 168.303 337.079 168.163C336.173 168.153 335.151 168.144 334.319 168.134C335.48 167.59 346.134 167.345 342.071 167.809C340.417 167.998 337.386 167.918 339.301 168.561C342.153 168.469 345.388 168.374 348.388 168.281C348.482 168.42 348.569 168.559 348.662 168.697C352.707 168.607 349.029 168.053 349.036 167.756C349.961 167.748 350.896 167.741 351.821 167.732C352.213 167.867 352.586 168.007 352.997 168.137C353.034 167.924 353.553 167.427 356.31 167.611C358.083 167.731 355.291 168.271 358.671 168.196C358.419 167.862 357.197 167.456 360.963 167.349C361.337 167.697 361.854 168.016 362.144 168.381C366.827 168.047 368.958 168.584 374.454 168.196C377.941 167.95 382.718 167.077 384.971 168.422C387.522 168.457 386.712 168.122 387.467 168.047C391.029 167.691 393.679 168.328 394.342 168.366C398.576 168.606 400.474 168.386 403.923 168.687C403.736 168.438 403.634 168.202 403.484 167.959C400.324 168.332 398.724 168.315 394.292 168.234C395.779 168.184 397.265 168.133 398.751 168.083C398.508 167.881 398.268 167.679 398.034 167.478C384.328 168.274 387.525 167.016 399.015 166.741C400.006 167.115 401.033 167.488 402.015 167.863C408.652 167.297 411.776 167.789 419.282 167.906C420.175 167.92 423.425 167.704 424.822 167.694C424.799 167.692 424.776 167.691 424.752 167.689C425.621 167.336 424.444 167.174 424.304 166.858C425.061 166.818 425.819 166.779 426.576 166.739C428.267 166.98 427.672 167.178 431 167.12C430.551 166.881 430.108 166.641 429.66 166.402C433.306 166.393 435.692 166.654 439.086 166.541C438.515 166.632 437.952 166.723 437.382 166.813C444.767 167.045 438.89 168.453 444.471 167.752C444.826 167.875 445.172 167.999 445.527 168.122C443.228 168.152 440.927 168.182 438.637 168.212C438.59 168.386 438.54 168.559 438.503 168.733C440.961 168.681 443.432 168.627 445.891 168.575C444.096 168.692 442.29 168.808 440.495 168.925C443.347 169.008 446.198 169.092 449.05 169.175C446.022 168.536 449.947 168.457 449.209 167.824C454.257 168.351 458.223 169.046 466.048 168.601C467.599 168.513 466.757 168.07 471.16 168.609C470.094 167.904 475.61 167.574 474.901 166.904C473.368 166.936 471.779 166.957 470.293 166.996C471.985 167.229 472.265 167.868 469.695 168.058C466.414 168.299 461.628 167.856 461.823 168.566C460.515 168.532 459.298 168.513 458.027 168.485C458.55 168.309 459.063 168.131 459.576 167.956C455.96 168.231 453.688 168.142 451.949 167.698C456.258 167.596 460.558 167.495 464.867 167.394C464.233 167.364 463.589 167.333 462.954 167.304C466.217 166.851 462.851 166.422 468.938 166.325C468.9 166.532 468.87 166.739 468.833 166.948C471.049 166.393 477.115 166.396 475.18 165.759C477.012 165.955 477.386 166.079 478.423 165.735C483.257 166.219 486.361 166.832 484.641 167.563C486.435 167.446 488.231 167.328 490.016 167.21C488.979 167.01 487.94 166.811 486.903 166.611C490.025 166.624 493.171 166.636 496.284 166.647C496.583 167.239 490.274 166.827 492.094 167.356C492.458 167.462 494.139 167.235 494.58 167.294C499.235 167.941 491.927 167.474 493.3 167.97C498.175 168.077 496.882 168.52 499 168.531L499.535 168.526L499.531 168C499.535 167.104 499.463 165.599 499.255 162.76C499.426 162.508 499.6 162.236 499.77 162.003C499.781 158.686 499.395 158.955 499.322 156.104C499.276 154.319 499.954 152.078 499.493 150.106C499.407 149.754 498.579 153.071 498.616 146.1C498.644 140.69 499.229 142.942 499.437 140.017C499.644 137.091 498.832 130.397 499.752 128.424C499.631 129.957 499.565 131.909 499.465 133.61C499.644 134.302 499.821 134.976 499.999 135.658C499.768 131.769 500.041 127.749 499.614 125.131C500.267 119.942 499.661 114.139 498.923 115.71C499.029 117.418 499.351 115.56 499.146 117.932C498.974 118.175 498.803 118.431 498.631 118.674C498.652 114.636 498.647 111.831 499.171 113.672C499.184 113.046 499.196 112.426 499.209 111.799C498.829 111.687 498.449 111.588 498.069 111.475C498.027 110.728 497.984 109.976 497.942 109.229C498.025 108.397 498.109 107.564 498.194 106.723C498.794 107.854 498.814 109.781 499.149 103.405C498.942 103.386 498.735 103.359 498.528 103.34C498.791 98.0019 499.294 97.861 499.275 91.1589C499.995 96.3007 498.719 99.1139 500.163 99.0952C500.068 100.385 499.972 101.686 499.877 102.976C500.087 103.172 500.296 103.367 500.506 103.554C500.395 96.6271 499.018 85.1204 499.931 80.4825C499.82 79.9217 499.723 79.3588 499.603 78.7886C500.154 74.245 498.917 72.2829 499.63 67.6738C499.704 67.1983 500.867 68.1934 500.825 62.1936C500.674 62.3431 500.42 62.4209 500.229 62.5424C500.322 61.2433 500.419 59.9511 500.514 58.6614C500.374 58.4277 500.235 58.1826 500.094 57.949C500.04 60.1647 499.985 62.3742 499.931 64.59C499.883 62.7489 499.835 60.896 499.787 59.055C499.559 61.457 499.556 62.5404 499.191 61.0926C499.169 59.0078 499.146 56.9201 499.124 54.8352C499.03 54.6205 498.935 54.4073 498.842 54.1926C498.563 55.2022 498.29 56.2219 498.006 57.2316C498.234 51.8001 498.247 47.0778 498.796 42.9084C498.888 42.1979 499.252 44.7106 498.924 39.8693C499.117 39.7945 499.273 39.6645 499.451 39.5804C498.912 33.6531 499.073 31.7059 499.462 25.5262C499.099 29.5276 499.335 25.9574 499.14 24.9383C499.006 24.2401 499.026 26.9653 498.885 26.6571C498.746 26.3486 498.182 22.8074 498.114 25.8351C499.27 33.2582 497.888 35.2804 498.444 44.8165C498.295 43.3486 498.145 41.8702 497.996 40.4024C497.895 41.0937 497.804 41.7126 497.696 42.46C497.923 37.1414 497.776 39.7281 497.598 37.5428C497.419 35.3551 497.268 31.3791 497.219 28.7147C497.204 27.8754 497.463 28.7606 497.487 26.8664C497.504 25.5764 497.119 22.0507 497.572 21.2367C497.867 20.7039 498.679 26.3678 498.677 18.5365C498.966 17.0624 498.876 20.8172 498.911 20.8979C499.255 21.5804 499.514 16.766 499.251 14.5409C499.228 14.3607 498.96 16.1178 498.855 14.2071C498.604 9.67286 498.912 7.05421 499.327 4.11861C499.293 4.09618 499.258 4.05635 499.223 4L499.221 3.77536L499 3.77706C498.258 4.23875 494.65 4.73002 490.236 4.56248C489.993 4.70203 489.761 4.8428 489.518 4.98339C490.256 4.90953 490.993 4.83666 491.73 4.7628C492.534 4.85032 493.386 4.91403 494.172 5.01719C489.395 5.1371 488.72 5.80914 486.43 6.05501C478.592 6.89495 483.342 5.11821 484.756 4.81196C485.775 4.93595 486.76 5.07435 487.77 5.2046C487.658 5.03476 487.544 4.86363 487.441 4.69275C475.708 4.69794 485.654 3.59028 479.699 3.27457C478.166 4.11016 473.792 4.19069 468.22 3.66045C467.603 3.66462 466.984 3.66569 466.367 3.6709C466.264 3.79273 466.266 3.97896 466.098 4.05924C459.385 4.20094 458.19 2.91412 457.554 2.79222C454.731 2.25153 452.532 2.99964 451.7 3.00605C448.194 3.0321 447.176 2.69992 443.838 2.8426C440.249 2.99677 442.703 3.25165 441.612 3.4798C440.736 3.66098 437.904 3.69325 436.734 3.88104C437.199 3.72745 437.716 3.57683 438.179 3.42265C434.459 3.21326 431.419 3.00917 427.194 2.95812C422.426 4.08198 418.37 2.18618 420.015 3.72374C424.016 3.82898 426.253 4.00419 428.394 4.39596C425.768 4.44597 423.139 4.49466 420.513 4.54466C419.746 4.37591 419.202 4.21145 418.296 4.03958C416.333 4.39793 411.782 4.24415 409.996 4.34926C401.629 4.8421 404.217 5.45335 396.579 4.42607C402.084 4.32598 402.076 3.82704 407.535 3.89579C406.357 3.53945 403.583 3.61328 405.378 3.18609C400.096 3.29131 401.803 3.67271 399.748 4.01131C397.975 4.30321 394.405 4.31956 394.607 4.69889C394.241 4.49033 393.959 4.28842 393.595 4.08013C390.174 4.08221 386.753 4.08235 383.332 4.08443C384.79 3.8667 386.248 3.64856 387.706 3.43187C386.604 3.34963 385.501 3.26771 384.398 3.18547C375.984 3.86273 361.475 2.62149 363.793 4.32284C359.736 4.37702 359.228 4.16363 357.022 3.84172C356.779 3.97088 356.543 4.07831 356.3 4.22207C353.683 4.08686 351.674 4.57179 349.365 4.44574C347.056 4.32065 346.483 3.8626 346.147 4.63253C344.651 4.41168 343.164 4.22822 341.678 4.02298C340.781 4.1979 339.885 4.37079 338.998 4.54466C337.595 4.45298 336.19 4.36168 334.788 4.27C334.038 4.63752 328.525 4.47911 326.094 4.72593C323.787 4.32976 323.85 3.08238 318.422 3.30591C318.562 3.61528 318.7 3.92376 318.84 4.23313C317.597 4.16854 316.351 4.10416 315.099 4.03958C315.024 3.9386 314.959 3.83762 314.885 3.73665C315.52 3.7679 316.147 3.79898 316.783 3.83127C316.231 3.66039 315.691 3.4903 315.149 3.31942C313.251 3.57258 311.351 3.82575 309.444 4.0789C312.015 4.27057 314.586 4.46237 317.157 4.65404C313.931 4.88118 311.686 4.65462 308.881 4.90781C306.442 4.48069 307.343 4.23457 308.333 3.77106C307.427 3.81063 306.51 3.84884 305.603 3.88842C306.201 3.42484 304.668 3.14861 309.968 3.18609C309.603 3.05386 309.231 2.9278 308.876 2.79037C308.007 2.81121 307.443 2.69944 306.49 2.75043C303.891 2.89005 301.898 3.70431 302.076 3.9898C302.172 4.13935 304.735 3.85335 304.632 4.06477C304.378 4.58032 298.5 4.34885 306.978 4.86664C304.164 5.19485 303.536 4.94733 300.432 4.85251C300.675 5.02431 300.911 5.19502 301.144 5.36682C299.705 5.28766 298.264 5.20879 296.825 5.12963C298.826 4.24715 288.214 3.91569 297.767 3.14369C294.944 3.1041 292.131 3.06431 289.317 3.02264C289.897 2.93201 290.476 2.84229 291.056 2.75166C292.327 2.79958 293.591 2.84672 294.862 2.8936C293.367 2.72798 291.869 2.56335 290.373 2.39773C286.84 2.60299 285.454 2.91868 283.837 3.30836C287.95 3.59273 286.606 3.2043 289.81 3.1271C289.698 3.37388 289.846 3.60087 289.566 3.86015C287.91 3.34898 282.509 3.72086 281.256 3.74586C277.444 3.82179 280.434 3.31954 277.884 3.30898C275.331 3.29856 272.321 3.5975 270.236 3.09945C270.274 3.3786 270.44 3.66742 270.59 3.9216C266.617 4.01329 267.409 3.68351 266.998 3.64079C260.435 2.93854 256.874 3.53141 249.367 3.60331C250.32 3.68977 251.283 3.76783 252.246 3.84909C246.583 4.44179 250.398 4.26031 255.315 4.45618C250.706 4.39679 248.067 4.90156 244.813 5.0516C241.56 5.20138 235.981 4.94213 233.942 4.74006C238.608 4.41498 243.639 4.62936 248.819 4.53975C248.23 4.25537 247.658 4.0147 247.05 3.70224C243.9 4.29909 242.074 3.90001 241.037 3.82083C237.99 3.58859 238.085 4.10087 236.244 3.54985C236.319 3.73941 236.374 3.89878 236.448 4.07583C230.157 3.99665 223.37 3.66153 219.275 4.36155C218.902 3.90627 218.619 3.46763 218.189 3.00298C215.525 3.3457 213.244 2.99474 211 3.07487C208.766 3.1551 209.617 3.52304 206.99 3.66475C206.504 3.6908 205.491 3.46051 204.295 3.63034C203.086 3.80108 198.63 5.07055 198.097 3.96154C195.844 3.95632 193.712 3.91577 191.506 3.89702C193.656 3.83451 195.807 3.77396 197.948 3.71145C196.115 3.44266 194.295 3.17468 192.462 2.90589C192.229 3.14554 191.994 3.38952 191.77 3.62604C186.834 3.91778 183.252 3.52596 178.269 3.61867C177.437 3.6343 179.4 4.1081 175.708 3.98735C172.015 3.86649 169.275 2.98215 162.984 3.32373C162.666 3.34144 160.803 4.01873 158.55 3.54985C158.037 3.44358 160.195 3.28634 159.018 3.14676C157.84 3.00714 152.584 2.89233 152.173 2.55995C152.229 2.67765 152.557 2.79962 152.716 2.91941C151.819 2.97566 150.913 3.03195 150.006 3.08716C149.922 2.87984 149.831 2.67221 149.747 2.46594C144.586 2.94834 141.919 3.73526 134.273 3.47488C136.423 3.77598 138.574 4.07828 140.715 4.37937C141.303 4.16786 141.894 3.95492 142.473 3.7434C145.997 3.82779 149.531 3.91157 153.055 3.99595C153.635 3.75526 154.204 3.51526 154.784 3.27457C155.718 3.30582 156.644 3.3361 157.579 3.36735C157.345 3.54135 157.109 3.71442 156.866 3.88842C158.717 3.84571 160.57 3.80209 162.411 3.75938C158.662 4.78643 151.942 3.67202 152.427 4.53115C151.596 4.39785 150.763 4.26362 149.931 4.12929C149.567 4.54587 147.875 4.42597 144.894 4.36033C145.577 4.56559 146.331 4.76806 146.957 4.9754C144.059 4.68578 138.918 4.7139 135.917 4.60242C134.599 4.55346 135.915 4.25143 135.523 4.21593C133.513 4.03046 129.671 4.55746 128.867 4.51578C124.062 4.26776 120.94 3.26864 115.695 3.92713C121.108 4.08967 118.163 4.02102 120.089 4.38675C120.692 4.50141 127.685 4.74061 118.928 4.63438C117.902 4.62108 102.013 3.93076 107.236 3.40176C104.665 3.57056 102.652 3.76573 100.296 3.94495C94.5367 2.55082 96.5297 3.8605 98.2032 4.58153C97.259 4.58466 96.3607 4.59198 95.3884 4.59198C97.4546 3.83448 86.9282 3.78745 83.3569 4.16984C82.1603 4.29696 85.5063 4.53942 82.7391 4.65404C81.4215 4.60092 79.9267 4.53214 78.5343 4.47277C80.5536 4.95203 76.5907 5.13673 76.6462 5.62428C74.1128 5.18982 72.175 4.26895 73.5673 3.76983C71.4735 3.97192 69.3688 4.17378 67.2751 4.37692C68.2473 4.49257 69.2322 4.60721 70.2045 4.72286C63.361 4.41653 54.5616 5.11358 53.1312 4.08935C52.2244 4.09664 51.3079 4.10295 50.4011 4.11024C50.1206 4.2832 49.8496 4.4565 49.5691 4.62946C45.4658 4.47945 41.3718 4.32845 37.2686 4.17844C40.9221 4.07111 41.7918 3.82492 45.6233 4.02483C44.1468 3.8259 42.6428 3.62588 41.1944 3.42696C35.4261 3.96251 34.6392 4.31449 25.9545 4.15509C25.5618 4.1478 18.9998 3.69868 18.7754 3.65492C17.7475 3.45488 19.3079 3.16428 18.8502 3.06319C17.5787 2.77978 9.85256 2.06817 10.0021 1.96085C11.8907 0.643825 37.8854 0.626368 44.9159 0.558642C117.838 -0.143593 189.154 0.795908 261.617 0.635449C262.362 0.632966 262.037 0.438546 262.355 0.430219C264.327 0.381389 266.264 0.684395 266.993 0.696896C268.551 0.722659 267.693 0.442707 268.831 0.442508C280.592 0.445634 291.691 0.610255 303.461 0.562328C304.228 0.559202 303.445 0.783189 304.791 0.743595C305.486 0.721915 307.662 0.378276 309.23 0.373074C314.709 0.355369 319.31 0.465537 325.088 0.460327C328.248 0.457217 332.988 0.486428 336.522 0.481219C338.082 0.479005 339.708 0.321796 341.249 0.316543C343.437 0.309249 342.99 0.627942 343.327 0.647739C344.804 0.7342 345.009 0.384413 346.411 0.392736C349.019 0.409407 349.16 0.642947 352.469 0.62316C354.834 0.608573 360.248 0.424183 363.23 0.370001C370.204 0.640881 378.993 0.533342 385.499 0.443737C389.351 0.390619 389.708 0.7176 391.279 0.716559C396.812 0.710225 401.012 0.292605 406.21 0.279061C413.107 0.261416 419.22 0.537559 425.903 0.557413C426.987 0.560536 426.738 0.26094 427.801 0.253253C431.737 0.225121 436.77 0.170593 440.276 0.213313C444.184 0.26026 445.625 0.695128 449.448 0.60657C450.569 0.580274 450.898 0.198977 452.776 0.150023C455.777 0.0730407 459.067 0.40928 461.161 0.446809C464.031 0.496823 461.535 0.108372 465.406 0.160469C465.565 0.162718 466.144 0.440395 466.975 0.427146C469.396 0.389636 469.156 0.170968 472.699 0.191807C473.039 0.194685 477.737 0.459267 478.204 0.460327C480.953 0.464495 486.486 0.557127 488.113 0.500882C493.929 0.300828 489.35 -0.116816 494.296 0.78968C495.853 0.631058 497.401 0.470897 499 0.313681L502.658 0.285484L502.686 4C502.749 4.63782 502.811 5.28387 502.873 5.94202C502.672 4.4013 502.381 10.654 502.4 11.0934C502.551 14.728 502.904 12.563 502.846 17.1714C502.031 11.0852 502.741 23.117 502.761 25.8002C502.863 38.7199 502.659 50.4639 502.664 63.4491C502.667 67.7962 502.839 73.6217 502.835 78.2207C502.834 79.2927 502.642 78.4827 502.637 79.4263C502.635 80.3676 502.851 79.3233 502.84 80.3978C502.764 87.0819 502.356 92.3192 502.867 98.4426C502.793 98.7407 502.734 98.7311 502.653 99.2247C503.111 104.236 502.496 113.886 502.411 117.514C502.28 123.187 502.589 124.636 502.527 128.758C502.443 134.208 501.839 142.391 502.836 138.737C502.868 142.476 502.876 146.075 502.784 149.852C502.773 150.272 502.52 149.982 502.514 150.151C502.478 151.216 502.705 151.563 502.715 152.283C502.743 154.234 502.472 151.05 502.548 153.832C502.588 155.3 502.786 156.133 502.79 160.209C502.793 162.784 502.794 165.383 502.794 168L502.823 171.765L499 171.794C476.646 171.798 452.908 171.738 430.362 171.708C428.632 171.706 429.771 171.951 427.602 171.935C420.067 171.881 406.579 171.469 400.082 171.525C393.584 171.581 395.05 171.94 390.984 172.09C390.199 172.119 390.843 171.915 390.133 171.911C385.355 171.893 379.66 171.574 375.789 171.526C373.23 171.494 373.435 171.815 371.659 171.838C369.014 171.872 366.291 171.547 364.879 171.537C358.242 171.491 353.679 171.752 347.482 171.619C347.724 171.69 347.884 171.755 348.09 171.825C340.751 171.813 333.422 171.802 326.084 171.79C326.43 171.855 326.764 171.92 327.11 171.986C318.501 171.95 319.483 171.25 320.24 172.729C319.614 172.781 318.95 172.841 318.352 172.889C318.595 172.127 313.387 171.57 306.759 171.376C306.273 171.362 303.011 172.104 303.366 171.227C302.516 171.442 302.009 171.59 301.289 171.778C299.887 171.512 298.466 171.25 297.064 170.985C296.307 171.025 295.539 171.063 294.782 171.103C294.67 171.275 294.756 171.453 294.513 171.622C290.998 171.648 283.79 171.436 281.012 171.457C274.113 171.513 267.088 171.977 261.722 171.475C259.108 171.526 261.704 171.864 257.816 171.821C257.377 171.65 256.964 171.487 256.506 171.31C253.328 172.074 252.665 171.609 248.31 171.45C245.366 171.342 243.437 171.528 240.633 171.492C239.923 171.482 240.023 171.258 239.537 171.266C237.909 171.289 233.263 171.597 232.114 171.605C221.7 171.687 212.753 171.652 202.835 171.57C201.769 171.561 203.151 171.783 202.048 171.773C200.273 171.758 201.317 171.419 200.289 171.402C197.421 171.357 197.399 171.716 193.399 171.734C180.227 171.796 165.082 171.527 151.321 171.503C150.891 171.503 150.917 171.713 150.449 171.715C147.402 171.725 144.318 171.441 141.551 171.444C136.961 171.449 133.511 171.743 128.977 171.742C120.114 171.741 112.196 171.59 103.08 171.582C95.62 171.575 89.1407 171.603 80.9605 171.602C57.5067 171.599 33.7385 171.885 10 171.982L6.04905 172.012L6.01812 168C5.96746 155.573 5.96869 143.153 6.09042 130.792C6.09979 129.876 6.28525 130.249 6.27722 129.97C6.19699 127.315 5.94676 127.078 6.47077 126.133C6.3675 122.751 5.97381 121.684 6.00194 117.599C6.01668 115.422 6.62687 117.048 6.31224 113.365C6.02782 110.039 5.69341 113.709 6.03512 103.819C6.04451 103.557 6.41644 102.269 6.31962 100.212C6.22376 98.146 5.95743 100.538 5.8772 95.5639C5.68967 83.8876 6.01117 69.1079 5.91223 55.5337C5.90597 54.6829 5.70713 46.4896 5.61544 44.8722C5.43728 41.7423 5.16088 42.3962 5.09315 38.3309C5.04105 35.1895 5.35414 32.5978 5.29162 28.905C5.28402 28.4748 4.96197 27.7544 5.00466 24.9791ZM497.74 111.809C497.424 111.043 496.261 109.659 496.615 105.024C496.648 104.584 497.448 106.956 497.575 104.396C497.66 106.901 497.687 109.341 497.741 111.809C497.741 111.809 497.741 111.809 497.74 111.809ZM12.4206 4.88679C12.3623 8.35526 12.3045 11.8357 12.2461 15.3041C12.1055 12.9109 11.9651 10.514 11.8234 8.13006C12.0223 7.04577 12.2216 5.97109 12.4206 4.88679ZM278.656 166.132C278.652 166.132 278.649 166.132 278.646 166.132C282.292 165.982 285.94 165.831 289.586 165.681C289.203 165.792 288.819 165.903 288.435 166.013C285.556 166.187 282.676 166.361 279.806 166.535C279.423 166.4 279.039 166.266 278.656 166.132ZM249.85 167.301C247.522 167.17 248.092 166.948 246.811 166.733C246.811 166.733 246.811 166.734 246.811 166.734C246.473 166.678 244.898 166.629 244.29 166.62C244.514 166.759 244.804 166.896 245.047 167.033C239.615 167.369 228.993 166.176 242.745 165.696C242.54 165.871 242.343 166.045 242.138 166.22C248.972 166.171 256.59 166.551 249.85 167.301ZM497.236 56.8579C496.663 51.0241 496.542 49.1535 496.935 42.0764C497.098 43.076 497.26 44.0759 497.422 45.0755C497.257 46.2441 497.092 47.4043 496.927 48.5729C496.927 48.5762 496.927 48.5795 496.927 48.5828C497.101 48.8166 497.275 49.051 497.449 49.2753C497.378 51.7993 497.307 54.334 497.236 56.8579ZM26.5372 166.887C24.9112 165.742 25.3804 166.408 30.0246 166.15C31.6326 166.06 30.0655 165.86 31.0658 165.826C36.4678 165.644 36.8998 166.411 35.6941 166.81C32.637 166.837 29.5482 166.862 26.5472 166.887C26.5439 166.887 26.5405 166.887 26.5372 166.887ZM10.8752 44.379C10.8752 44.3757 10.8752 44.3724 10.8752 44.369C11.1544 44.2288 11.2295 46.4065 11.494 43.9505C11.493 45.819 11.4908 47.6874 11.4897 49.5652C11.4637 49.0145 11.4389 48.452 11.4129 47.9013C11.317 48.3874 11.22 48.8748 11.1241 49.361C11.445 50.0247 11.2585 50.6414 11.1511 52.6043C11.4939 52.062 11.837 51.5224 12.1798 50.9801C12.0777 53.2608 11.9752 55.5497 11.8731 57.8304C11.7867 57.8584 11.7002 57.887 11.6138 57.9151C11.7242 58.7748 11.8358 59.626 11.9463 60.4858C11.8431 60.7195 11.7409 60.9446 11.6378 61.1783C11.7159 62.2156 11.794 63.2547 11.8731 64.292C11.6233 64.6077 11.5153 62.3214 11.5788 66.3745C11.3225 65.1312 11.067 63.8906 10.8107 62.638C10.8316 56.5519 10.8534 50.465 10.8752 44.379ZM68.7894 166.535C62.0866 166.583 63.9743 166.402 65.5262 165.835C66.6104 166.068 67.7054 166.302 68.7894 166.535ZM414.131 167.039C416.075 166.653 418.028 166.27 420.019 165.897C423.984 165.681 427.949 166.386 424.967 166.662C421.377 166.993 417.627 166.623 414.131 167.039ZM497.867 162.586C497.688 167.435 497.229 162.872 496.961 161.779C497.391 160.437 497.353 158.566 497.403 155.561C497.431 158.383 497.898 161.784 497.869 162.586C497.868 162.586 497.868 162.586 497.867 162.586ZM336.083 166.605C334.14 166.616 332.206 166.724 330.468 166.593C330.993 166.224 334.469 166.56 331.983 166.012C333.226 166.003 334.471 165.993 335.704 165.983C334.92 166.21 335.975 166.38 336.078 166.604C336.08 166.604 336.081 166.605 336.083 166.605ZM133.735 166.099C137.549 166.537 138.272 166.35 142.114 166.046C142.656 166.403 138.074 167 135.204 167.131C134.718 166.787 134.23 166.443 133.735 166.099ZM126.043 5.71829C126.959 5.26413 133.715 5.2049 137.073 5.33916C136.673 5.40652 136.272 5.47478 135.872 5.54317C132.6 5.60152 129.315 5.65994 126.043 5.71829ZM497.434 154.131C497.421 154.634 497.411 155.111 497.403 155.561C497.398 155.061 497.406 154.578 497.434 154.131ZM446.046 3.5947C447.644 3.16651 442.893 3.02265 448.661 3.19039C448.661 3.18998 448.661 3.18957 448.661 3.18916C452.475 3.2996 453.318 3.32909 456.851 3.36244C455.579 3.9125 448.41 4.10912 458.291 4.22269C458.421 4.22319 458.162 3.89588 459.741 3.94065C460.228 3.95457 461.788 4.22319 464.16 4.30134C464.927 4.32634 470.687 4.40919 462.835 4.4144C463.069 4.79783 462.647 5.18594 462.665 5.55791C459.6 5.66602 457.244 4.9152 454.002 4.93362C449.187 4.96279 446.737 5.72203 445.811 4.72593C449.86 4.4812 456.812 4.47532 457.718 5.07433C461.635 5.08162 462.76 4.59085 459.602 4.34804C446.073 4.65645 455.888 3.61955 444.043 4.01131C443.903 4.14984 443.415 4.29893 443.49 4.42914C439.874 3.94163 445.475 3.74785 446.046 3.5947ZM474.333 4.65404C471.996 4.94683 469.666 5.24196 467.339 5.53579C467.339 5.05859 468.622 4.63037 472.306 4.36155C472.978 4.45942 473.661 4.55722 474.333 4.65404ZM277.724 4.77939C277.388 5.03882 276.49 5.27657 275.836 5.5235C275.125 5.3047 258.297 5.09479 266.858 4.88016C268.102 4.8489 275.686 5.30766 277.724 4.77939ZM107.25 166.49C109.232 166.664 111.206 166.838 113.179 167.012C110.142 167.123 107.103 167.236 104.067 167.348C105.131 167.062 106.186 166.776 107.25 166.49ZM446.394 167.495C445.557 167.485 448.337 167.128 445.039 167.184C447.498 166.956 449.8 166.763 452.203 166.548C452.923 166.717 453.65 166.885 454.37 167.054C454.931 166.946 455.503 166.838 456.064 166.73C455.728 166.976 455.428 167.216 455.073 167.466C451.025 166.939 450.096 167.536 446.394 167.495ZM326.024 168.456C325.296 167.922 331.158 167.604 325.392 167.519C326.485 167.168 328.244 166.983 331.619 166.952C332.161 167.086 332.702 167.22 333.243 167.354C333.318 166.995 334.186 166.861 336.083 166.605C336.085 166.605 336.086 166.606 336.088 166.606C341.219 166.58 340.912 166.7 342.146 167.291C336.714 166.957 336.552 167.497 332.85 167.818C330.307 168.039 326.987 167.939 326.024 168.456ZM295.654 4.77324C291.813 5.22437 295.26 5.64514 288.445 5.16589C288.885 5.05127 289.326 4.93763 289.766 4.82302C291.728 4.80531 293.691 4.78887 295.654 4.77324ZM307.068 166.625C307.507 167.452 311.124 168.096 311.741 166.75C308.216 166.476 309.938 167.238 307.068 166.625ZM499.163 164.24C499.153 165.997 499.082 167.212 498.976 168L499 167.976C497.168 167.728 497.646 167.283 499 166.94L497.94 168C497.861 167.69 497.788 167.334 497.724 166.95C497.893 166.52 498.063 166.09 498.232 165.669C498.155 164.482 498.078 163.295 498.002 162.107C498.388 162.818 498.776 163.529 499.163 164.24ZM187.585 167.533C192.764 166.943 181.994 167.205 185.612 166.836C188.501 166.541 192.308 167.136 190.868 167.509C189.868 167.52 188.754 167.527 187.595 167.533C187.592 167.533 187.588 167.533 187.585 167.533ZM217.557 167.364C216.706 166.733 217.932 166.917 213.84 167.031C212.671 167.063 203.385 166.826 207.284 167.349C210.602 167.349 214.108 167.358 217.557 167.364ZM498.239 85.8979C498.514 85.8356 499.118 92.9862 498.967 93.904C498.967 93.904 498.967 93.904 498.968 93.904C498.556 96.3814 498.498 88.8386 497.933 92.1105C498.43 84.8654 497.228 82.6978 498.812 83.2027C498.881 87.4706 498.555 85.45 498.239 85.8979ZM37.3234 4.42423C37.32 4.42423 37.3167 4.42423 37.3134 4.42423C37.7936 4.43716 41.7502 4.84058 41.2691 4.98032C36.511 4.86051 37.3589 4.59496 32.9292 5.03132C32.6864 4.89077 32.4783 4.75445 32.2168 4.61287C33.9744 4.52951 34.9487 4.36067 37.3234 4.42423ZM259.53 4.22514C261.278 4.15325 264.469 4.45116 266.46 4.43345C260.121 5.57749 252.547 4.51066 259.53 4.22514ZM10.9146 109.932C10.915 109.937 10.9154 109.942 10.9158 109.947C10.9152 109.945 10.9146 109.943 10.914 109.942C10.9142 109.939 10.9144 109.935 10.9146 109.932ZM395.005 4.9115C394.78 4.83723 394.652 4.77272 394.607 4.7161C394.607 4.71077 394.607 4.70545 394.607 4.70012C394.728 4.76966 394.858 4.83999 395.005 4.9115ZM498.156 71.0367C498.539 68.0584 499.149 77.9813 499.003 81.1899C498.828 80.9657 498.67 80.9307 498.469 80.4078C498.922 77.8179 498.091 71.5321 498.156 71.0367ZM369.731 167.297C377.575 167.307 367.367 168.821 366.946 167.613C366.962 167.59 369.529 167.299 369.731 167.297ZM498.315 132.893C498.773 134.891 498.895 130.875 498.815 137.297C498.697 137.671 498.578 138.044 498.459 138.418C498.411 136.577 498.363 134.734 498.315 132.893ZM421.116 169.284C430.988 169.029 440.429 168.578 433.999 167.315C433.252 167.355 432.494 167.394 431.747 167.435C431.635 168.052 428.878 167.715 424.842 167.695C424.267 167.94 422.029 167.996 421.609 168.204C420.797 168.606 423.368 168.889 421.116 169.284ZM9.71944 162.328C9.82468 162.486 9.93046 162.642 10.0347 162.801C10.1534 164.362 10.2717 165.928 10.3904 167.489C10.1885 167.237 9.98653 166.984 9.78457 166.732C9.7627 165.265 9.7407 163.805 9.71883 162.337C9.71903 162.334 9.71924 162.331 9.71944 162.328ZM483.953 3.35322C483.057 4.51155 486.191 4.29821 492.547 3.71268C489.687 3.59286 486.814 3.47304 483.953 3.35322ZM262.479 168.815C262.274 168.485 262.071 168.157 261.856 167.828C258.481 168.171 259.108 168.548 260.725 168.984C261.314 168.927 261.891 168.871 262.479 168.815ZM213.865 168.955C215.265 169.023 214.55 168.758 214.697 168.763C218.24 168.903 218.739 169.024 223.087 168.824C223.619 168.755 224.143 168.681 224.676 168.609C222.666 167.92 221.207 168.296 216.954 167.89C217.72 168.127 218.484 168.364 219.25 168.601C216.886 168.551 214.531 168.502 212.166 168.452C211.886 168.525 211.605 168.597 211.324 168.67C212.165 168.764 213.033 168.869 213.865 168.955ZM10.0187 144.273C10.0458 141.973 10.0739 139.663 10.101 137.363C9.9312 137.279 9.76023 137.198 9.5904 137.114C9.73312 139.497 9.87597 141.889 10.0187 144.273ZM436.734 3.88104C436.552 3.94129 436.374 4.0019 436.216 4.06354C436.231 3.98841 436.431 3.92977 436.734 3.88104ZM31.2553 3.4927C28.6474 3.37394 24.8893 3.45192 22.0287 3.42696C22.2535 3.853 29.5242 3.73523 32.0773 3.99349C32.4876 3.91705 32.3577 3.54268 31.2553 3.4927ZM493.384 168.125C492.73 168.338 492.076 168.549 491.431 168.762C489.851 168.739 488.268 168.715 486.678 168.692C486.632 168.866 486.586 169.041 486.539 169.215C493.54 168.989 491.926 169.491 495.392 169.986C494.719 169.366 494.057 168.746 493.384 168.125ZM8.91511 71.0974C9.03285 76.1551 9.25275 77.9491 9.77474 75.0979C9.65496 73.3129 9.53506 71.5173 9.41528 69.7323C9.24861 70.1903 9.08178 70.6488 8.91511 71.0974ZM344.622 3.48779C340.39 3.68283 340.32 2.98229 336.183 3.3735C338.398 3.50267 340.613 3.63328 342.819 3.76245C343.415 3.67112 344.026 3.57913 344.622 3.48779ZM501.436 57.2017C501.68 55.4161 500.521 52.0782 501.376 47.0584C501.121 45.8621 500.877 45.1123 500.627 44.0841C500.899 43.4858 501.175 42.8061 501.445 42.2358C501.445 42.2325 501.445 42.2291 501.445 42.2258C501.353 37.6728 501.012 40.6248 500.723 40.522C500.604 40.4737 500.804 37.0946 500.543 38.1506C500.096 39.9736 500.353 46.7856 499.808 46.8043C499.986 44.411 499.838 39.7375 499.474 41.1198C499.075 42.6342 499.744 47.0385 499.413 49.8433C500.284 45.8242 500.015 54.1252 499.346 55.0694C499.859 59.9401 500.069 55.4633 500.045 50.471C500.558 53.5187 500.281 49.0326 500.707 48.2939C500.964 51.4366 500.75 62.2215 501.436 57.2017ZM379.999 169.492C383.366 169.459 388.625 169.752 390.93 169.319C392.272 169.067 387 168.872 390.636 168.476C387.356 168.515 386.607 168.669 387.168 169.016C386.421 169.058 385.664 169.098 384.916 169.139C384.571 169.071 384.216 169.004 383.87 168.937C383.478 169.08 383.083 169.221 382.699 169.364C381.905 169.336 381.102 169.308 380.308 169.278C380.215 169.35 380.056 169.413 379.999 169.492ZM223.097 3.50929C224.031 3.50513 224.957 3.50098 225.892 3.49578C225.789 3.41129 225.666 3.3233 225.548 3.23647C225.463 3.16786 225.378 3.09924 225.294 3.03063C225.835 3.27577 230.288 3.68322 232.164 3.42143C233.107 3.29009 230.961 2.82383 234.959 2.74244C232.061 2.76642 229.377 2.83005 226.564 2.86964C226.817 2.73106 227.059 2.591 227.311 2.45242C227.31 2.45221 227.308 2.45201 227.306 2.4518C226.372 2.42055 225.426 2.38781 224.492 2.35656C224.024 2.74104 223.564 3.12481 223.097 3.50929ZM265.219 169.465C268.407 169.193 269.474 169.052 267.969 168.612C267.966 168.612 267.963 168.612 267.959 168.612C266.772 168.807 265.584 169.001 264.397 169.196C264.668 169.286 264.939 169.376 265.219 169.465ZM409.273 2.42968C402.496 4.09987 417.759 3.07602 414.853 2.5071C414.722 2.48106 409.909 2.61411 409.273 2.42968ZM499.676 162.994C499.688 164.659 499.699 166.328 499.711 168L499.717 168.706L499 168.711C498.804 168.713 498.607 168.714 498.411 168.716C498.606 168.809 498.803 168.901 499 168.994L500.002 168.987L499.994 168C500.106 167.762 500.218 167.524 500.331 167.289C500.113 165.858 499.894 164.425 499.676 162.994ZM8.15686 93.1178C7.6984 95.0759 7.5323 100.102 8.0309 102.559C8.08924 101.268 8.14767 99.9778 8.20602 98.6876C8.2633 101.127 8.32636 103.538 8.38052 105.996C9.01924 106.127 8.64869 103.295 8.82478 99.0314C8.85318 98.3714 9.64601 94.1514 9.04845 92.6943C8.92563 92.4011 8.84211 96.8902 8.48498 93.7704C8.45688 95.1346 8.46311 96.3121 8.4475 97.6016C8.29538 97.695 8.14308 97.7877 7.99096 97.8905C8.04604 96.296 8.10178 94.7122 8.15686 93.1178ZM399.598 169.442C404.222 169.477 404.793 169.222 405.756 168.771C403.606 168.822 401.455 168.872 399.304 168.923C399.407 169.096 399.496 169.268 399.598 169.442ZM8.01062 134.448C7.93684 136.98 8.30397 135.896 8.37377 136.914C8.63629 140.766 8.37391 143.393 8.53844 147.197C8.46759 146.945 8.40137 146.713 8.3326 146.47C8.3326 146.473 8.3326 146.477 8.3326 146.48C8.02317 164.494 8.85577 155.032 8.72032 144.253C8.85682 144 8.99349 143.758 9.12894 143.506C8.89035 138.682 8.66076 134.233 8.01062 134.448ZM469.491 2.37254C469.285 2.2871 471.033 1.74414 467.752 1.99833C465.154 2.79107 469.415 2.3976 470.482 2.7025C469.594 2.77856 468.686 2.85256 467.807 2.92863C473.117 3.15265 473.892 2.96415 471.957 2.38483C471.819 2.34589 469.697 2.45771 469.491 2.37254ZM434.592 1.98174C433.863 3.14976 440.564 2.62453 440.321 2.26193C439.396 2.24748 438.677 2.44524 437.696 2.35779C436.705 2.27028 436.452 1.99745 434.592 1.98174ZM500.733 131.593C500.738 131.396 501.229 129.424 500.844 129.62C499.935 132.06 500.52 136.976 500.837 136.116C500.821 134.49 500.685 133.406 500.734 131.593C500.733 131.593 500.733 131.593 500.733 131.593ZM7.88158 62.618C7.84899 62.7115 7.65168 67.6325 7.83488 68.2676C8.04115 68.791 8.26221 69.0508 8.47577 69.4434C8.2778 66.7321 8.4286 61.2443 7.88158 62.628C7.88158 62.6247 7.88158 62.6214 7.88158 62.618Z" fill="#C8C8C8"/>
</g>
<defs>
<filter id="filter0_d_231_247" x="0.966309" y="0.138672" width="505.906" height="189.75" filterUnits="userSpaceOnUse" color-interpolation-filters="sRGB">
<feFlood flood-opacity="0" result="BackgroundImageFix"/>
<feColorMatrix in="SourceAlpha" type="matrix" values="0 0 0 0 0 0 0 0 0 0 0 0 0 0 0 0 0 0 127 0" result="hardAlpha"/>
<feOffset dy="13"/>
<feGaussianBlur stdDeviation="2"/>
<feComposite in2="hardAlpha" operator="out"/>
<feColorMatrix type="matrix" values="0 0 0 0 1 0 0 0 0 1 0 0 0 0 1 0 0 0 0.25 0"/>
<feBlend mode="normal" in2="BackgroundImageFix" result="effect1_dropShadow_231_247"/>
<feBlend mode="normal" in="SourceGraphic" in2="effect1_dropShadow_231_247" result="shape"/>
</filter>
</defs>
</svg>
